<svg width="480" height="334" viewBox="0 0 480 334" fill="none" xmlns="http://www.w3.org/2000/svg">
<g clip-path="url(#clip0_74_792)">
<path d="M95.6368 334C148.456 334 191.274 330.748 191.274 326.736C191.274 322.724 148.456 319.471 95.6368 319.471C42.8181 319.471 0 322.724 0 326.736C0 330.748 42.8181 334 95.6368 334Z" fill="#E6E6E6"/>
<path d="M73.1025 74.1087C89.7462 67.0288 110.476 71.5146 130.721 74.6279C130.91 70.8576 133.193 66.2691 130.801 63.6387C127.895 60.4431 128.163 57.0855 129.911 53.7084C134.383 45.0729 127.976 35.8842 121.507 28.2439C120.049 26.5257 118.206 25.1757 116.129 24.3035C114.051 23.4313 111.797 23.0616 109.549 23.2243L97.566 24.0804C94.65 24.2887 91.8671 25.3827 89.5898 27.216C87.3124 29.0493 85.6492 31.5345 84.8227 34.339C81.9613 38.231 80.4299 42.1122 81.3941 45.9733C77.1082 48.9025 76.3881 52.4384 78.314 56.4246C79.9471 58.9344 79.9297 61.3774 78.2397 63.7529C76.0203 66.7814 74.3203 70.1583 73.2097 73.7451L73.1025 74.1087Z" fill="#2F2E41"/>
<path d="M468.626 288.738H129.407C126.391 288.738 123.498 287.539 121.365 285.406C119.232 283.272 118.033 280.379 118.033 277.362C241 263.069 361.656 263.069 480 277.362C480 280.379 478.802 283.272 476.669 285.406C474.536 287.539 471.643 288.738 468.626 288.738Z" fill="#2F2E41"/>
<path d="M480 278.031L118.033 277.362L159.984 206.767L160.185 206.432V50.8486C160.184 48.9602 160.556 47.0902 161.279 45.3454C162.001 43.6007 163.06 42.0154 164.396 40.6801C165.731 39.3447 167.316 38.2855 169.06 37.5629C170.805 36.8403 172.675 36.4684 174.563 36.4686H421.463C423.352 36.4684 425.221 36.8403 426.966 37.5629C428.71 38.2855 430.296 39.3447 431.631 40.6801C432.966 42.0154 434.025 43.6007 434.748 45.3454C435.47 47.0902 435.842 48.9602 435.842 50.8486V207.503L480 278.031Z" fill="#3F3D56"/>
<path d="M174.234 46.5058C172.993 46.5072 171.802 47.0012 170.924 47.8793C170.046 48.7574 169.552 49.948 169.551 51.1899V193.049C169.552 194.291 170.046 195.482 170.924 196.36C171.802 197.238 172.993 197.732 174.234 197.733H423.798C425.039 197.732 426.23 197.238 427.108 196.36C427.986 195.482 428.48 194.291 428.481 193.049V51.1899C428.48 49.948 427.986 48.7575 427.108 47.8794C426.23 47.0012 425.039 46.5073 423.798 46.5058H174.234Z" fill="white"/>
<path d="M175.28 216.47C174.897 216.47 174.521 216.581 174.198 216.788C173.875 216.995 173.618 217.29 173.457 217.638L160.53 245.742C160.39 246.048 160.328 246.384 160.351 246.72C160.375 247.056 160.482 247.381 160.664 247.664C160.845 247.948 161.095 248.181 161.391 248.342C161.686 248.504 162.017 248.589 162.354 248.589H434.188C434.53 248.589 434.866 248.501 435.165 248.335C435.464 248.168 435.715 247.928 435.895 247.637C436.075 247.345 436.177 247.013 436.193 246.671C436.208 246.33 436.135 245.989 435.982 245.683L421.932 217.579C421.766 217.245 421.51 216.964 421.193 216.768C420.876 216.572 420.51 216.469 420.137 216.47H175.28Z" fill="#2F2E41"/>
<path d="M298.013 44.1638C299.676 44.1638 301.024 42.8157 301.024 41.1526C301.024 39.4896 299.676 38.1415 298.013 38.1415C296.35 38.1415 295.002 39.4896 295.002 41.1526C295.002 42.8157 296.35 44.1638 298.013 44.1638Z" fill="white"/>
<path d="M271.293 253.942C270.852 253.942 270.423 254.088 270.073 254.357C269.723 254.625 269.471 255.001 269.356 255.427L266.113 267.472C266.033 267.769 266.022 268.081 266.082 268.384C266.142 268.686 266.27 268.97 266.458 269.215C266.645 269.46 266.886 269.658 267.163 269.794C267.439 269.931 267.743 270.001 268.051 270.001H329.715C330.035 270.001 330.35 269.925 330.635 269.778C330.919 269.632 331.164 269.419 331.35 269.158C331.535 268.898 331.656 268.596 331.701 268.279C331.747 267.963 331.716 267.64 331.611 267.337L327.443 255.293C327.306 254.898 327.05 254.556 326.71 254.314C326.37 254.072 325.963 253.942 325.546 253.942H271.293Z" fill="#2F2E41"/>
<path d="M435.841 204.09V206.767H159.983L160.191 206.433V204.09H435.841Z" fill="#2F2E41"/>
<path d="M428.147 93.6808C454.014 93.6808 474.982 72.7096 474.982 46.8404C474.982 20.9712 454.014 0 428.147 0C402.281 0 381.312 20.9712 381.312 46.8404C381.312 72.7096 402.281 93.6808 428.147 93.6808Z" fill="#6C63FF"/>
<path d="M447.55 67.2494H408.744C408.034 67.2487 407.354 66.9665 406.852 66.4647C406.35 65.9629 406.068 65.2825 406.067 64.5728V41.1526C406.068 40.443 406.35 39.7626 406.852 39.2608C407.354 38.759 408.034 38.4768 408.744 38.476H447.55C448.259 38.4768 448.94 38.759 449.441 39.2608C449.943 39.7626 450.225 40.443 450.226 41.1526V64.5728C450.225 65.2825 449.943 65.9629 449.441 66.4647C448.94 66.9665 448.259 67.2487 447.55 67.2494ZM408.744 41.1527V64.5728H447.552L447.55 41.1526L408.744 41.1527Z" fill="white"/>
<path d="M440.19 41.1526H416.104V30.4463C416.104 22.6916 421.169 17.0633 428.147 17.0633C435.125 17.0633 440.19 22.6916 440.19 30.4463L440.19 41.1526ZM418.78 38.4761H437.514V30.4463C437.514 24.1426 433.662 19.7399 428.147 19.7399C422.632 19.7399 418.78 24.1426 418.78 30.4463L418.78 38.4761Z" fill="white"/>
<path d="M428.147 54.8702C429.625 54.8702 430.823 53.6718 430.823 52.1936C430.823 50.7154 429.625 49.517 428.147 49.517C426.669 49.517 425.471 50.7154 425.471 52.1936C425.471 53.6718 426.669 54.8702 428.147 54.8702Z" fill="white"/>
<path d="M395.452 149.616H202.58C201.634 149.615 200.726 149.238 200.056 148.569C199.387 147.899 199.01 146.991 199.009 146.044V98.1952C199.01 97.2482 199.387 96.3402 200.056 95.6706C200.726 95.0009 201.634 94.6242 202.58 94.6231H395.452C396.399 94.6242 397.307 95.0009 397.976 95.6706C398.646 96.3402 399.023 97.2482 399.024 98.1952V146.044C399.023 146.991 398.646 147.899 397.976 148.569C397.307 149.238 396.399 149.615 395.452 149.616ZM202.58 96.052C202.012 96.0526 201.468 96.2786 201.066 96.6804C200.664 97.0822 200.438 97.627 200.437 98.1952V146.044C200.438 146.612 200.664 147.157 201.066 147.559C201.468 147.961 202.012 148.187 202.58 148.187H395.452C396.02 148.187 396.565 147.961 396.967 147.559C397.368 147.157 397.594 146.612 397.595 146.044V98.1952C397.594 97.627 397.368 97.0822 396.967 96.6804C396.565 96.2786 396.02 96.0526 395.452 96.0519L202.58 96.052Z" fill="#E6E6E6"/>
<path d="M232.549 134.835C240.584 134.835 247.098 128.32 247.098 120.284C247.098 112.247 240.584 105.733 232.549 105.733C224.514 105.733 218 112.247 218 120.284C218 128.32 224.514 134.835 232.549 134.835Z" fill="#E6E6E6"/>
<path d="M266.15 110.583C265.832 110.583 265.516 110.645 265.221 110.767C264.927 110.888 264.659 111.067 264.433 111.292C264.208 111.517 264.029 111.785 263.907 112.079C263.785 112.374 263.722 112.689 263.722 113.008C263.722 113.327 263.785 113.643 263.907 113.937C264.029 114.232 264.208 114.499 264.433 114.724C264.659 114.95 264.927 115.128 265.221 115.25C265.516 115.372 265.832 115.434 266.15 115.433H380.465C381.108 115.433 381.725 115.178 382.18 114.723C382.635 114.268 382.89 113.651 382.89 113.008C382.89 112.365 382.635 111.748 382.18 111.293C381.725 110.839 381.108 110.583 380.465 110.583H266.15Z" fill="#E6E6E6"/>
<path d="M266.15 125.134C265.507 125.134 264.891 125.389 264.436 125.844C263.981 126.299 263.726 126.916 263.726 127.559C263.726 128.202 263.981 128.819 264.436 129.274C264.891 129.729 265.507 129.984 266.15 129.984H315.34C315.984 129.984 316.6 129.729 317.055 129.274C317.51 128.819 317.765 128.202 317.765 127.559C317.765 126.916 317.51 126.299 317.055 125.844C316.6 125.389 315.984 125.134 315.34 125.134H266.15Z" fill="#E6E6E6"/>
<path d="M159.508 126.115L123.855 145.072L123.403 129.275C135.04 127.332 146.112 123.949 156.349 118.442L160.078 109.228C160.484 108.224 161.145 107.343 161.995 106.671C162.844 106 163.854 105.561 164.924 105.397C165.995 105.234 167.09 105.351 168.101 105.739C169.112 106.126 170.005 106.77 170.693 107.607C171.699 108.831 172.201 110.393 172.099 111.974C171.997 113.555 171.298 115.039 170.143 116.124L159.508 126.115Z" fill="#FFB8B8"/>
<path d="M72.3922 235.568C72.1321 234.614 72.0769 233.616 72.2302 232.639C72.3835 231.662 72.7418 230.729 73.2816 229.9L81.1137 217.879C82.9662 215.036 85.8087 212.982 89.0897 212.116C92.3707 211.25 95.8562 211.634 98.8701 213.194C95.5785 218.797 96.0373 223.713 100.007 227.985C93.8446 230.994 88.1493 234.877 83.0973 239.514C82.175 240.143 81.1158 240.542 80.008 240.679C78.9001 240.815 77.7757 240.685 76.7284 240.299C75.681 239.913 74.7411 239.282 73.9868 238.459C73.2326 237.636 72.6859 236.645 72.3922 235.568Z" fill="#2F2E41"/>
<path d="M161.132 219.85C159.947 221.826 158.274 223.463 156.274 224.606C154.274 225.749 152.013 226.358 149.71 226.375L97.6784 226.77L95.4219 213.68L118.439 206.91L99.0324 192.014L120.244 167.189L158.771 203.102C161.023 205.201 162.486 208.01 162.916 211.058C163.346 214.107 162.716 217.21 161.132 219.85Z" fill="#2F2E41"/>
<path d="M89.5554 309.37H77.3699C66.4291 234.366 55.2924 159.153 88.2014 131.08L127.014 137.399L122.05 170.349L100.387 195.174L89.5554 309.37Z" fill="#2F2E41"/>
<path d="M100.267 326.36C99.3134 326.621 98.3152 326.676 97.3384 326.523C96.3616 326.369 95.4283 326.011 94.5998 325.471L81.3689 323.693C78.5258 321.84 76.4722 318.997 75.6064 315.716C74.7406 312.435 75.1244 308.949 76.6833 305.934C82.2864 309.226 87.2016 308.767 91.4728 304.797C94.4908 310.891 99.4633 310.519 104.212 315.654C104.841 316.576 105.24 317.636 105.377 318.743C105.514 319.851 105.383 320.976 104.997 322.023C104.612 323.071 103.981 324.011 103.158 324.765C102.335 325.52 101.344 326.067 100.267 326.36Z" fill="#2F2E41"/>
<path d="M118.44 80.9783L95.874 75.5619C99.6218 67.8896 99.9304 59.3525 98.1306 50.2854L113.475 49.834C113.956 61.1092 115.411 71.6431 118.44 80.9783Z" fill="#FFB8B8"/>
<path d="M124.641 150.99C108.214 162.185 96.6073 151.373 87.7499 134.691C88.9807 124.483 86.9878 112.268 83.2969 98.9947C81.6554 93.1403 82.2682 86.8832 85.0144 81.4586C87.7605 76.0341 92.4404 71.8363 98.1301 69.6942L117.537 77.8188C134.015 91.2521 137.258 105.803 131.076 121.15L124.641 150.99Z" fill="#6C63FF"/>
<path d="M77.3698 92.2625L59.3172 101.741L91.3605 120.699L95.8191 131.698C96.1167 132.432 96.2617 133.219 96.2452 134.011C96.2287 134.803 96.0511 135.583 95.7232 136.304C95.3953 137.026 94.924 137.672 94.3381 138.205C93.7521 138.738 93.0637 139.146 92.3149 139.405C91.4637 139.698 90.5561 139.791 89.6632 139.675C88.7703 139.559 87.9163 139.238 87.1681 138.737C86.42 138.236 85.7979 137.569 85.3507 136.787C84.9035 136.006 84.6432 135.131 84.5904 134.232L84.1395 126.566L43.4128 113.125C42.0407 112.672 40.7895 111.913 39.7542 110.905C38.7188 109.897 37.9264 108.666 37.437 107.307C36.7235 105.325 36.6872 103.162 37.3337 101.157C37.9802 99.1523 39.273 97.4184 41.0098 96.2267L73.7593 73.7565L77.3698 92.2625Z" fill="#FFB8B8"/>
<path d="M95.4227 94.068C87.8936 90.768 81.0473 94.3527 72.4057 97.2275L71.0518 73.3051C79.6325 68.7311 87.8137 67.4979 95.4227 71.0483L95.4227 94.068Z" fill="#6C63FF"/>
<path d="M104.429 61.6836C112.386 61.6836 118.836 55.2325 118.836 47.2746C118.836 39.3167 112.386 32.8656 104.429 32.8656C96.4719 32.8656 90.0215 39.3167 90.0215 47.2746C90.0215 55.2325 96.4719 61.6836 104.429 61.6836Z" fill="#FFB8B8"/>
<path d="M121.665 45.4566C107.4 46.8538 96.5307 44.5206 89.584 37.8773V32.5273H120.454L121.665 45.4566Z" fill="#2F2E41"/>
</g>
<defs>
<clipPath id="clip0_74_792">
<rect width="480" height="334" fill="white"/>
</clipPath>
</defs>
</svg>
