<svg width="468" height="311" viewBox="0 0 468 311" fill="none" xmlns="http://www.w3.org/2000/svg">
<g clip-path="url(#clip0_73_684)">
<path d="M167.872 178.983C183.91 150.772 214.504 129.11 246.89 131.196C223.001 157.173 209.071 190.761 207.564 226.019C207.032 239.619 207.857 254.8 198.827 264.983C193.208 271.32 184.62 274.389 176.175 275.032C167.731 275.676 159.288 274.15 150.956 272.631L148.935 273.252C148.166 240.809 151.833 207.195 167.872 178.983Z" fill="#6C63FF"/>
<path d="M246.938 131.876C222.989 143.404 202.568 162.658 190.032 186.139C187.322 191.216 185.015 196.601 184.008 202.296C183.001 207.992 183.704 213.415 185.65 218.826C187.429 223.773 189.822 228.627 190.367 233.92C190.942 239.499 188.89 244.715 185.194 248.855C180.673 253.921 174.601 257.059 168.557 259.923C161.846 263.102 154.824 266.298 150.071 272.231C149.495 272.95 148.413 272.014 148.988 271.296C157.258 260.973 171.415 259.033 181.231 250.717C185.812 246.837 189.251 241.553 189.034 235.361C188.844 229.947 186.381 224.94 184.537 219.947C182.6 214.704 181.634 209.433 182.329 203.843C183.039 198.125 185.141 192.638 187.709 187.514C193.502 175.959 201.429 165.351 210.511 156.181C220.948 145.64 233.111 136.962 246.475 130.522C247.302 130.124 247.76 131.48 246.938 131.876Z" fill="white"/>
<path d="M193.704 178.291C190.033 175.607 187.435 171.705 186.375 167.282C185.315 162.86 185.862 158.204 187.918 154.147C188.337 153.328 189.63 153.94 189.21 154.761C187.289 158.535 186.78 162.872 187.776 166.988C188.771 171.104 191.205 174.729 194.639 177.209C195.384 177.748 194.445 178.828 193.704 178.291Z" fill="white"/>
<path d="M184.418 216.437C193.618 215.093 201.973 210.331 207.818 203.1C208.396 202.383 209.478 203.319 208.9 204.035C202.804 211.548 194.1 216.486 184.523 217.863C183.61 217.994 183.51 216.567 184.418 216.437Z" fill="white"/>
<path d="M221.655 147.4C222.859 148.734 224.375 149.749 226.069 150.353C227.762 150.956 229.579 151.13 231.356 150.858C232.266 150.716 232.365 152.143 231.46 152.284C229.496 152.576 227.49 152.382 225.617 151.719C223.745 151.056 222.064 149.945 220.72 148.482C220.582 148.355 220.497 148.18 220.483 147.993C220.47 147.805 220.528 147.62 220.646 147.474C220.77 147.331 220.946 147.243 221.135 147.229C221.324 147.215 221.511 147.277 221.655 147.4Z" fill="white"/>
<path d="M311.328 220.194C310.762 220.299 310.196 220.404 309.624 220.52C302.02 221.97 294.546 224.036 287.276 226.697C286.711 226.894 286.141 227.102 285.582 227.315C268.135 233.912 252.065 243.691 238.189 256.154C232.672 261.119 227.54 266.496 222.839 272.239C216.346 280.171 209.938 289.287 201.454 294.459C200.575 295.008 199.663 295.503 198.723 295.94L149.849 275.669C149.761 275.567 149.668 275.476 149.58 275.374L147.591 274.654C147.813 274.341 148.05 274.021 148.272 273.708C148.4 273.526 148.538 273.348 148.666 273.166C148.755 273.046 148.844 272.926 148.917 272.812C148.947 272.772 148.977 272.733 149.001 272.704C149.075 272.59 149.155 272.493 149.223 272.39C150.542 270.598 151.875 268.812 153.223 267.032C153.228 267.021 153.228 267.021 153.243 267.014C163.551 253.477 175.079 240.682 188.183 230.043C188.578 229.723 188.976 229.391 189.393 229.081C195.326 224.318 201.639 220.048 208.268 216.314C211.904 214.28 215.641 212.433 219.464 210.777C229.351 206.519 239.846 203.843 250.565 202.846C271.933 200.862 293.698 205.733 310.086 219.156C310.505 219.5 310.914 219.839 311.328 220.194Z" fill="#6C63FF"/>
<path d="M310.961 220.769C284.897 215.555 257 218.634 232.852 229.836C227.632 232.258 222.547 235.169 218.314 239.109C214.08 243.052 211.377 247.805 209.673 253.297C208.115 258.317 207.102 263.633 204.351 268.188C201.451 272.988 196.671 275.918 191.228 276.999C184.568 278.321 177.83 277.172 171.28 275.819C164.007 274.317 156.477 272.642 149.109 274.517C148.216 274.745 147.916 273.346 148.807 273.119C161.626 269.856 174.098 276.829 186.943 276.1C192.936 275.759 198.864 273.61 202.418 268.536C205.527 264.099 206.575 258.618 208.109 253.521C209.719 248.169 212.122 243.378 216.042 239.334C220.052 235.196 225.034 232.08 230.17 229.536C241.752 223.797 254.469 220.099 267.241 218.245C281.922 216.112 296.858 216.506 311.406 219.409C312.306 219.589 311.855 220.948 310.961 220.769Z" fill="white"/>
<path d="M240.51 225.781C239.194 221.427 239.47 216.748 241.286 212.578C243.103 208.409 246.343 205.021 250.427 203.019C251.255 202.617 251.918 203.885 251.09 204.287C247.283 206.144 244.266 209.3 242.582 213.186C240.898 217.072 240.659 221.432 241.908 225.479C242.178 226.359 240.778 226.655 240.51 225.781Z" fill="white"/>
<path d="M210.127 250.647C218.282 255.112 227.821 256.34 236.841 254.086C237.734 253.862 238.035 255.26 237.142 255.484C227.752 257.812 217.828 256.514 209.352 251.849C208.545 251.404 209.324 250.204 210.127 250.647Z" fill="white"/>
<path d="M281.426 217.942C281.584 219.733 282.184 221.456 283.173 222.957C284.161 224.459 285.507 225.691 287.09 226.544C287.902 226.979 287.122 228.178 286.314 227.746C284.57 226.796 283.086 225.433 281.99 223.777C280.894 222.12 280.22 220.221 280.028 218.244C279.994 218.059 280.032 217.869 280.134 217.711C280.236 217.553 280.394 217.44 280.576 217.394C280.762 217.355 280.955 217.391 281.114 217.493C281.273 217.596 281.385 217.757 281.426 217.942Z" fill="white"/>
<path d="M218.227 253.637C211.383 220.544 202.827 209.511 202.827 209.511L199.559 206.976L195.628 203.923L195.647 203.531L194.715 203.214L194.496 203.044L194.137 202.768L194.079 202.83L193.957 202.956L176.171 196.911L153.605 189.246L143.156 175.665C141.454 173.454 139.263 171.666 136.755 170.442C134.246 169.219 131.489 168.593 128.698 168.614L95.3265 168.861C90.8143 168.894 86.4778 170.614 83.1695 173.682L61.2351 194.027L27.0569 210.349L26.9992 210.292L26.6403 210.548L21.3595 213.073L21.5774 214.207L18.3089 216.566C18.3089 216.566 9.75312 226.832 2.9085 257.624C1.16731 265.459 0.310229 282.267 0.000869365 302.977C-0.0146697 304.025 0.178241 305.065 0.56838 306.038C0.958519 307.01 1.5381 307.896 2.27344 308.642C3.00877 309.389 3.88518 309.981 4.8517 310.386C5.81823 310.791 6.85558 311 7.90346 311H190.456L213.241 311C214.288 310.999 215.324 310.791 216.29 310.387C217.256 309.982 218.132 309.39 218.867 308.645C219.603 307.899 220.182 307.015 220.573 306.043C220.964 305.072 221.158 304.033 221.143 302.986C220.841 280.449 219.984 262.134 218.227 253.637Z" fill="#3F3D56"/>
<path d="M241.65 28.8596C234.547 28.8596 227.736 31.6808 222.714 36.7027C217.692 41.7245 214.87 48.5356 214.87 55.6375C214.87 62.7394 217.692 69.5505 222.714 74.5723C227.736 79.5941 234.547 82.4153 241.65 82.4153H441.22C448.323 82.4153 455.134 79.5941 460.156 74.5723C465.178 69.5505 468 62.7394 468 55.6375C468 48.5356 465.178 41.7245 460.156 36.7027C455.134 31.6808 448.323 28.8596 441.22 28.8596H241.65Z" fill="#E5E5E5"/>
<path d="M241.65 34.2789C235.985 34.2789 230.552 36.5292 226.546 40.5347C222.54 44.5402 220.29 49.9728 220.29 55.6375C220.29 61.3021 222.54 66.7347 226.546 70.7402C230.552 74.7457 235.985 76.996 241.65 76.996H441.221C446.886 76.996 452.319 74.7457 456.324 70.7402C460.33 66.7347 462.58 61.3021 462.58 55.6375C462.58 49.9728 460.33 44.5402 456.324 40.5347C452.319 36.5292 446.886 34.2789 441.221 34.2789H241.65Z" fill="white"/>
<path d="M117.253 156.077C141.399 156.077 160.973 136.505 160.973 112.36C160.973 88.216 141.399 68.6431 117.253 68.6431C93.1072 68.6431 73.5332 88.216 73.5332 112.36C73.5332 136.505 93.1072 156.077 117.253 156.077Z" fill="#9E616A"/>
<path d="M106.069 153.937C105.882 153.526 105.696 153.113 105.51 152.699C105.581 152.701 105.652 152.712 105.724 152.713L106.069 153.937Z" fill="#2F2E41"/>
<path d="M72.3175 70.6312C74.5287 68.8673 77.1131 67.2444 79.9403 67.3356C82.7673 67.4267 85.6342 69.98 85.0485 72.7471C90.2413 63.5533 98.5067 56.4822 108.394 52.775C118.281 49.0678 129.158 48.9614 139.116 52.4744C146.143 54.9533 153.033 59.9125 154.647 67.1861C155.062 69.0533 155.151 71.1006 156.316 72.6168C157.786 74.5284 160.599 74.9609 162.915 74.2884C162.938 74.2817 162.961 74.2749 162.984 74.268C163.376 74.1344 163.798 74.1212 164.197 74.2303C164.595 74.3393 164.952 74.5654 165.221 74.8795C165.49 75.1936 165.658 75.581 165.705 75.9919C165.751 76.4027 165.673 76.8179 165.48 77.1838L163.492 80.8915C165.998 81.4501 168.602 81.3947 171.083 80.7301C171.495 80.622 171.93 80.6441 172.329 80.7932C172.728 80.9423 173.071 81.2113 173.311 81.5631C173.551 81.9149 173.676 82.3323 173.67 82.7582C173.663 83.1841 173.525 83.5975 173.274 83.9417C166.719 92.9417 155.766 98.7535 144.59 98.6852C136.646 98.6367 128.62 95.8991 120.889 97.7258C117.899 98.4324 115.104 99.7997 112.711 101.727C110.317 103.655 108.386 106.094 107.058 108.865C105.73 111.636 105.039 114.67 105.037 117.743C105.034 120.816 105.72 123.85 107.043 126.624C104.668 124.026 100.077 124.641 97.6474 127.188C95.218 129.735 94.5891 133.536 94.8339 137.047C95.2082 142.418 97.3124 147.478 99.5306 152.403C80.9327 151.817 63.3421 138.772 57.4211 121.128C51.4753 103.41 57.7067 82.2859 72.3175 70.6312Z" fill="#2F2E41"/>
<path opacity="0.2" d="M43.0317 243.646L55.2941 310.359L62.6519 311L43.0317 243.646Z" fill="black"/>
<path opacity="0.2" d="M178.105 238.615L165.842 310.311L158.484 311L178.105 238.615Z" fill="black"/>
<path d="M82.7763 48.1789C80.4251 49.1606 77.9718 48.0847 76.9429 45.6209C75.8983 43.1194 76.874 40.58 79.2628 39.5826C81.6519 38.585 84.0615 39.6635 85.1229 42.2054C86.1685 44.7091 85.2035 47.1654 82.7763 48.1789ZM78.2725 34.6588L76.4031 35.4393C75.936 35.632 75.4137 35.6424 74.9394 35.4684C74.4651 35.2945 74.0734 34.9489 73.8417 34.4999L73.7493 34.3191C71.7378 30.6917 71.5074 26.283 73.0683 21.2226C74.5143 16.6831 75.1149 13.4905 73.9071 10.5982C72.5106 7.25411 69.5287 6.20657 65.726 7.72404C64.2512 8.33985 63.7819 8.33003 62.6213 9.48133C62.3688 9.73481 62.0679 9.93485 61.7364 10.0695C61.405 10.2042 61.0498 10.2708 60.692 10.2652C60.3462 10.2612 60.0048 10.1875 59.688 10.0486C59.3713 9.90977 59.0858 9.70853 58.8485 9.45695C58.3913 8.9721 58.1352 8.33186 58.1319 7.66551C58.1285 6.99917 58.3781 6.35637 58.8304 5.86693C60.7812 3.82492 63.1342 2.20942 65.7408 1.12239C73.911 -2.28902 78.024 2.74744 79.9061 7.25459C81.747 11.6631 80.7115 15.7535 79.0476 21.0509C77.6532 25.4527 77.7344 28.7144 79.3183 31.9576C79.4327 32.2028 79.4963 32.4685 79.5054 32.7389C79.5144 33.0093 79.4688 33.2787 79.3711 33.531C79.2734 33.7833 79.1257 34.0133 78.937 34.2071C78.7482 34.4008 78.5221 34.5545 78.2725 34.6588Z" fill="#6C63FF"/>
<path d="M285.732 68.4087H246.025C245.899 68.4096 245.774 68.3855 245.657 68.3378C245.54 68.2901 245.434 68.2198 245.344 68.1309C245.255 68.042 245.184 67.9363 245.135 67.8198C245.087 67.7034 245.062 67.5785 245.062 67.4523C245.062 67.3262 245.087 67.2013 245.135 67.0849C245.184 66.9684 245.255 66.8627 245.344 66.7738C245.434 66.6849 245.54 66.6146 245.657 66.5669C245.774 66.5192 245.899 66.4951 246.025 66.496H285.732C285.985 66.4977 286.226 66.5992 286.404 66.7784C286.582 66.9575 286.682 67.1998 286.682 67.4523C286.682 67.7049 286.582 67.9471 286.404 68.1263C286.226 68.3055 285.985 68.407 285.732 68.4087Z" fill="#6C63FF"/>
<path d="M336.103 68.7275H296.396C296.27 68.7283 296.145 68.7043 296.028 68.6566C295.911 68.6089 295.805 68.5386 295.716 68.4497C295.626 68.3608 295.555 68.2551 295.507 68.1386C295.458 68.0222 295.433 67.8973 295.433 67.7711C295.433 67.645 295.458 67.5201 295.507 67.4036C295.555 67.2872 295.626 67.1815 295.716 67.0926C295.805 67.0037 295.911 66.9334 296.028 66.8857C296.145 66.838 296.27 66.8139 296.396 66.8148H336.103C336.229 66.8139 336.354 66.838 336.471 66.8857C336.588 66.9334 336.694 67.0037 336.784 67.0926C336.873 67.1815 336.944 67.2872 336.993 67.4036C337.041 67.5201 337.066 67.645 337.066 67.7711C337.066 67.8973 337.041 68.0222 336.993 68.1386C336.944 68.2551 336.873 68.3608 336.784 68.4497C336.694 68.5386 336.588 68.6089 336.471 68.6566C336.354 68.7043 336.229 68.7283 336.103 68.7275Z" fill="#6C63FF"/>
<path d="M386.474 69.0463H346.767C346.514 69.0446 346.273 68.943 346.095 68.7639C345.917 68.5847 345.817 68.3424 345.817 68.0899C345.817 67.8374 345.917 67.5951 346.095 67.416C346.273 67.2368 346.514 67.1353 346.767 67.1336H386.474C386.6 67.1327 386.725 67.1568 386.842 67.2045C386.959 67.2522 387.065 67.3225 387.155 67.4114C387.244 67.5003 387.315 67.606 387.364 67.7224C387.412 67.8389 387.437 67.9638 387.437 68.0899C387.437 68.2161 387.412 68.341 387.364 68.4574C387.315 68.5739 387.244 68.6796 387.155 68.7685C387.065 68.8574 386.959 68.9277 386.842 68.9753C386.725 69.023 386.6 69.0471 386.474 69.0463Z" fill="#6C63FF"/>
<path d="M436.845 69.365H397.138C396.885 69.3633 396.644 69.2618 396.466 69.0826C396.288 68.9035 396.188 68.6612 396.188 68.4087C396.188 68.1562 396.288 67.9139 396.466 67.7347C396.644 67.5556 396.885 67.454 397.138 67.4523H436.845C437.098 67.454 437.339 67.5556 437.517 67.7347C437.695 67.9139 437.795 68.1562 437.795 68.4087C437.795 68.6612 437.695 68.9035 437.517 69.0826C437.339 69.2618 437.098 69.3633 436.845 69.365Z" fill="#6C63FF"/>
<path d="M265.791 59.6073C269.867 59.6073 273.171 56.3034 273.171 52.2278C273.171 48.1523 269.867 44.8484 265.791 44.8484C261.716 44.8484 258.412 48.1523 258.412 52.2278C258.412 56.3034 261.716 59.6073 265.791 59.6073Z" fill="#6C63FF"/>
<path d="M316.467 59.6073C320.543 59.6073 323.847 56.3034 323.847 52.2278C323.847 48.1523 320.543 44.8484 316.467 44.8484C312.391 44.8484 309.087 48.1523 309.087 52.2278C309.087 56.3034 312.391 59.6073 316.467 59.6073Z" fill="#6C63FF"/>
<path d="M367.142 59.6073C371.217 59.6073 374.521 56.3034 374.521 52.2278C374.521 48.1523 371.217 44.8484 367.142 44.8484C363.066 44.8484 359.762 48.1523 359.762 52.2278C359.762 56.3034 363.066 59.6073 367.142 59.6073Z" fill="#6C63FF"/>
<path d="M417.817 59.6073C421.893 59.6073 425.197 56.3034 425.197 52.2278C425.197 48.1523 421.893 44.8484 417.817 44.8484C413.741 44.8484 410.437 48.1523 410.437 52.2278C410.437 56.3034 413.741 59.6073 417.817 59.6073Z" fill="#6C63FF"/>
</g>
<defs>
<clipPath id="clip0_73_684">
<rect width="468" height="311" fill="white"/>
</clipPath>
</defs>
</svg>
