<svg viewBox="0 0 32 32" xml:space="preserve" xmlns="http://www.w3.org/2000/svg" enable-background="new 0 0 32 32"><path d="M16 8.25a1.94 1.94 0 0 0 1.938-1.938V2.438A1.94 1.94 0 0 0 16 .5a1.94 1.94 0 0 0-1.938 1.938v3.874A1.94 1.94 0 0 0 16 8.25zM6.313 14.063H2.438A1.94 1.94 0 0 0 .5 16a1.94 1.94 0 0 0 1.938 1.938h3.874A1.94 1.94 0 0 0 8.25 16a1.94 1.94 0 0 0-1.938-1.938zM5.04 26.96c.366.366.852.568 1.37.568.517 0 1.004-.202 1.37-.568l2.74-2.74c.755-.755.755-1.985 0-2.74s-1.985-.755-2.74 0l-2.74 2.74a1.94 1.94 0 0 0 0 2.74zM14.063 29.563A1.94 1.94 0 0 0 16 31.5a1.94 1.94 0 0 0 1.938-1.938v-3.875A1.94 1.94 0 0 0 16 23.75a1.94 1.94 0 0 0-1.938 1.938v3.875zM21.48 24.22l2.74 2.74c.366.366.853.568 1.37.568a1.94 1.94 0 0 0 1.37-3.307l-2.74-2.74c-.755-.756-1.985-.756-2.74 0s-.754 1.984 0 2.74zM29.563 14.063h-3.875A1.94 1.94 0 0 0 23.75 16a1.94 1.94 0 0 0 1.938 1.938h3.875A1.94 1.94 0 0 0 31.5 16a1.94 1.94 0 0 0-1.938-1.938zM22.85 11.087c.518 0 1.004-.201 1.37-.567l2.74-2.74c.755-.755.755-1.985 0-2.74s-1.985-.755-2.74 0l-2.74 2.74a1.94 1.94 0 0 0 0 2.74c.367.366.853.567 1.37.567z" fill="#e4e4e4" class="fill-000000"></path></svg>