<svg width="482" height="339" viewBox="0 0 482 339" fill="none" xmlns="http://www.w3.org/2000/svg">
<g clip-path="url(#clip0_66_561)">
<path d="M189.537 212.748C189.685 211.74 189.611 210.711 189.318 209.735C189.026 208.758 188.522 207.858 187.843 207.097C187.165 206.336 186.327 205.733 185.39 205.33C184.453 204.927 183.438 204.735 182.418 204.766L137.714 159.624L128.883 171.953L175.603 212.45C175.769 214.158 176.556 215.745 177.816 216.912C179.075 218.079 180.72 218.743 182.437 218.78C184.155 218.817 185.826 218.223 187.135 217.111C188.443 216 189.298 214.447 189.537 212.748Z" fill="#FFB8B8"/>
<path d="M168.361 186.681L156.951 198.064C156.404 198.606 155.666 198.912 154.896 198.915C154.126 198.918 153.385 198.619 152.835 198.081L121.656 167.467C120.578 166.408 119.721 165.147 119.134 163.755C118.547 162.364 118.242 160.87 118.237 159.36C118.232 157.85 118.527 156.354 119.104 154.959C119.682 153.564 120.531 152.296 121.602 151.231C122.672 150.165 123.944 149.322 125.343 148.75C126.743 148.178 128.241 147.889 129.753 147.9C131.265 147.91 132.76 148.219 134.151 148.81C135.542 149.401 136.802 150.262 137.858 151.342L168.387 182.576C168.922 183.127 169.219 183.866 169.214 184.634C169.209 185.402 168.903 186.137 168.361 186.681Z" fill="#6C63FF"/>
<path d="M128.344 130.807C137.157 130.807 144.302 123.672 144.302 114.869C144.302 106.067 137.157 98.9316 128.344 98.9316C119.53 98.9316 112.386 106.067 112.386 114.869C112.386 123.672 119.53 130.807 128.344 130.807Z" fill="#FFB8B8"/>
<path d="M74.4219 305.858L78.4626 312.714L106.864 300.412L100.9 290.292L74.4219 305.858Z" fill="#FFB8B8"/>
<path d="M75.6328 302.792L83.5902 316.294C84.2561 317.424 84.693 318.674 84.8753 319.973C85.0576 321.271 84.982 322.593 84.6528 323.862C84.3237 325.131 83.7474 326.324 82.957 327.37C82.1665 328.417 81.1773 329.298 80.0459 329.963L79.7659 330.128L66.7373 308.022L75.6328 302.792Z" fill="#2F2E41"/>
<path d="M121.24 330.557H129.205L132.995 299.872L121.238 299.872L121.24 330.557Z" fill="#FFB8B8"/>
<path d="M119.208 327.96L134.895 327.959H134.896C136.208 327.959 137.508 328.218 138.721 328.719C139.934 329.221 141.036 329.956 141.965 330.884C142.893 331.811 143.629 332.911 144.132 334.123C144.634 335.334 144.893 336.632 144.893 337.944V338.268L119.209 338.269L119.208 327.96Z" fill="#2F2E41"/>
<path d="M89.2157 311.966C88.7572 311.967 88.3052 311.859 87.8961 311.652C87.487 311.446 87.1324 311.146 86.861 310.777L79.1788 300.356C78.9444 300.038 78.777 299.676 78.6867 299.292C78.5964 298.908 78.5851 298.509 78.6533 298.12C78.7216 297.732 78.8682 297.361 79.0841 297.03C79.2999 296.699 79.5807 296.416 79.9094 296.197L114.094 273.393L93.4676 219.226L137.577 222.861L139.063 269.41C139.202 273.649 138.185 277.846 136.12 281.552C134.055 285.258 131.019 288.334 127.338 290.45L90.6765 311.574C90.2326 311.831 89.7287 311.966 89.2157 311.966Z" fill="#2F2E41"/>
<path d="M121.48 324.328C120.724 324.326 119.997 324.032 119.453 323.507C118.91 322.982 118.591 322.267 118.564 321.512L116.947 276.165L136.964 275.112L135.371 320.784C135.347 321.508 135.055 322.197 134.55 322.716C134.046 323.236 133.365 323.55 132.642 323.596L121.679 324.321C121.613 324.326 121.546 324.328 121.48 324.328Z" fill="#2F2E41"/>
<path d="M142.682 231.866C137.589 231.866 119.801 226.145 113.625 224.106C112.701 224.844 107.626 228.634 101.702 227.942C98.0466 227.513 94.8286 225.447 92.1373 221.799C86.1942 213.744 93.5346 179.198 100.739 151.636C102.183 146.065 105.734 141.27 110.645 138.259C115.556 135.248 121.444 134.256 127.072 135.491C131.151 136.39 134.898 138.408 137.892 141.317C140.886 144.226 143.009 147.911 144.022 151.959C145.378 157.473 144.211 163.96 143.359 168.697C142.959 170.924 142.642 172.683 142.75 173.547C143.169 176.888 145.491 229.283 143.998 231.52C143.839 231.759 143.379 231.866 142.682 231.866Z" fill="#6C63FF"/>
<path d="M124.051 231.959C124.87 231.351 125.545 230.57 126.028 229.673C126.512 228.776 126.793 227.783 126.852 226.766C126.91 225.748 126.744 224.731 126.366 223.784C125.988 222.837 125.407 221.985 124.663 221.287L124.978 157.796L110.005 160.286L114.404 221.913C113.312 223.238 112.746 224.917 112.812 226.632C112.877 228.347 113.57 229.977 114.76 231.216C115.949 232.454 117.551 233.214 119.264 233.351C120.976 233.488 122.68 232.993 124.051 231.959Z" fill="#FFB8B8"/>
<path d="M127.514 198.571H111.387C110.616 198.568 109.878 198.264 109.331 197.722C108.784 197.181 108.472 196.446 108.463 195.677L108.067 152.011C108.053 150.501 108.339 149.003 108.909 147.605C109.478 146.206 110.32 144.934 111.385 143.862C112.449 142.79 113.716 141.94 115.112 141.36C116.508 140.78 118.006 140.483 119.518 140.484C121.029 140.486 122.526 140.787 123.921 141.371C125.315 141.954 126.58 142.807 127.642 143.882C128.705 144.956 129.543 146.23 130.109 147.631C130.675 149.031 130.958 150.529 130.94 152.039L130.438 195.684C130.426 196.452 130.114 197.184 129.567 197.724C129.02 198.264 128.283 198.568 127.514 198.571Z" fill="#6C63FF"/>
<path d="M124.281 130.741C116.974 130.754 110.081 124.986 108.815 117.8C108.362 114.976 108.566 112.086 109.412 109.355C110.331 106.245 111.907 103.368 114.033 100.918C116.159 98.4683 118.787 96.502 121.738 95.152C124.69 93.802 127.897 93.0997 131.143 93.0923C134.39 93.085 137.6 93.7729 140.557 95.1096C142.512 95.9929 144.437 97.2616 145.332 99.209C146.227 101.156 145.667 103.878 143.709 104.754C142.43 105.327 140.824 105.046 139.689 105.868C138.059 107.048 138.479 109.561 139.207 111.436C139.935 113.311 140.758 115.58 139.538 117.18C138.4 118.671 136.127 118.625 134.337 118.064C132.546 117.503 130.779 116.563 128.912 116.754C126.19 117.033 124.233 119.738 123.871 122.447C123.509 125.156 124.362 127.865 125.203 130.466L124.281 130.741Z" fill="#2F2E41"/>
<path d="M323.968 147.007C323.968 103.423 359.344 0 402.984 0C446.623 0 482 103.423 482 147.007C482 167.937 473.675 188.009 458.857 202.809C444.038 217.608 423.94 225.923 402.984 225.923C382.028 225.923 361.929 217.608 347.111 202.809C332.293 188.009 323.968 167.937 323.968 147.007Z" fill="#6C63FF"/>
<path d="M402.984 339C402.811 339 402.646 338.932 402.524 338.81C402.402 338.688 402.334 338.523 402.334 338.351V66.2752C402.334 66.1031 402.402 65.938 402.524 65.8163C402.646 65.6946 402.811 65.6263 402.984 65.6263C403.156 65.6263 403.321 65.6946 403.443 65.8163C403.565 65.938 403.633 66.1031 403.633 66.2752V338.351C403.633 338.523 403.565 338.688 403.443 338.81C403.321 338.932 403.156 339 402.984 339Z" fill="#3F3D56"/>
<path d="M402.984 118.801C402.898 118.801 402.814 118.785 402.735 118.752C402.656 118.719 402.585 118.672 402.524 118.611L371.25 87.3766C371.129 87.2547 371.062 87.09 371.063 86.9186C371.063 86.7473 371.131 86.5831 371.253 86.4619C371.374 86.3407 371.539 86.2724 371.71 86.2719C371.882 86.2713 372.047 86.3386 372.169 86.4591L403.443 117.694C403.534 117.784 403.596 117.9 403.621 118.026C403.646 118.152 403.633 118.282 403.584 118.401C403.535 118.519 403.452 118.621 403.345 118.692C403.238 118.763 403.112 118.801 402.984 118.801Z" fill="#3F3D56"/>
<path d="M402.984 172.875C402.855 172.875 402.73 172.837 402.623 172.765C402.516 172.694 402.433 172.593 402.383 172.474C402.334 172.356 402.321 172.225 402.346 172.099C402.372 171.973 402.433 171.858 402.524 171.767L454.899 119.459C455.021 119.338 455.186 119.271 455.357 119.272C455.529 119.272 455.693 119.34 455.815 119.462C455.936 119.583 456.004 119.747 456.005 119.918C456.006 120.09 455.938 120.254 455.818 120.376L403.443 172.685C403.383 172.745 403.311 172.793 403.232 172.826C403.154 172.858 403.069 172.875 402.984 172.875Z" fill="#3F3D56"/>
<path d="M184.314 212.379C194.68 210.038 206.424 218.137 206.789 229.009C206.891 232.067 205.994 235.278 203.638 237.358C201.692 239.076 198.798 239.942 196.283 239.102C191.445 237.487 191.186 230.753 193.782 227.156C197.297 222.287 204.259 221.455 209.784 222.034C216.539 222.742 222.959 225.7 228.346 229.755C239.131 237.871 245.998 250.311 251.556 262.329C257.246 274.658 261.384 287.644 263.875 300.99C264.188 302.667 264.475 304.347 264.736 306.033C264.81 306.28 264.978 306.488 265.204 306.612C265.43 306.736 265.696 306.766 265.944 306.695C266.189 306.618 266.394 306.449 266.518 306.225C266.641 306 266.674 305.736 266.608 305.489C264.333 290.925 260.13 276.728 254.111 263.27C248.291 250.244 240.953 236.734 229.281 228.041C223.463 223.708 216.592 220.693 209.32 220.048C203.198 219.505 195.95 220.798 192.143 226.116C189.139 230.311 189.445 237.282 194.091 240.204C196.646 241.81 199.892 241.622 202.545 240.374C203.953 239.679 205.192 238.688 206.178 237.467C207.164 236.247 207.872 234.827 208.254 233.306C209.904 227.268 207.398 220.737 203.102 216.421C199.071 212.359 193.592 210.058 187.865 210.021C186.486 210.037 185.113 210.2 183.769 210.509C182.545 210.786 183.092 212.654 184.314 212.379Z" fill="#CCCCCC"/>
<path d="M234.307 331.948L227.865 320.963L235.808 316.316L242.25 327.301C242.867 328.353 243.04 329.607 242.732 330.786C242.423 331.966 241.658 332.975 240.605 333.591C239.551 334.207 238.296 334.38 237.115 334.072C235.934 333.764 234.924 333 234.307 331.948Z" fill="#6C63FF"/>
<path d="M213.007 309.115C216.135 309.115 218.672 306.582 218.672 303.457C218.672 300.333 216.135 297.8 213.007 297.8C209.878 297.8 207.342 300.333 207.342 303.457C207.342 306.582 209.878 309.115 213.007 309.115Z" fill="#6C63FF"/>
<path d="M259.231 331.948L252.789 320.963L260.732 316.316L267.174 327.301C267.79 328.352 267.962 329.605 267.653 330.784C267.344 331.963 266.579 332.971 265.527 333.587C264.474 334.202 263.22 334.376 262.039 334.068C260.859 333.761 259.849 332.998 259.231 331.948Z" fill="#6C63FF"/>
<path d="M214.083 314.855C214.087 311.668 215.356 308.612 217.613 306.358C219.87 304.104 222.929 302.836 226.121 302.833H264.228C265.577 302.834 266.871 303.37 267.825 304.323C268.778 305.276 269.315 306.567 269.317 307.914V312.245C269.312 316.125 267.767 319.844 265.02 322.587C262.274 325.331 258.549 326.874 254.665 326.878H226.121C222.929 326.875 219.87 325.607 217.613 323.353C215.356 321.099 214.087 318.043 214.083 314.855Z" fill="#3F3D56"/>
<path d="M222.871 333.364V320.634H232.076V333.364C232.076 334.583 231.591 335.753 230.728 336.615C229.865 337.477 228.694 337.961 227.473 337.961C226.253 337.961 225.082 337.477 224.219 336.615C223.356 335.753 222.871 334.583 222.871 333.364Z" fill="#3F3D56"/>
<path d="M249.583 333.364V320.634H258.789V333.364C258.789 333.968 258.671 334.567 258.44 335.125C258.209 335.683 257.87 336.191 257.442 336.618C257.015 337.046 256.507 337.385 255.948 337.616C255.39 337.847 254.791 337.967 254.186 337.967C253.581 337.967 252.982 337.847 252.423 337.616C251.864 337.385 251.357 337.046 250.929 336.618C250.502 336.191 250.163 335.683 249.932 335.125C249.701 334.567 249.582 333.968 249.583 333.364Z" fill="#3F3D56"/>
<path d="M287.037 282.999C287.979 281.832 289.346 281.086 290.837 280.925C292.329 280.764 293.824 281.201 294.994 282.139C296.164 283.077 296.913 284.441 297.077 285.931C297.242 287.42 296.808 288.914 295.871 290.084L286.559 301.664L277.725 294.578L287.037 282.999Z" fill="#6C63FF"/>
<path d="M264.606 305.809L272.066 296.533C273.88 294.282 276.514 292.842 279.389 292.529C282.265 292.215 285.147 293.054 287.405 294.86L289.736 296.73C292.422 298.89 294.141 302.026 294.515 305.45C294.89 308.874 293.889 312.307 291.732 314.995L285.586 322.638C284.907 323.48 283.921 324.02 282.844 324.137C281.768 324.254 280.688 323.94 279.843 323.264L265.233 311.545C264.389 310.867 263.85 309.882 263.732 308.807C263.615 307.731 263.929 306.653 264.606 305.809Z" fill="#3F3D56"/>
<path d="M288.145 281.62C288.466 281.222 288.861 280.891 289.31 280.645C289.758 280.399 290.251 280.245 290.759 280.189C291.268 280.134 291.782 280.179 292.273 280.322C292.764 280.465 293.222 280.703 293.621 281.023C294.02 281.343 294.351 281.738 294.597 282.186C294.843 282.634 294.998 283.126 295.054 283.634C295.109 284.141 295.064 284.655 294.921 285.146C294.777 285.636 294.539 286.093 294.219 286.492L283.798 299.45L277.725 294.578L288.145 281.62Z" fill="#3F3D56"/>
<path d="M273.217 303.28L289.228 316.123C290.395 317.064 291.141 318.429 291.302 319.918C291.463 321.407 291.026 322.9 290.086 324.068C289.147 325.235 287.782 325.984 286.292 326.148C284.801 326.313 283.305 325.88 282.134 324.945L266.123 312.102L273.217 303.28Z" fill="#3F3D56"/>
<path d="M290.783 324.496C291.61 323.468 291.816 322.263 291.245 321.804C290.673 321.346 289.539 321.807 288.713 322.835C287.886 323.863 287.68 325.068 288.252 325.526C288.823 325.985 289.957 325.523 290.783 324.496Z" fill="#6C63FF"/>
<path d="M449.613 338.88H0.64973C0.477411 338.88 0.312149 338.811 0.190301 338.69C0.0684531 338.568 0 338.403 0 338.231C0 338.059 0.0684531 337.894 0.190301 337.772C0.312149 337.65 0.477411 337.582 0.64973 337.582H449.613C449.786 337.582 449.951 337.65 450.073 337.772C450.195 337.894 450.263 338.059 450.263 338.231C450.263 338.403 450.195 338.568 450.073 338.69C449.951 338.811 449.786 338.88 449.613 338.88Z" fill="#CCCCCC"/>
</g>
<defs>
<clipPath id="clip0_66_561">
<rect width="482" height="339" fill="white"/>
</clipPath>
</defs>
</svg>
