<svg width="459" height="373" viewBox="0 0 459 373" fill="none" xmlns="http://www.w3.org/2000/svg">
<g clip-path="url(#clip0_96_352)">
<path d="M134.539 351.5C136.291 353.16 138.442 354.342 140.784 354.932C143.127 355.522 145.583 355.501 147.914 354.869C153.891 353.177 157.947 347.798 161.547 342.748L172.199 327.812L163.222 329.454C156.766 330.634 150.15 331.874 144.528 335.253C138.905 338.632 134.402 344.664 134.758 351.201" fill="#6C63FF"/>
<path d="M126.195 371.62C127.769 366.266 129.353 360.838 132.132 355.957C134.601 351.623 137.974 347.821 142.424 345.456C144.785 344.205 147.346 343.374 149.992 343C150.683 342.903 150.795 343.975 150.108 344.072C145.526 344.725 141.27 346.813 137.953 350.035C134.277 353.623 131.866 358.248 130.083 363.009C129.004 365.888 128.133 368.836 127.266 371.785C127.24 371.925 127.162 372.049 127.047 372.133C126.933 372.217 126.79 372.253 126.649 372.236C126.508 372.213 126.381 372.136 126.297 372.021C126.212 371.906 126.176 371.762 126.197 371.621L126.195 371.62Z" fill="#3F3D56"/>
<path d="M299.545 155.959C300.568 155.713 301.633 155.694 302.664 155.903C303.696 156.112 304.668 156.543 305.514 157.168C306.36 157.793 307.059 158.595 307.56 159.518C308.062 160.441 308.355 161.462 308.418 162.51L333.046 169.416L322.997 178.098L301.15 170.209C299.378 170.198 297.672 169.539 296.354 168.357C295.037 167.174 294.2 165.551 294.002 163.795C293.804 162.038 294.259 160.271 295.281 158.826C296.302 157.382 297.82 156.362 299.545 155.959Z" fill="#FFB7B7"/>
<path d="M362.833 365.144L355.654 365.143L352.238 337.523L362.834 337.523L362.833 365.144Z" fill="#FFB7B7"/>
<path d="M364.663 372.085L341.516 372.084V371.792C341.516 369.409 342.465 367.123 344.155 365.438C345.844 363.752 348.136 362.805 350.525 362.805L364.663 362.806L364.663 372.085Z" fill="#2F2E41"/>
<path d="M404.898 365.144L397.719 365.143L394.304 337.523L404.899 337.523L404.898 365.144Z" fill="#FFB7B7"/>
<path d="M406.728 372.085L383.581 372.084V371.792C383.581 369.409 384.531 367.123 386.22 365.438C387.91 363.752 390.201 362.805 392.591 362.805L406.729 362.806L406.728 372.085Z" fill="#2F2E41"/>
<path d="M356.967 206.613L346.393 279.678L349.027 356.659L364.907 357.92L369.872 288.883L382.512 250.388L389.944 305.262L390.249 356.659L406.646 357.92L412.365 249.866L408.158 202.873L356.967 206.613Z" fill="#2F2E41"/>
<path d="M387.552 108.789C396.791 108.789 404.281 101.318 404.281 92.1019C404.281 82.8858 396.791 75.4146 387.552 75.4146C378.313 75.4146 370.823 82.8858 370.823 92.1019C370.823 101.318 378.313 108.789 387.552 108.789Z" fill="#FFB7B7"/>
<path d="M377.241 117.866L358.772 210.675C358.772 210.675 389.866 219.577 403.488 211.359C417.109 203.141 411.005 177.771 411.005 177.771L408.511 134.603L403.901 123.687L399.989 114.675L377.241 117.866Z" fill="#CBCBCB"/>
<path d="M371.835 183.744L378.215 116.064L373.113 119.78L355.274 125.559L354.053 173.208L341.574 235.868C341.574 235.868 350.494 253.23 361.548 224.507L371.835 183.744Z" fill="#2F2E41"/>
<path d="M363.859 132.685L355.274 125.559L335.979 167.37L314.447 162.665L313.43 175.35L344.626 187.666L365.885 158.143L363.859 132.685Z" fill="#2F2E41"/>
<path d="M397.258 168.93L399.662 113.848L408.511 120.683L424.313 125.077L421.996 168.93L425.331 236.976L408.763 242.211L404.113 199.273L397.258 168.93Z" fill="#2F2E41"/>
<path d="M398.322 213.271C398.507 212.237 398.917 211.257 399.524 210.399C400.13 209.541 400.917 208.826 401.831 208.304C402.744 207.782 403.761 207.466 404.81 207.379C405.858 207.292 406.914 207.435 407.901 207.798L424.137 188.077L428.069 200.745L412.048 217.531C411.326 219.145 410.035 220.439 408.421 221.167C406.806 221.895 404.98 222.007 403.288 221.482C401.596 220.957 400.156 219.831 399.241 218.318C398.325 216.804 397.998 215.009 398.322 213.271Z" fill="#FFB7B7"/>
<path d="M413.733 131.191L424.313 125.077L450.935 177.518L424.98 213.47L410.176 201.663L428.152 178.279L411.768 153.163L413.733 131.191Z" fill="#2F2E41"/>
<path d="M403.286 78.7612L404.097 77.133L400.017 75.1105C400.017 75.1105 395.515 67.8039 387.369 69.8572C379.223 71.9105 375.558 73.1394 375.558 73.1394L371.487 75.1824L373.53 77.21L369.865 78.4389L372.314 79.6524L369.465 81.2858L370.998 89.6591C370.998 89.6591 373.546 83.3083 378.442 85.7352C383.339 88.1622 392.297 84.4807 392.297 84.4807L400.078 99.5035C400.078 99.5035 401.684 94.2372 404.546 95.6414C404.546 95.6414 411.858 84.0248 403.286 78.7612Z" fill="#2F2E41"/>
<path d="M301.67 103.243H301.563L240.214 129.375L156.276 165.128C155.948 165.266 155.596 165.338 155.24 165.339C154.884 165.341 154.531 165.273 154.202 165.139L67.6021 129.3L4.74554 103.286L4.64954 103.243H4.54253C3.55075 103.245 2.59991 103.638 1.89862 104.338C1.19733 105.037 0.802863 105.986 0.801758 106.975V269.03C0.802864 270.019 1.19733 270.968 1.89862 271.667C2.59991 272.367 3.55075 272.76 4.54253 272.762H301.67C302.662 272.76 303.613 272.367 304.314 271.667C305.016 270.968 305.41 270.019 305.411 269.03V106.975C305.41 105.986 305.016 105.037 304.314 104.338C303.613 103.638 302.662 103.245 301.67 103.243Z" fill="white"/>
<path d="M301.937 104.31C301.828 104.31 301.722 104.276 301.632 104.214L153.838 1.54168C153.389 1.23068 152.854 1.06447 152.307 1.0654C151.76 1.06633 151.226 1.23435 150.777 1.54688L4.0479 104.213C3.93183 104.294 3.78829 104.326 3.6488 104.301C3.50931 104.277 3.38528 104.198 3.30394 104.082C3.22261 103.967 3.19063 103.823 3.21502 103.684C3.23941 103.545 3.31818 103.421 3.43403 103.34L150.163 0.673901C150.792 0.236432 151.539 0.00126103 152.305 5.05719e-06C153.071 -0.00125092 153.82 0.231467 154.449 0.666873L302.243 103.339C302.336 103.404 302.407 103.497 302.443 103.604C302.48 103.712 302.481 103.828 302.447 103.936C302.413 104.045 302.345 104.139 302.254 104.206C302.162 104.273 302.051 104.31 301.937 104.31Z" fill="#3F3D56"/>
<path d="M12.4316 107.949L152.451 4.43472L293.534 115.315L159.665 194.476L86.987 177.951L12.4316 107.949Z" fill="#E6E6E6"/>
<path d="M93.1222 243.371H23.9489C23.5242 243.372 23.1033 243.29 22.7105 243.129C22.3176 242.968 21.9605 242.731 21.6595 242.432C21.3585 242.133 21.1195 241.778 20.9563 241.386C20.793 240.995 20.7086 240.576 20.708 240.152C20.7074 239.728 20.7905 239.309 20.9526 238.917C21.1147 238.526 21.3526 238.17 21.6528 237.87C21.9529 237.57 22.3093 237.332 22.7017 237.17C23.094 237.007 23.5146 236.924 23.9394 236.924H93.1222C93.547 236.923 93.9678 237.005 94.3606 237.166C94.7535 237.327 95.1106 237.564 95.4116 237.863C95.7126 238.162 95.9516 238.517 96.1148 238.908C96.2781 239.299 96.3624 239.719 96.3631 240.143C96.3637 240.566 96.2806 240.986 96.1185 241.378C95.9564 241.769 95.7185 242.125 95.4183 242.425C95.1182 242.725 94.7618 242.963 94.3694 243.125C93.9771 243.287 93.5565 243.371 93.1317 243.371H93.1222Z" fill="#6C63FF"/>
<path d="M48.7667 229.511H23.9489C23.5242 229.512 23.1033 229.43 22.7105 229.269C22.3176 229.108 21.9605 228.871 21.6595 228.572C21.3585 228.273 21.1195 227.918 20.9563 227.527C20.793 227.135 20.7086 226.716 20.708 226.292C20.7074 225.868 20.7905 225.449 20.9526 225.057C21.1147 224.666 21.3526 224.31 21.6528 224.01C21.9529 223.71 22.3093 223.472 22.7017 223.31C23.094 223.147 23.5146 223.064 23.9394 223.064H48.7667C49.6231 223.064 50.4445 223.403 51.0505 224.006C51.6565 224.61 51.9976 225.428 51.9989 226.283C52.0002 227.137 51.6615 227.957 51.0573 228.562C50.4531 229.167 49.6327 229.509 48.7763 229.511H48.7667Z" fill="#6C63FF"/>
<path d="M154.421 165.605C153.895 165.606 153.374 165.504 152.888 165.306L66.5332 129.563V17.6846C66.5344 16.6953 66.9288 15.7468 67.6301 15.0473C68.3314 14.3477 69.2822 13.9542 70.274 13.953H235.939C236.931 13.9542 237.881 14.3477 238.583 15.0473C239.284 15.7468 239.678 16.6953 239.68 17.6846V129.641L239.517 129.711L156.001 165.288C155.501 165.498 154.963 165.606 154.421 165.605Z" fill="#6C63FF"/>
<path d="M300.869 103.243H300.762L239.412 129.375L155.474 165.128C155.146 165.266 154.794 165.338 154.438 165.339C154.082 165.341 153.73 165.273 153.4 165.139L66.8003 129.3L3.94385 103.286L3.84784 103.243H3.74077C2.74899 103.245 1.79816 103.638 1.09686 104.338C0.395573 105.037 0.00110299 105.986 0 106.975V269.03C0.001103 270.019 0.395573 270.968 1.09686 271.667C1.79816 272.367 2.74899 272.761 3.74077 272.762H300.869C301.86 272.761 302.811 272.367 303.513 271.667C304.214 270.968 304.608 270.019 304.609 269.03V106.975C304.608 105.986 304.214 105.037 303.513 104.338C302.811 103.638 301.86 103.245 300.869 103.243ZM303.541 269.03C303.54 269.737 303.259 270.415 302.758 270.914C302.257 271.414 301.577 271.695 300.869 271.695H3.74077C3.0322 271.695 2.35272 271.414 1.85168 270.914C1.35064 270.415 1.06902 269.737 1.06874 269.03V106.975C1.06971 106.286 1.33774 105.623 1.81679 105.127C2.29584 104.63 2.94883 104.337 3.63926 104.31L66.8003 130.452L152.989 166.125C153.922 166.504 154.967 166.498 155.896 166.109L239.412 130.532L300.976 104.31C301.665 104.339 302.316 104.633 302.794 105.129C303.272 105.626 303.539 106.287 303.541 106.975L303.541 269.03Z" fill="#3F3D56"/>
<path d="M140.977 55.7737H82.1926C81.06 55.7717 79.9745 55.3215 79.1744 54.522C78.3742 53.7224 77.9248 52.6388 77.9248 51.5091C77.9248 50.3793 78.3742 49.2957 79.1744 48.4962C79.9745 47.6966 81.06 47.2464 82.1926 47.2445H140.977C142.109 47.2464 143.195 47.6966 143.995 48.4962C144.795 49.2957 145.245 50.3793 145.245 51.5091C145.245 52.6388 144.795 53.7224 143.995 54.522C143.195 55.3215 142.109 55.7717 140.977 55.7737Z" fill="white"/>
<path d="M110.517 37.6491H82.1932C81.0593 37.6491 79.9719 37.1998 79.1701 36.4C78.3684 35.6003 77.918 34.5156 77.918 33.3845C77.918 32.2535 78.3684 31.1687 79.1701 30.369C79.9719 29.5692 81.0593 29.1199 82.1932 29.1199H110.517C111.65 29.1199 112.738 29.5692 113.54 30.369C114.341 31.1687 114.792 32.2535 114.792 33.3845C114.792 34.5156 114.341 35.6003 113.54 36.4C112.738 37.1998 111.65 37.6491 110.517 37.6491Z" fill="white"/>
<path d="M197.072 98.4198H107.293C106.159 98.4198 105.072 97.9705 104.27 97.1707C103.468 96.371 103.018 95.2862 103.018 94.1552C103.018 93.0241 103.468 91.9394 104.27 91.1397C105.072 90.3399 106.159 89.8906 107.293 89.8906H197.072C198.206 89.8906 199.294 90.3399 200.096 91.1397C200.897 91.9394 201.348 93.0241 201.348 94.1552C201.348 95.2862 200.897 96.371 200.096 97.1707C199.294 97.9705 198.206 98.4198 197.072 98.4198Z" fill="white"/>
<path d="M197.072 118.144H107.292C106.73 118.145 106.174 118.035 105.654 117.821C105.135 117.607 104.662 117.293 104.265 116.897C103.867 116.501 103.551 116.031 103.336 115.513C103.121 114.995 103.01 114.44 103.01 113.879C103.01 113.318 103.121 112.763 103.336 112.245C103.551 111.727 103.867 111.257 104.265 110.861C104.662 110.465 105.135 110.151 105.654 109.937C106.174 109.723 106.73 109.613 107.292 109.614H197.072C197.634 109.613 198.191 109.723 198.711 109.937C199.23 110.151 199.702 110.465 200.1 110.861C200.498 111.257 200.813 111.727 201.029 112.245C201.244 112.763 201.355 113.318 201.355 113.879C201.355 114.44 201.244 114.995 201.029 115.513C200.813 116.031 200.498 116.501 200.1 116.897C199.702 117.293 199.23 117.607 198.711 117.821C198.191 118.035 197.634 118.145 197.072 118.144Z" fill="white"/>
<path d="M458.347 372.759H286.83C286.657 372.759 286.491 372.69 286.369 372.568C286.246 372.446 286.178 372.281 286.178 372.108C286.178 371.936 286.246 371.77 286.369 371.648C286.491 371.526 286.657 371.458 286.83 371.458H458.347C458.52 371.458 458.686 371.526 458.809 371.648C458.931 371.77 459 371.936 459 372.108C459 372.281 458.931 372.446 458.809 372.568C458.686 372.69 458.52 372.759 458.347 372.759Z" fill="#CBCBCB"/>
<path d="M159.007 372.759H95.7479C95.5749 372.759 95.409 372.69 95.2867 372.568C95.1644 372.446 95.0957 372.281 95.0957 372.108C95.0957 371.936 95.1644 371.77 95.2867 371.648C95.409 371.526 95.5749 371.458 95.7479 371.458H159.007C159.18 371.458 159.346 371.526 159.468 371.648C159.591 371.77 159.659 371.936 159.659 372.108C159.659 372.281 159.591 372.446 159.468 372.568C159.346 372.69 159.18 372.759 159.007 372.759Z" fill="#CBCBCB"/>
<path d="M119.008 352.646C121.423 352.59 123.784 351.915 125.862 350.686C127.94 349.456 129.666 347.714 130.873 345.626C133.914 340.222 132.988 333.555 131.97 327.442L128.964 309.359L123.76 316.838C120.017 322.216 116.202 327.749 114.605 334.099C113.007 340.45 114.078 347.894 118.952 352.279" fill="#6C63FF"/>
<path d="M127.316 372.781C124.646 367.877 121.932 362.914 120.453 357.499C119.14 352.689 118.843 347.62 120.327 342.814C121.116 340.266 122.344 337.875 123.957 335.749C124.378 335.194 125.215 335.875 124.797 336.427C122.009 340.114 120.467 344.588 120.393 349.205C120.323 354.335 121.884 359.31 123.985 363.94C125.254 366.74 126.722 369.444 128.192 372.144C128.272 372.261 128.304 372.404 128.282 372.544C128.26 372.684 128.185 372.811 128.073 372.898C127.957 372.981 127.812 373.016 127.671 372.993C127.53 372.971 127.403 372.894 127.318 372.779L127.316 372.781Z" fill="#3F3D56"/>
</g>
<defs>
<clipPath id="clip0_96_352">
<rect width="459" height="373" fill="white"/>
</clipPath>
</defs>
</svg>
