<svg width="20" height="20" viewBox="0 0 20 20" fill="none" xmlns="http://www.w3.org/2000/svg">
<path d="M9.68595 11.7916C8.35012 10.6932 7.45818 9.33783 6.98925 8.56661L6.63947 7.90719C6.76177 7.77596 7.69443 6.77726 8.09861 6.23539C8.60652 5.55496 7.87012 4.94042 7.87012 4.94042C7.87012 4.94042 5.79803 2.86805 5.3258 2.45697C4.85357 2.04532 4.30997 2.27395 4.30997 2.27395C3.31746 2.91524 2.28854 3.4728 2.22681 6.15424C2.22451 8.66474 4.13026 11.2541 6.19113 13.2587C8.2553 15.5226 11.0894 17.7916 13.8294 17.7891C16.5106 17.7279 17.068 16.6991 17.7093 15.7066C17.7093 15.7066 17.938 15.1634 17.5268 14.6908C17.1153 14.2183 15.0426 12.1457 15.0426 12.1457C15.0426 12.1457 14.4285 11.4092 13.748 11.9175C13.2408 12.2967 12.33 13.14 12.1105 13.3445C12.111 13.3452 10.5874 12.5329 9.68595 11.7916Z" fill="black"/>
</svg>
