<svg width="30" height="30" viewBox="0 0 30 30" fill="none" xmlns="http://www.w3.org/2000/svg">
<path d="M27.2129 8.64489C27.1407 8.51055 27.0185 8.41004 26.8727 8.36512C26.727 8.32021 26.5694 8.33451 26.4341 8.40493C26.2989 8.47534 26.1967 8.59621 26.1499 8.74135C26.1031 8.8865 26.1153 9.04424 26.184 9.18044C27.4288 11.5565 27.8798 14.2688 27.471 16.9199C27.0622 19.5709 25.8151 22.0214 23.9123 23.9121C18.9989 28.8251 11.0033 28.8266 6.08771 23.9116C6.00659 23.8305 5.90323 23.7753 5.79072 23.7529C5.6782 23.7306 5.56159 23.7421 5.45562 23.786C5.34966 23.83 5.25911 23.9044 5.19543 23.9998C5.13175 24.0952 5.0978 24.2073 5.09789 24.3221V27.656C5.09789 27.8098 5.15898 27.9573 5.26773 28.0661C5.37647 28.1748 5.52397 28.2359 5.67776 28.2359C5.83155 28.2359 5.97904 28.1748 6.08779 28.0661C6.19654 27.9573 6.25763 27.8098 6.25763 27.656V25.6316C8.70848 27.6461 11.7799 28.7522 14.9523 28.763C18.1248 28.7738 21.2036 27.6885 23.6681 25.6908C26.1325 23.693 27.8314 20.9054 28.4773 17.7994C29.1232 14.6933 28.6766 11.4595 27.2129 8.64489ZM6.08771 6.08798C11.0027 1.17349 18.9983 1.17402 23.9123 6.08745C23.9934 6.16868 24.0967 6.22403 24.2092 6.24649C24.3217 6.26894 24.4383 6.25749 24.5443 6.21359C24.6503 6.16969 24.7409 6.09531 24.8046 5.99988C24.8683 5.90445 24.9022 5.79226 24.9021 5.67753V2.34355C24.9021 2.18975 24.841 2.04226 24.7323 1.93351C24.6235 1.82477 24.476 1.76367 24.3222 1.76367C24.1684 1.76367 24.0209 1.82477 23.9122 1.93351C23.8035 2.04226 23.7424 2.18975 23.7424 2.34355V4.36796C18.3412 -0.0794805 10.3157 0.219758 5.26781 5.26761C3.1898 7.33217 1.82776 10.0081 1.38134 12.9031C0.934916 15.7981 1.42758 18.7601 2.78712 21.3547C2.85931 21.489 2.9815 21.5896 3.12725 21.6345C3.273 21.6794 3.43057 21.6651 3.56586 21.5947C3.70114 21.5243 3.80324 21.4034 3.85007 21.2582C3.89689 21.1131 3.88466 20.9553 3.81603 20.8192C2.5712 18.4432 2.12014 15.7309 2.52895 13.0799C2.93775 10.4289 4.18494 7.97858 6.08771 6.08798Z" fill="white"/>
<path d="M7.40625 14.9153V21.3278C7.40749 21.747 7.57456 22.1487 7.87098 22.4451C8.1674 22.7416 8.56908 22.9086 8.98828 22.9099H21.0117C21.4309 22.9087 21.8326 22.7416 22.1291 22.4452C22.4255 22.1488 22.5926 21.747 22.5938 21.3278V14.9153C22.5925 14.4961 22.4255 14.0944 22.1291 13.798C21.8326 13.5016 21.4309 13.3345 21.0117 13.3333H8.98828C8.56908 13.3345 8.1674 13.5016 7.87098 13.798C7.57456 14.0945 7.40749 14.4961 7.40625 14.9153ZM19.2188 16.8826C19.4638 16.8826 19.7034 16.9553 19.9071 17.0914C20.1109 17.2276 20.2697 17.4211 20.3635 17.6475C20.4572 17.8739 20.4818 18.123 20.434 18.3634C20.3862 18.6037 20.2682 18.8245 20.0949 18.9978C19.9216 19.171 19.7008 19.2891 19.4605 19.3369C19.2201 19.3847 18.971 19.3601 18.7446 19.2664C18.5182 19.1726 18.3247 19.0138 18.1885 18.81C18.0524 18.6063 17.9797 18.3667 17.9797 18.1216C17.9801 17.7931 18.1107 17.4782 18.343 17.2459C18.5753 17.0136 18.8902 16.8829 19.2188 16.8826ZM15 16.8826C15.2451 16.8826 15.4846 16.9553 15.6884 17.0914C15.8921 17.2276 16.0509 17.4211 16.1447 17.6475C16.2385 17.8739 16.263 18.123 16.2152 18.3634C16.1674 18.6037 16.0494 18.8245 15.8761 18.9978C15.7028 19.171 15.4821 19.2891 15.2417 19.3369C15.0014 19.3847 14.7522 19.3601 14.5258 19.2664C14.2994 19.1726 14.1059 19.0138 13.9698 18.81C13.8336 18.6063 13.761 18.3667 13.761 18.1216C13.7613 17.7931 13.8919 17.4782 14.1242 17.2459C14.3565 17.0136 14.6715 16.8829 15 16.8826ZM10.7812 16.8826C11.0263 16.8826 11.2659 16.9553 11.4696 17.0914C11.6734 17.2276 11.8322 17.4211 11.926 17.6475C12.0197 17.8739 12.0443 18.123 11.9965 18.3634C11.9487 18.6037 11.8307 18.8245 11.6574 18.9978C11.4841 19.171 11.2633 19.2891 11.023 19.3369C10.7826 19.3847 10.5335 19.3601 10.3071 19.2664C10.0807 19.1726 9.88718 19.0138 9.75104 18.81C9.61489 18.6063 9.54223 18.3667 9.54223 18.1216C9.54255 17.7931 9.6732 17.4782 9.90549 17.2459C10.1378 17.0136 10.4527 16.8829 10.7812 16.8826ZM20.1359 12.1732V10.0637C20.1359 8.70158 19.5948 7.39524 18.6316 6.43207C17.6685 5.4689 16.3621 4.9278 15 4.9278C13.6379 4.9278 12.3315 5.4689 11.3684 6.43207C10.4052 7.39524 9.86408 8.70158 9.86408 10.0637V12.1732H11.0238V10.0637C11.0238 9.00917 11.4427 7.99781 12.1884 7.25214C12.9341 6.50646 13.9455 6.08754 15 6.08754C16.0545 6.08754 17.0659 6.50646 17.8116 7.25214C18.5573 7.99781 18.9762 9.00917 18.9762 10.0637V12.1732H20.1359Z" fill="white"/>
</svg>
