<svg width="20" height="20" viewBox="0 0 20 20" fill="none" xmlns="http://www.w3.org/2000/svg">
<g clip-path="url(#clip0_66_617)">
<path fill-rule="evenodd" clip-rule="evenodd" d="M10.0002 19.1666C4.93755 19.1666 0.833496 15.0626 0.833496 9.99998C0.833496 4.93737 4.93755 0.833313 10.0002 0.833313C15.0628 0.833313 19.1668 4.93737 19.1668 9.99998C19.1668 15.0626 15.0628 19.1666 10.0002 19.1666ZM10.0002 17.5C14.1423 17.5 17.5002 14.1421 17.5002 9.99998C17.5002 5.85784 14.1423 2.49998 10.0002 2.49998C5.85803 2.49998 2.50016 5.85784 2.50016 9.99998C2.50016 14.1421 5.85803 17.5 10.0002 17.5ZM10.0004 14.1653C9.54005 14.1653 9.16683 13.7922 9.16683 13.3319C9.16683 12.8717 9.54005 12.4986 10.0004 12.4986C10.4608 12.4986 10.834 12.8717 10.834 13.3319C10.834 13.7922 10.4608 14.1653 10.0004 14.1653ZM10.8335 11.6666H9.16683C9.16683 10.2486 9.68731 9.64138 10.8775 9.04629C11.5623 8.70388 11.6668 8.58194 11.6668 7.91665C11.6668 7.13032 11.0645 6.66665 10.0002 6.66665C9.07969 6.66665 8.3335 7.41284 8.3335 8.33331H6.66683C6.66683 6.49236 8.15921 4.99998 10.0002 4.99998C11.9038 4.99998 13.3335 6.1005 13.3335 7.91665C13.3335 9.33469 12.813 9.94192 11.6228 10.537C10.938 10.8794 10.8335 11.0014 10.8335 11.6666Z" fill="black"/>
</g>
<defs>
<clipPath id="clip0_66_617">
<rect width="20" height="20" fill="white"/>
</clipPath>
</defs>
</svg>
