<svg width="480" height="328" viewBox="0 0 480 328" fill="none" xmlns="http://www.w3.org/2000/svg">
<g clip-path="url(#clip0_66_436)">
<path d="M79.3182 231.573C77.0053 231.822 74.4821 232.196 71.7983 232.744C60.4184 235.065 60.1822 242.805 60.282 244.58L60.2046 244.531C59.0604 246.37 58.3437 248.231 57.9106 249.987L57.3895 226.264C57.7264 225.56 58.033 224.762 58.2887 223.944C59.1405 226.572 60.5369 229.054 61.7406 228.89C63.3057 228.676 63.9881 224.063 63.6962 220.784C65.6865 223.352 69.0362 226.098 70.2999 225.251C71.3097 224.575 70.7109 221.789 69.6085 219.257C71.9055 220.643 74.4496 221.554 75.239 220.674C76.3163 219.473 73.7349 215.374 71.3543 213.086C74.5409 213.384 78.5936 212.875 78.8593 211.422C79.0783 210.225 76.6663 208.715 74.0846 207.743C76.6777 207.058 79.1026 205.865 79.0221 204.684C78.9266 203.282 75.3265 202.342 72.2207 202.199C74.5633 200.363 76.7157 197.825 76.0575 196.678C75.4524 195.622 72.6372 196.031 70.0399 196.961C71.577 194.759 72.6576 192.279 71.8346 191.43C70.8095 190.373 67.171 192.198 64.688 194.215C65.1713 191.072 64.927 187.105 63.5197 186.746C62.3424 186.446 60.6739 188.754 59.5299 191.267C59.0243 188.629 58.0008 186.125 56.8195 186.125C55.1368 186.125 53.7726 191.207 53.7726 194.518C53.7726 194.705 53.7775 194.881 53.7861 195.05C53.6172 194.854 53.4236 194.649 53.2029 194.434C50.8316 192.127 46.2414 189.567 45.0691 190.776C44.2461 191.625 45.3267 194.105 46.8638 196.307C44.2665 195.377 41.4513 194.968 40.8462 196.024C40.0331 197.441 43.5087 200.981 46.3339 202.697C46.1641 202.677 45.9857 202.659 45.7958 202.646C42.4979 202.421 37.3432 203.438 37.2286 205.12C37.1482 206.301 39.5731 207.494 42.1662 208.179C39.5845 209.151 37.1725 210.661 37.3914 211.858C37.6571 213.311 41.7099 213.82 44.8964 213.522C42.5158 215.81 39.9345 219.909 41.0118 221.11C41.8012 221.99 44.3452 221.079 46.6423 219.693C45.5398 222.225 44.9411 225.011 45.9509 225.687C47.2853 226.581 50.9451 223.469 52.8746 220.792C52.678 224.068 53.4606 228.568 55.0133 228.746C55.6626 228.82 56.3507 228.126 56.9716 227.058L55.2129 252.558C54.8018 255.527 57.4315 257.465 57.6665 258.688L58.0458 275.956C57.6177 274.726 57.0411 273.468 56.2638 272.219L56.1864 272.267C56.2862 270.492 56.0498 262.752 44.6701 260.431C41.9863 259.884 39.4631 259.509 37.1502 259.26C34.4201 258.966 33.3552 262.71 35.8215 263.919C39.3933 265.67 42.7532 267.876 44.5044 270.489C48.9818 277.169 55.1681 273.307 56.0477 272.708C57.0301 274.346 57.6743 275.997 58.0812 277.567L58.2827 286.737C58.2333 286.954 58.1991 287.076 58.1965 287.085L58.2909 287.112L58.7784 309.305L63.3008 309.269L61.6832 286.584C61.955 285.361 62.7913 281.192 61.6832 276.863L60.0656 259.039C60.0616 259.025 60.1574 259.507 60.0656 259.039L57.9556 252.036C58.2624 249.869 58.9745 247.432 60.4207 245.021C61.3002 245.62 67.4866 249.481 71.9639 242.802C73.7152 240.189 77.0751 237.983 80.6469 236.231C83.1132 235.022 82.0483 231.279 79.3182 231.573ZM58.6596 284.08L58.5743 280.199C58.7462 281.667 58.7375 282.991 58.6596 284.08Z" fill="#6C63FF" fill-opacity="0.52"/>
<path d="M425.416 231.573C423.103 231.822 420.58 232.196 417.896 232.744C406.516 235.065 406.28 242.805 406.38 244.58L406.302 244.531C405.158 246.37 404.441 248.231 404.008 249.987L403.487 226.264C403.824 225.56 404.131 224.762 404.386 223.944C405.238 226.572 406.635 229.054 407.838 228.89C409.403 228.676 410.086 224.063 409.794 220.784C411.784 223.352 415.134 226.098 416.398 225.251C417.407 224.575 416.809 221.789 415.706 219.257C418.003 220.643 420.547 221.554 421.337 220.674C422.414 219.473 419.833 215.374 417.452 213.086C420.639 213.384 424.691 212.875 424.957 211.422C425.176 210.225 422.764 208.715 420.182 207.743C422.775 207.058 425.2 205.865 425.12 204.684C425.024 203.282 421.424 202.342 418.318 202.199C420.661 200.363 422.813 197.825 422.155 196.678C421.55 195.622 418.735 196.031 416.138 196.961C417.675 194.759 418.755 192.279 417.932 191.43C416.907 190.373 413.269 192.198 410.786 194.215C411.269 191.072 411.025 187.105 409.617 186.746C408.44 186.446 406.772 188.754 405.628 191.267C405.122 188.629 404.098 186.125 402.917 186.125C401.234 186.125 399.87 191.207 399.87 194.518C399.87 194.705 399.875 194.881 399.884 195.05C399.715 194.854 399.521 194.649 399.301 194.434C396.929 192.127 392.339 189.567 391.167 190.776C390.344 191.625 391.424 194.105 392.961 196.307C390.364 195.377 387.549 194.968 386.944 196.024C386.131 197.441 389.606 200.981 392.432 202.697C392.262 202.677 392.083 202.659 391.893 202.646C388.596 202.421 383.441 203.438 383.326 205.12C383.246 206.301 385.671 207.494 388.264 208.179C385.682 209.151 383.27 210.661 383.489 211.858C383.755 213.311 387.808 213.82 390.994 213.522C388.613 215.81 386.032 219.909 387.109 221.11C387.899 221.99 390.443 221.079 392.74 219.693C391.638 222.225 391.039 225.011 392.049 225.687C393.383 226.581 397.043 223.469 398.972 220.792C398.776 224.068 399.558 228.568 401.111 228.746C401.76 228.82 402.448 228.126 403.069 227.058L401.311 252.558C400.9 255.527 403.529 257.465 403.764 258.688L404.143 275.956C403.715 274.726 403.139 273.468 402.361 272.219L402.284 272.267C402.384 270.492 402.147 262.752 390.768 260.431C388.084 259.884 385.561 259.509 383.248 259.26C380.518 258.966 379.453 262.71 381.919 263.919C385.491 265.67 388.851 267.876 390.602 270.489C395.079 277.169 401.266 273.307 402.145 272.708C403.128 274.346 403.772 275.997 404.179 277.567L404.38 286.737C404.331 286.954 404.297 287.076 404.294 287.085L404.389 287.112L404.876 309.305L409.398 309.269L407.781 286.584C408.053 285.361 408.889 281.192 407.781 276.863L406.163 259.039C406.159 259.025 406.255 259.507 406.163 259.039L404.053 252.036C404.36 249.869 405.072 247.432 406.518 245.021C407.398 245.62 413.584 249.481 418.062 242.802C419.813 240.189 423.173 237.983 426.745 236.231C429.211 235.022 428.146 231.279 425.416 231.573ZM404.757 284.08L404.672 280.199C404.844 281.667 404.835 282.991 404.757 284.08Z" fill="#A9A8FF"/>
<path d="M355.202 158.946L353.081 108.304C353.081 108.304 350.699 78.2386 348.794 67.7397C346.888 57.2408 334.025 60.1041 334.025 60.1041L335.454 90.1692L341.621 120.937L346.421 162.834C346.173 164.046 346.033 165.363 346.033 166.746C346.033 172.616 348.48 177.374 351.499 177.374C354.518 177.374 356.965 172.616 356.965 166.746C356.965 163.659 356.283 160.887 355.202 158.946Z" fill="#FFB6B6"/>
<path d="M251.976 145.824C254.23 143.133 256.931 141.305 259.356 140.601L287.879 108.304C287.879 108.304 290.261 78.2387 292.166 67.7397C294.072 57.2408 306.935 60.1041 306.935 60.1041L305.506 90.1693L297.407 122.62L264.031 151.004C263.449 152.068 262.734 153.131 261.878 154.152C257.818 158.997 252.309 161.06 249.575 158.76C246.84 156.46 247.915 150.668 251.976 145.824Z" fill="#FFB6B6"/>
<path d="M314.73 56.0478L318.039 43.3065L330.929 42.6855L334.785 60.2488L314.73 56.0478Z" fill="#FFB6B6"/>
<path opacity="0.1" d="M314.73 56.0478L318.039 43.3065L330.929 42.6855L334.785 60.2488L314.73 56.0478Z" fill="black"/>
<path d="M281.816 264.783L269.744 264.093L271.328 301.205L279.508 301.674L281.816 264.783Z" fill="#FFB6B6"/>
<path d="M270.281 289.471L274.473 291.387L274.468 293.932C274.468 293.932 275.479 290.986 280.908 290.343L281.556 292.811C281.556 292.811 283.661 295.232 283.3 299.61L281.918 311.336L277.824 311.241L277.163 303.082C277.163 303.082 276.035 301.231 270.841 310.028C270.841 310.028 265.118 311.473 256.257 308.497C255.039 308.088 254.193 306.949 254.209 305.662C254.218 304.952 254.495 304.296 255.383 304.06C257.646 303.461 259.856 304.221 261.317 302.412C262.778 300.603 270.281 289.471 270.281 289.471Z" fill="#2F2E41"/>
<path d="M346.608 264.783L334.536 264.093L336.12 301.205L344.3 301.674L346.608 264.783Z" fill="#FFB6B6"/>
<path d="M335.073 289.471L339.265 291.387L339.26 293.932C339.26 293.932 340.271 290.986 345.7 290.343L346.348 292.811C346.348 292.811 348.453 295.232 348.092 299.61L346.71 311.336L342.616 311.241L341.955 303.082C341.955 303.082 340.827 301.231 335.633 310.028C335.633 310.028 329.91 311.473 321.049 308.497C319.831 308.088 318.985 306.949 319.001 305.662C319.01 304.952 319.287 304.296 320.175 304.06C322.438 303.461 324.647 304.221 326.109 302.412C327.57 300.603 335.073 289.471 335.073 289.471Z" fill="#2F2E41"/>
<path d="M324.64 50.8099C332.534 50.8099 338.933 44.4001 338.933 36.4931C338.933 28.5862 332.534 22.1764 324.64 22.1764C316.747 22.1764 310.348 28.5862 310.348 36.4931C310.348 44.4001 316.747 50.8099 324.64 50.8099Z" fill="#FFB6B6"/>
<path d="M332.746 38.8731C332.746 38.8731 326.462 28.5737 320.171 29.7105C313.881 30.8473 310.602 31.8736 310.602 31.8736C310.602 31.8736 308.041 23.6619 316.64 19.7222C316.64 19.7222 304.47 9.51517 317.441 2.96465C330.412 -3.58586 338.483 2.76264 338.483 2.76264C338.483 2.76264 349.219 11.8827 337.316 20.3229C337.316 20.3229 347.618 32.0779 337.213 43.3065C337.213 43.3065 339.05 34.7565 336.551 36.5093C334.052 38.2621 332.746 38.8731 332.746 38.8731Z" fill="#2F2E41"/>
<path d="M334.263 57.0022L314.73 54.6161L299.723 66.7853C299.723 66.7853 292.26 87.6162 297.818 100.191C297.951 100.492 298.056 121.427 298.056 121.427H339.556C339.556 121.427 339.516 107.178 341.102 102.017C341.328 101.28 341.588 100.728 341.886 100.43C344.268 98.0434 349.985 82.7723 347.126 76.0911C344.268 69.41 334.263 57.0022 334.263 57.0022Z" fill="#6C63FF"/>
<path d="M297.818 120.473L271.615 203.987L265.898 269.844H281.858L295.436 208.759L314.134 173.4L332.596 274.616H348.706L348.318 137.653L339.523 120.473H297.818Z" fill="#2F2E41"/>
<path d="M480 309.42H0V310.886H480V309.42Z" fill="#3F3D56"/>
<path d="M246.046 137.375C241.289 129.701 230.189 127.895 221.944 131.556C213.699 135.217 208 143.023 204.126 151.18C200.252 159.338 197.815 168.127 193.833 176.233C182.118 200.082 158.392 215.658 143.468 237.636C132.255 254.149 126.317 274.198 126.726 294.165C126.883 301.813 128.117 309.859 132.882 315.837C139.954 324.71 152.476 326.531 163.75 327.699C170.299 328.378 178.338 328.358 181.711 322.694C183.045 320.453 168.708 312.637 168.938 310.038C170.179 296.015 186.019 287.11 187.26 273.086C189.206 282.857 186.712 292.945 187.106 302.901C187.499 312.857 192.398 324.118 202.131 326.177C205.134 326.812 208.525 326.373 210.801 324.31C213.077 322.247 213.742 318.351 211.714 316.042C213.791 318.167 217.294 318.719 219.922 317.335C222.549 315.952 224.082 312.748 223.512 309.83C223.094 307.685 221.711 305.88 220.514 304.052C214.03 294.15 212.341 281.246 216.057 270.004C222.626 250.131 244.198 237.159 247.853 216.548C250.566 201.241 242.824 183.896 251.04 170.706C254.743 164.763 261.03 161.016 266.044 156.131C271.059 151.247 274.98 143.775 272.111 137.385L246.479 137.357" fill="#3F3D56"/>
<path d="M167.004 312.813C166.366 312.813 165.712 312.643 165.08 312.303C163.625 311.522 162.528 309.977 162.285 308.366C161.88 305.688 163.154 303.086 164.177 300.996C166.977 295.28 169.744 289.168 170.152 282.817C170.597 275.883 167.789 269.456 162.999 266.443C159.439 264.204 154.685 263.628 149.614 264.822C145.123 265.88 141.088 268.043 136.655 270.552C136.303 270.751 135.857 270.627 135.658 270.274C135.459 269.922 135.584 269.475 135.935 269.276C140.301 266.805 144.606 264.496 149.279 263.395C154.734 262.111 159.882 262.752 163.777 265.201C169.016 268.497 172.092 275.448 171.612 282.911C171.187 289.53 168.355 295.794 165.491 301.642C164.509 303.648 163.395 305.922 163.732 308.147C163.906 309.298 164.726 310.45 165.772 311.012C166.282 311.286 167.059 311.532 167.866 311.156C168.233 310.984 168.668 311.144 168.839 311.511C169.009 311.878 168.851 312.314 168.484 312.485C168.014 312.704 167.514 312.813 167.004 312.813Z" fill="#2F2E41"/>
<path d="M223.078 136.872C222.12 139.501 223.398 142.447 225.169 144.61C226.941 146.774 229.216 148.514 230.778 150.835C234.05 155.699 233.559 162.349 231.045 167.646C228.53 172.944 224.292 177.188 220.135 181.319C220.442 179.547 219.548 177.759 218.329 176.439C217.111 175.119 215.577 174.139 214.214 172.969C207.868 167.52 205.883 157.59 209.645 150.114" fill="#2F2E41"/>
<path d="M136.407 293.26C131.031 292.6 126.491 297.445 121.127 298.188C114.924 299.047 109.219 294.13 106.459 288.5C103.699 282.869 102.991 276.478 101.092 270.5C99.1937 264.523 95.5305 258.469 89.5626 256.569C87.0588 255.772 84.2258 255.815 81.8998 257.039C79.5738 258.262 77.869 260.76 77.9272 263.391C77.9988 266.628 80.4773 269.22 81.9788 272.088C84.368 276.651 84.2938 282.055 85.3491 287.098C87.8864 299.223 97.7325 309.505 109.721 312.549C115.92 314.123 122.86 313.762 128.231 310.283C133.601 306.804 136.874 299.797 134.886 293.708" fill="#3F3D56"/>
</g>
<defs>
<clipPath id="clip0_66_436">
<rect width="480" height="328" fill="white"/>
</clipPath>
</defs>
</svg>
