<svg width="32" height="32" viewBox="0 0 32 32" fill="none" xmlns="http://www.w3.org/2000/svg">
<g clip-path="url(#clip0_73_680)">
<path d="M8.90692 16.7305L15.3987 22.2639L20.2049 26.3583C20.3357 26.4724 20.4941 26.5508 20.6645 26.5859C20.835 26.6209 21.0118 26.6115 21.1775 26.5584C21.3432 26.5053 21.4921 26.4105 21.6098 26.2831C21.7274 26.1558 21.8097 26.0003 21.8485 25.8319L26.5749 5.60971C26.6163 5.43259 26.6081 5.24762 26.5512 5.0748C26.4942 4.90197 26.3908 4.74788 26.2519 4.62918C26.1131 4.51048 25.9442 4.43169 25.7635 4.40133C25.5828 4.37097 25.3972 4.3902 25.2267 4.45693L2.03712 13.4972C1.83521 13.5761 1.66448 13.7177 1.55042 13.9009C1.43637 14.0841 1.38512 14.2989 1.40434 14.5133C1.42356 14.7278 1.51222 14.9303 1.65706 15.0906C1.8019 15.2509 1.99515 15.3604 2.20792 15.4028L8.90692 16.7319V16.7305ZM8.90692 16.7305L26.0093 4.47777" stroke="white" stroke-width="2" stroke-linecap="round" stroke-linejoin="round"/>
<path d="M14.5487 21.6569L10.6217 25.5528C10.4811 25.6919 10.302 25.7866 10.1072 25.8249C9.9123 25.8631 9.71038 25.8433 9.52688 25.7678C9.34339 25.6923 9.18656 25.5646 9.07619 25.4007C8.96581 25.2369 8.90685 25.0443 8.90674 24.8472V16.7305" stroke="white" stroke-width="2" stroke-linecap="round" stroke-linejoin="round"/>
</g>
<defs>
<clipPath id="clip0_73_680">
<rect width="28" height="25" fill="white" transform="translate(0 3)"/>
</clipPath>
</defs>
</svg>
