<svg width="20" height="20" viewBox="0 0 20 20" fill="none" xmlns="http://www.w3.org/2000/svg">
<path d="M10.0002 11.6667C12.3013 11.6667 14.1668 9.42808 14.1668 6.66666C14.1668 3.90523 12.3013 1.66666 10.0002 1.66666C7.69898 1.66666 5.8335 3.90523 5.8335 6.66666C5.8335 9.42808 7.69898 11.6667 10.0002 11.6667Z" fill="black"/>
<path d="M18.1668 15.9167C17.4168 14.4167 16.0001 13.1667 14.1668 12.4167C13.6668 12.25 13.0834 12.25 12.6668 12.5C11.8334 13 11.0001 13.25 10.0001 13.25C9.0001 13.25 8.16677 13 7.33343 12.5C6.91677 12.3333 6.33343 12.25 5.83343 12.5C4.0001 13.25 2.58343 14.5 1.83343 16C1.2501 17.0833 2.16677 18.3333 3.41677 18.3333H16.5834C17.8334 18.3333 18.7501 17.0833 18.1668 15.9167Z" fill="black"/>
</svg>
