<svg width="478" height="339" viewBox="0 0 478 339" fill="none" xmlns="http://www.w3.org/2000/svg">
<g clip-path="url(#clip0_74_903)">
<path opacity="0.1" d="M158.916 338.809C182.194 338.809 201.065 335.775 201.065 332.032C201.065 328.288 182.194 325.254 158.916 325.254C135.637 325.254 116.767 328.288 116.767 332.032C116.767 335.775 135.637 338.809 158.916 338.809Z" fill="#6C63FF"/>
<path opacity="0.1" d="M388.031 339C417.079 339 440.626 335.965 440.626 332.222C440.626 328.479 417.079 325.444 388.031 325.444C358.983 325.444 335.436 328.479 335.436 332.222C335.436 335.965 358.983 339 388.031 339Z" fill="#6C63FF"/>
<path opacity="0.1" d="M5.98665 146.472H49.8875V206.382H9.20059C9.09245 206.997 8.98864 207.617 8.87617 208.236H49.8875V256.552C49.814 256.53 49.7491 256.504 49.6799 256.478C48.5206 256.019 47.37 255.534 46.2194 255.014L45.484 254.681C44.3305 254.135 43.177 253.558 42.0235 252.949C41.6212 252.736 41.2189 252.515 40.821 252.29C34.4172 248.699 28.5998 244.148 23.5704 238.795C23.4233 238.652 23.2849 238.501 23.1378 238.362C22.437 237.6 21.7493 236.829 21.0831 236.041L20.3478 235.174C19.5605 234.209 18.7992 233.217 18.0595 232.212C17.9514 232.065 17.8475 231.918 17.7351 231.779C14.7268 227.603 12.229 223.081 10.295 218.31C10.2344 218.167 10.1825 218.011 10.1263 217.877C9.53223 216.346 9.00594 214.802 8.54742 213.243C8.34844 212.589 8.15812 211.943 7.99374 211.263C7.93318 211.064 7.88127 210.869 7.83369 210.674C5.37673 201.073 5.08691 191.098 5.08691 181.194C5.08691 180.037 5.08691 178.877 5.08691 177.729C5.08691 173.723 5.1345 169.691 5.20371 165.663C5.20371 164.619 5.24696 163.58 5.26859 162.532C5.32915 159.872 5.41566 157.213 5.52813 154.554C5.55408 153.813 5.58869 153.077 5.62762 152.341C5.62762 151.916 5.64925 151.492 5.6925 151.068C5.79632 149.526 5.88283 147.997 5.98665 146.472Z" fill="#6C63FF"/>
<path opacity="0.1" d="M49.8875 79.7673H25.8066C29.7211 73.6328 33.9981 67.738 38.6148 62.1144C42.1921 57.7141 45.9684 53.4265 49.8875 49.2948V79.7673Z" fill="#6C63FF"/>
<path opacity="0.1" d="M49.8875 81.6209V144.619H6.125C6.125 144.437 6.15528 144.251 6.16826 144.069C6.20719 143.571 6.24612 143.073 6.28937 142.579C6.33695 141.999 6.38886 141.414 6.4451 140.847C6.50133 140.279 6.56189 139.586 6.62677 138.958C6.69166 138.33 6.75222 137.694 6.82575 137.066C6.89929 136.438 6.96417 135.81 7.04203 135.186C7.1199 134.562 7.18911 133.93 7.27129 133.306C7.33618 132.787 7.40539 132.271 7.4746 131.752C7.57409 131.02 7.6779 130.283 7.79037 129.556C7.79037 129.447 7.82065 129.335 7.83795 129.231C8.62746 123.905 9.70322 118.625 11.0605 113.414C12.4813 107.949 14.2956 102.593 16.4892 97.3899C18.8206 91.9466 21.5503 86.6832 24.656 81.6426L49.8875 81.6209Z" fill="#6C63FF"/>
<path opacity="0.1" d="M60.3682 146.468V206.382H154.135V146.468H60.3682ZM60.3682 208.232V259.683C60.9045 259.796 61.4366 259.904 61.9643 259.995C62.6824 260.134 63.3961 260.259 64.1271 260.367C64.2656 260.389 64.4083 260.411 64.5597 260.424C64.8452 260.471 65.1393 260.51 65.4248 260.549C66.1472 260.649 66.8653 260.731 67.5877 260.796C67.9294 260.831 68.2754 260.861 68.6215 260.887L69.4563 260.952C69.9105 260.987 70.3604 261.013 70.8059 261.026C71.0828 261.026 71.3596 261.052 71.6451 261.06C71.8614 261.06 72.0777 261.06 72.3026 261.06C72.5275 261.06 72.8476 261.06 73.1201 261.06C73.4921 261.06 73.8641 261.06 74.2318 261.06H74.7293C75.1013 261.06 75.4733 261.06 75.841 261.026H75.8669C76.1221 261.026 76.3817 261.026 76.6412 260.991C76.7132 260.995 76.7855 260.995 76.8575 260.991C77.0738 260.991 77.29 260.991 77.4977 260.961H77.6491L79.0982 260.848C79.574 260.805 80.0541 260.749 80.5386 260.697L81.5248 260.58C85.5372 260.017 89.505 259.172 93.3987 258.05C102.145 255.608 110.701 252.191 119.443 249.687C130.746 246.461 143.234 244.876 154.157 248.821V208.232H60.3682ZM154.135 79.7673V0.00433617C143.869 -0.107023 133.631 1.09516 123.67 3.58169C99.9261 9.55406 78.6223 22.5079 60.3682 39.0521V79.7629H65.0745V81.6123H60.3682V144.619H154.135V81.6166H84.3971V79.7673H154.135ZM274.574 52.8245C268.699 52.6166 262.86 50.7543 257.578 47.8785C247.478 42.3783 239.411 33.8853 230.396 26.7176C211.666 11.7888 188.437 2.78047 164.607 0.545704V79.7673H298.464L298.797 79.4165L274.574 52.8245ZM286.768 50.659L299.697 64.8645V46.9344C295.367 47.4714 291.573 48.7491 286.785 50.6417L286.768 50.659ZM299.697 272.459V208.232H272.147C272.073 207.959 272 207.682 271.913 207.404C271.996 207.682 272.065 207.959 272.143 208.232H164.625V254.681C165.645 255.439 166.653 256.236 167.653 257.046C168.73 257.912 169.794 258.826 170.862 259.722L171.939 260.614C172.454 261.047 172.973 261.481 173.496 261.888C174.535 262.731 175.583 263.562 176.641 264.382C177.165 264.815 177.701 265.205 178.233 265.612C186.68 272.078 195.59 277.913 204.892 283.07C206.977 284.225 209.081 285.353 211.203 286.453C212.618 287.176 214.041 287.895 215.468 288.592C217.614 289.64 219.776 290.651 221.957 291.624C242.056 300.658 263.31 306.856 285.111 310.043C289.953 310.759 294.813 311.322 299.693 311.732V272.455H300.125L299.697 272.459ZM164.625 81.6166V144.619H299.714V81.6166H164.625ZM164.625 146.468V206.382H299.714V146.468H164.625ZM310.2 46.8565V66.8567L326.702 48.7274C321.234 47.8439 315.733 47.213 310.2 46.8348V46.8565ZM310.2 146.49V206.382H441.591V146.468L310.2 146.49ZM441.111 277.215L441.573 208.232H310.2V312.421C318.663 312.777 327.139 312.676 335.591 312.118H335.738C339.775 311.864 343.794 311.494 347.794 311.009H347.884C369.223 308.523 390.088 302.948 409.828 294.461M466.926 156.334C466.433 155.169 465.918 154.013 465.395 152.869C464.417 150.704 463.383 148.599 462.319 146.494H452.067V206.382H477.987C477.974 189.422 473.687 172.099 466.939 156.312L466.926 156.334ZM452.067 208.253V267.587C459.369 260.58 465.537 252.563 469.98 243.399C475.322 232.364 477.766 220.415 477.965 208.245L452.067 208.253ZM452.067 129.032V144.623H461.359C458.548 139.256 455.451 134.044 452.08 129.01L452.067 129.032ZM362.959 58.6106C362.276 58.3508 361.592 58.0866 360.905 57.8311C353.651 55.149 346.239 52.9187 338.71 51.1527L313.457 78.9011L312.972 79.4165L313.297 79.7716H403.175C390.657 71.1446 377.162 64.0341 362.972 58.589L362.959 58.6106ZM405.809 81.6382H312.042L310.2 83.3273V144.619H326.352H326.377H441.608V114.93C431.184 102.308 419.153 91.1081 405.822 81.6166L405.809 81.6382Z" fill="#6C63FF"/>
<path opacity="0.1" d="M49.8875 113.397V144.619H6.125C6.125 144.437 6.15528 144.251 6.16826 144.069C6.20719 143.571 6.24612 143.073 6.28937 142.579C6.33695 141.999 6.38886 141.414 6.4451 140.846C6.50133 140.279 6.56189 139.586 6.62677 138.958C6.69166 138.33 6.75222 137.694 6.82575 137.066C6.89929 136.438 6.96417 135.81 7.04203 135.186C7.1199 134.562 7.18911 133.93 7.27129 133.306C7.33618 132.787 7.40539 132.271 7.4746 131.751C7.57409 131.02 7.6779 130.283 7.79037 129.556C7.79037 129.447 7.82065 129.335 7.83795 129.231C8.62746 123.905 9.70322 118.625 11.0605 113.414L49.8875 113.397Z" fill="#6C63FF"/>
<path opacity="0.1" d="M5.98665 146.472H49.8875V206.382H9.20059C9.09245 206.997 8.98864 207.617 8.87617 208.236H49.8875V256.552C49.814 256.53 49.7491 256.504 49.6799 256.478C48.5206 256.019 47.37 255.534 46.2194 255.014L45.484 254.681C44.3305 254.135 43.177 253.558 42.0235 252.949C41.6212 252.736 41.2189 252.515 40.821 252.29C34.4172 248.699 28.5998 244.148 23.5704 238.795C23.4233 238.652 23.2849 238.501 23.1378 238.362C22.437 237.6 21.7493 236.829 21.0831 236.041L20.3478 235.174C19.5605 234.209 18.7992 233.217 18.0595 232.212C17.9514 232.065 17.8475 231.918 17.7351 231.779C14.7268 227.603 12.229 223.081 10.295 218.31C10.2344 218.167 10.1825 218.011 10.1263 217.877C9.53223 216.346 9.00594 214.802 8.54742 213.243C8.34844 212.589 8.15812 211.943 7.99374 211.263C7.93318 211.064 7.88127 210.869 7.83369 210.674C5.37673 201.073 5.08691 191.098 5.08691 181.194C5.08691 180.037 5.08691 178.877 5.08691 177.729C5.08691 173.723 5.1345 169.691 5.20371 165.663C5.20371 164.619 5.24696 163.58 5.26859 162.532C5.32915 159.872 5.41566 157.213 5.52813 154.554C5.55408 153.813 5.58869 153.077 5.62762 152.341C5.62762 151.916 5.64925 151.492 5.6925 151.068C5.79632 149.526 5.88283 147.997 5.98665 146.472Z" fill="#6C63FF"/>
<path opacity="0.1" d="M93.3771 90.6379V144.619H60.3682V90.6379H65.0745V72.3614H84.3927V90.6379H93.3771Z" fill="#6C63FF"/>
<path opacity="0.1" d="M93.3776 146.468H60.373V206.378H93.3776V146.468Z" fill="#6C63FF"/>
<path opacity="0.1" d="M60.3682 208.236H93.3771V258.042C89.4834 259.162 85.5156 260.006 81.5032 260.567L80.517 260.688C80.0325 260.744 79.5524 260.792 79.0765 260.84C78.6007 260.887 78.1076 260.922 77.6274 260.952H77.4761C77.2684 260.952 77.0435 260.978 76.8402 260.982H76.6196C76.36 260.982 76.1005 261.008 75.841 261.017C75.4733 261.039 75.1056 261.043 74.7293 261.047C74.5692 261.047 74.4178 261.047 74.2578 261.047C73.8858 261.047 73.5181 261.047 73.1461 261.047H72.3285C72.1079 261.047 71.896 261.047 71.6667 261.047L70.8319 261.017C70.3993 261.017 69.9321 260.969 69.4823 260.939L68.6518 260.879L67.6179 260.783C66.8912 260.718 66.1688 260.636 65.4551 260.536L64.59 260.415L64.1574 260.355C63.435 260.242 62.7213 260.121 61.9946 259.982C61.4625 259.891 60.9348 259.778 60.3984 259.67L60.3682 208.236Z" fill="#6C63FF"/>
<path opacity="0.1" d="M299.715 84.2628H272.498V144.614H299.715V84.2628Z" fill="#6C63FF"/>
<path opacity="0.1" d="M299.719 146.468V206.382H164.625V180.54H236.582V195.784H272.498V146.468H299.719Z" fill="#6C63FF"/>
<path opacity="0.1" d="M300.147 272.472H299.715V311.776C294.841 311.363 289.982 310.801 285.137 310.091C263.326 306.894 242.063 300.682 221.957 291.633C216.152 289.017 210.465 286.161 204.897 283.066C195.595 277.906 186.683 272.071 178.233 265.608C176.111 263.979 174.016 262.314 171.948 260.61C170.517 259.428 169.093 258.215 167.653 257.037C166.654 256.227 165.646 255.43 164.625 254.668V208.236H272.139C272.065 207.959 271.992 207.682 271.914 207.409C271.996 207.682 272.074 207.959 272.147 208.236H299.715V272.446C299.862 272.451 300.004 272.464 300.147 272.472Z" fill="#6C63FF"/>
<path opacity="0.1" d="M370.698 79.7673H352.963V74.2496H360.913V57.8137C361.603 58.0649 362.289 58.3233 362.972 58.589V74.2496H370.698V79.7673Z" fill="#6C63FF"/>
<path opacity="0.1" d="M413.427 144.619H326.361C326.361 144.619 326.361 144.619 326.391 144.64L326.352 144.619H310.2V84.2671H314.777V128.876H335.691V102.457H352.968V81.6209H370.703V102.474H387.979V128.893H413.427V144.619Z" fill="#6C63FF"/>
<path opacity="0.1" d="M310.2 146.468V206.382H413.427V146.468H310.2ZM441.449 276.907L441.591 229.484H413.427V208.262H310.2V312.421C318.663 312.777 327.139 312.676 335.592 312.118H335.739C339.776 311.864 343.795 311.494 347.794 311.009H347.885C369.224 308.523 390.089 302.948 409.828 294.461" fill="#6C63FF"/>
<path opacity="0.1" d="M453.902 208.236H477.983C477.771 220.402 475.331 232.351 469.993 243.386C465.551 252.554 459.378 260.571 452.085 267.574V229.462H453.902V208.236Z" fill="#6C63FF"/>
<path opacity="0.1" d="M477.996 206.382H453.902V156.312H466.94C473.688 172.099 477.975 189.422 477.996 206.382Z" fill="#6C63FF"/>
<path opacity="0.1" d="M299.718 101.041H285.137V119.963H299.718V101.041Z" fill="#6C63FF"/>
<path opacity="0.1" d="M299.718 140.262H285.137V144.619H299.718V140.262Z" fill="#6C63FF"/>
<path opacity="0.1" d="M299.718 146.468H285.137V159.179H299.718V146.468Z" fill="#6C63FF"/>
<path opacity="0.1" d="M299.718 179.483H285.137V198.405H299.718V179.483Z" fill="#6C63FF"/>
<path opacity="0.1" d="M299.718 218.704H285.137V237.626H299.718V218.704Z" fill="#6C63FF"/>
<path opacity="0.1" d="M299.714 272.446C299.861 272.446 300.004 272.446 300.147 272.472H299.714V276.868H285.137V257.925H299.714V272.446Z" fill="#6C63FF"/>
<path opacity="0.1" d="M299.714 297.137V311.754C294.841 311.341 289.981 310.78 285.137 310.069V297.137H299.714Z" fill="#6C63FF"/>
<path opacity="0.1" d="M227.117 204.992H164.625V206.382H227.117V204.992Z" fill="#6C63FF"/>
<path opacity="0.1" d="M227.117 208.232H164.625V213.559H227.117V208.232Z" fill="#6C63FF"/>
<path opacity="0.1" d="M227.117 231.021H164.625V239.588H227.117V231.021Z" fill="#6C63FF"/>
<path opacity="0.1" d="M227.113 257.05V265.617H178.233C176.111 263.994 174.014 262.328 171.944 260.619C170.512 259.436 169.093 258.224 167.648 257.05H227.113Z" fill="#6C63FF"/>
<path opacity="0.1" d="M227.113 283.075V291.633H221.952C216.153 289.014 210.468 286.157 204.896 283.062L227.113 283.075Z" fill="#6C63FF"/>
<path opacity="0.1" d="M347.898 152.276H335.596V164.593H347.898V152.276Z" fill="#6C63FF"/>
<path opacity="0.1" d="M81.5336 94.8866H69.2314V107.204H81.5336V94.8866Z" fill="#6C63FF"/>
<path opacity="0.1" d="M81.5336 123.497H69.2314V135.814H81.5336V123.497Z" fill="#6C63FF"/>
<path opacity="0.1" d="M81.5336 152.107H69.2314V164.424H81.5336V152.107Z" fill="#6C63FF"/>
<path opacity="0.1" d="M81.5336 180.713H69.2314V193.03H81.5336V180.713Z" fill="#6C63FF"/>
<path opacity="0.1" d="M81.5336 209.323H69.2314V221.64H81.5336V209.323Z" fill="#6C63FF"/>
<path opacity="0.1" d="M81.5336 237.933H69.2314V250.25H81.5336V237.933Z" fill="#6C63FF"/>
<path opacity="0.1" d="M394.862 152.276H382.56V164.593H394.862V152.276Z" fill="#6C63FF"/>
<path opacity="0.1" d="M347.898 182.657H335.596V194.975H347.898V182.657Z" fill="#6C63FF"/>
<path opacity="0.1" d="M394.862 182.657H382.56V194.975H394.862V182.657Z" fill="#6C63FF"/>
<path opacity="0.1" d="M347.898 213.035H335.596V225.352H347.898V213.035Z" fill="#6C63FF"/>
<path opacity="0.1" d="M394.862 213.035H382.56V225.352H394.862V213.035Z" fill="#6C63FF"/>
<path opacity="0.1" d="M347.898 243.416H335.596V255.733H347.898V243.416Z" fill="#6C63FF"/>
<path opacity="0.1" d="M394.862 243.416H382.56V255.733H394.862V243.416Z" fill="#6C63FF"/>
<path opacity="0.1" d="M347.898 273.798H335.596V286.115H347.898V273.798Z" fill="#6C63FF"/>
<path opacity="0.1" d="M394.862 273.798H382.56V286.115H394.862V273.798Z" fill="#6C63FF"/>
<path opacity="0.1" d="M335.596 312.118V304.175H347.893V310.987L335.596 312.118Z" fill="#6C63FF"/>
<path opacity="0.1" d="M7.78613 129.222V136.269H49.8875V129.222H7.78613ZM11.982 135.827H8.54745V129.655H12.008L11.982 135.827ZM16.1735 135.827H12.713V129.655H16.1735V135.827ZM20.3564 135.827H16.8959V129.655H20.3564V135.827ZM24.548 135.827H21.0918V129.655H24.5523L24.548 135.827ZM28.7352 135.827H25.2747V129.655H28.7352V135.827ZM32.9267 135.827H29.4662V129.655H32.9267V135.827ZM37.1183 135.827H33.6578V129.655H37.1183V135.827ZM41.3055 135.827H37.845V129.655H41.3055V135.827ZM45.4927 135.827H42.0322V129.655H45.4927V135.827ZM49.6799 135.827H46.2194V129.655H49.6799V135.827Z" fill="#6C63FF"/>
<path opacity="0.1" d="M7.78613 149.725V156.771H49.8875V149.725H7.78613ZM11.982 156.325H8.54745V150.171H12.008L11.982 156.325ZM16.1735 156.325H12.713V150.171H16.1735V156.325ZM20.3564 156.325H16.8959V150.171H20.3564V156.325ZM24.548 156.325H21.0918V150.171H24.5523L24.548 156.325ZM28.7352 156.325H25.2747V150.171H28.7352V156.325ZM32.9267 156.325H29.4662V150.171H32.9267V156.325ZM37.1183 156.325H33.6578V150.171H37.1183V156.325ZM41.3055 156.325H37.845V150.171H41.3055V156.325ZM45.4927 156.325H42.0322V150.171H45.4927V156.325ZM49.6799 156.325H46.2194V150.171H49.6799V156.325Z" fill="#6C63FF"/>
<path opacity="0.1" d="M7.78613 170.236V177.296H49.8875V170.236H7.78613ZM11.982 176.837H8.54745V170.678H12.008L11.982 176.837ZM16.1735 176.837H12.713V170.678H16.1735V176.837ZM20.3564 176.837H16.8959V170.678H20.3564V176.837ZM24.548 176.837H21.0918V170.678H24.5523L24.548 176.837ZM28.7352 176.837H25.2747V170.678H28.7352V176.837ZM32.9267 176.837H29.4662V170.678H32.9267V176.837ZM37.1183 176.837H33.6578V170.678H37.1183V176.837ZM41.3055 176.837H37.845V170.678H41.3055V176.837ZM45.4927 176.837H42.0322V170.678H45.4927V176.837ZM49.6799 176.837H46.2194V170.678H49.6799V176.837Z" fill="#6C63FF"/>
<path opacity="0.1" d="M7.78613 190.748V197.785H49.8875V190.748H7.78613ZM11.982 197.348H8.54745V191.185H12.008L11.982 197.348ZM16.1735 197.348H12.713V191.185H16.1735V197.348ZM20.3564 197.348H16.8959V191.185H20.3564V197.348ZM24.548 197.348H21.0918V191.185H24.5523L24.548 197.348ZM28.7352 197.348H25.2747V191.185H28.7352V197.348ZM32.9267 197.348H29.4662V191.185H32.9267V197.348ZM37.1183 197.348H33.6578V191.185H37.1183V197.348ZM41.3055 197.348H37.845V191.185H41.3055V197.348ZM45.4927 197.348H42.0322V191.185H45.4927V197.348ZM49.6799 197.348H46.2194V191.185H49.6799V197.348Z" fill="#6C63FF"/>
<path opacity="0.1" d="M7.96777 211.255C8.13647 211.917 8.3268 212.58 8.52578 213.234V211.696H11.9863V217.855H10.1349C10.1911 217.998 10.2474 218.154 10.3036 218.288H49.8875V211.255H7.96777ZM16.1865 217.855H12.726V211.696H16.1865V217.855ZM20.3694 217.855H16.9089V211.696H20.3694V217.855ZM24.5609 217.855H21.0917V211.696H24.5523L24.5609 217.855ZM28.7481 217.855H25.2876V211.696H28.7481V217.855ZM32.9397 217.855H29.4792V211.696H32.9397V217.855ZM37.1312 217.855H33.6707V211.696H37.1312V217.855ZM41.3184 217.855H37.8579V211.696H41.3184V217.855ZM45.5056 217.855H42.0451V211.696H45.5056V217.855ZM49.6928 217.855H46.2323V211.696H49.6928V217.855Z" fill="#6C63FF"/>
<path opacity="0.1" d="M17.7441 231.766C17.8523 231.905 17.9561 232.06 18.0686 232.199H20.3568V235.157C20.6034 235.452 20.8456 235.746 21.0965 236.023V232.182H24.557V238.362H23.1555C23.2939 238.505 23.428 238.656 23.5881 238.795H49.9009V231.766H17.7441ZM28.7356 238.362H25.2751V232.208H28.7356V238.362ZM32.9271 238.362H29.4666V232.208H32.9271V238.362ZM37.1187 238.362H33.6582V232.208H37.1187V238.362ZM41.3059 238.362H37.8454V232.208H41.3059V238.362ZM45.4931 238.362H42.0326V232.208H45.4931V238.362ZM49.6803 238.362H46.2198V232.208H49.6803V238.362Z" fill="#6C63FF"/>
<path opacity="0.1" d="M40.8379 252.273C41.2315 252.498 41.6338 252.706 42.0404 252.931V252.715H45.5009V254.664L46.2363 255.006V252.715H49.6968V256.461C49.7632 256.494 49.8327 256.52 49.9044 256.539V252.273H40.8379Z" fill="#6C63FF"/>
<path opacity="0.1" d="M271.913 207.404C271.996 207.682 272.065 207.959 272.143 208.232C272.073 207.959 272 207.682 271.913 207.404ZM65.0918 79.7543V81.6036H84.4144V79.7543H65.0918ZM271.913 207.404C271.996 207.682 272.065 207.959 272.143 208.232C272.073 207.959 272 207.682 271.913 207.404ZM271.913 207.404C271.996 207.682 272.065 207.959 272.143 208.232C272.073 207.959 272 207.682 271.913 207.404Z" fill="#6C63FF"/>
<path d="M199.672 164.433C199.672 164.433 197.967 164.195 197.967 161.709C197.967 159.223 196.747 154.58 196.747 154.58C196.747 154.558 195.692 146.494 194.234 145.212C192.777 143.93 190.904 136.403 190.904 136.403C190.904 136.403 190.583 132.319 189.93 131.44C189.277 130.561 188.395 128.408 187.093 125.337C185.791 122.267 180.362 120.14 180.362 120.14C180.362 120.14 170.547 114.441 167.766 112.583C167.513 112.43 167.277 112.252 167.061 112.05C166.576 111.413 164.465 111.4 164.465 111.4C164.245 110.006 164.033 108.403 163.964 106.953C163.964 106.797 163.964 106.641 163.942 106.485C167.043 104.649 169.379 101.755 170.521 98.334C170.573 98.1694 170.616 97.9962 170.664 97.8316C170.85 97.7703 171.021 97.6709 171.166 97.5396C171.311 97.4084 171.428 97.2482 171.507 97.0694C171.758 96.5107 171.763 95.8567 172.074 95.337C172.437 94.722 173.13 94.3928 173.675 93.9294C175.05 92.7601 175.405 90.7895 175.34 88.9965C175.297 87.5456 175.063 86.0818 175.154 84.6396L175.18 84.2758C175.206 84.0592 175.236 83.8427 175.275 83.6348C175.487 82.5607 175.95 81.5473 176.209 80.4819C176.469 79.4164 176.495 78.2168 175.889 77.2986C175.003 75.9517 173.155 75.6832 171.533 75.5446C169.695 75.3887 168.051 75.5922 166.875 74.0634C166.324 73.2644 165.705 72.5151 165.023 71.8243C164.781 71.5991 162.428 70.1612 162.428 70.0659C160.131 69.0009 157.528 68.801 155.096 69.5029C153.876 69.8581 152.726 70.4384 151.488 70.7286C148.819 71.3609 145.748 70.6766 143.482 72.2054C142.219 73.0716 141.462 74.4489 140.752 75.7914C140.175 76.8973 139.59 78.0017 138.996 79.1046C138.04 80.9193 137.067 82.7643 136.664 84.7738C136.58 85.2111 136.528 85.6541 136.509 86.0991V86.1207C136.509 86.281 136.509 86.4412 136.509 86.6015V86.805C136.509 86.9566 136.509 87.1039 136.535 87.2381C136.561 87.3724 136.556 87.4157 136.569 87.5066C136.582 87.5976 136.604 87.8011 136.63 87.9397C136.656 88.0783 136.708 88.3209 136.76 88.5114C136.781 88.5937 136.811 88.6717 136.837 88.7496C136.881 88.8969 136.933 89.0398 136.989 89.1827C137.019 89.2563 137.049 89.3343 137.084 89.4079C137.149 89.5595 137.227 89.7068 137.305 89.841C137.339 89.9017 137.365 89.958 137.4 90.0143C137.52 90.2157 137.653 90.4095 137.798 90.5946C138.723 91.751 140.086 92.4872 141.094 93.57C141.094 93.6133 141.094 93.6566 141.094 93.6956C141.094 93.8168 141.094 93.9337 141.094 94.055C141.147 96.4697 141.789 98.8348 142.964 100.945C144.138 103.054 145.81 104.845 147.833 106.16C147.833 106.325 147.855 106.493 147.863 106.658C147.948 107.944 147.932 109.234 147.816 110.517C147.64 110.309 147.419 110.144 147.171 110.033C146.922 109.922 146.652 109.868 146.38 109.876C146.194 109.867 146.008 109.883 145.826 109.924L145.787 109.893V109.932C144.836 110.166 143.663 111.158 142.543 113.977C142.543 113.977 139.134 117.823 136.539 117.663C133.944 117.503 127.373 121.665 127.373 121.665C127.373 121.665 120.962 125.831 119.587 130.075C118.818 132.482 117.896 134.837 116.827 137.126L108.902 153.476L107.44 166.447C107.44 166.447 108.249 172.215 108.089 173.095C107.929 173.974 111.416 181.904 111.416 181.904C111.416 181.904 122.935 202.168 127.641 203.208L127.979 202.97C128.18 203.075 128.393 203.155 128.614 203.208L129.583 202.523C129.642 203.286 129.617 204.053 129.51 204.81C128.861 206.811 129.752 219.869 130.885 222.428C132.019 224.988 131.616 258.548 131.616 258.548L131.456 261.511C131.456 261.511 131.456 261.606 131.495 261.771L131.456 262.472L131.573 262.533C131.694 263.473 131.655 264.426 131.456 265.352C131.05 266.652 130.885 270.324 130.885 270.324C130.885 270.324 127.645 291.061 129.181 295.227C130.717 299.394 132.023 303.958 132.023 303.958C132.023 303.958 133.645 309.156 132.101 310.043C130.557 310.931 126.166 312.421 127.07 314.586C127.892 316.587 131.011 321.949 131.474 322.733L131.435 323.144L130.799 330.044C130.902 330.955 131.149 331.843 131.53 332.677C132.226 334.18 133.58 335.739 136.154 335.57C136.587 335.54 137.088 335.488 137.573 335.423C142.283 334.79 148.084 332.685 148.084 332.685C147.783 332.494 147.507 332.266 147.262 332.006C147.031 331.781 146.847 331.512 146.723 331.214C146.599 330.916 146.537 330.596 146.54 330.273C146.609 329.017 144.26 323.032 143.676 321.559C143.585 321.347 143.538 321.226 143.538 321.226C143.538 321.226 148.893 315.622 148.002 310.654C148.002 310.654 142.076 307.189 144.027 305.288C145.978 303.387 149.464 297.925 149.464 297.925C149.464 297.925 149.624 277.505 149.464 274.456C149.297 272.34 149.397 270.211 149.762 268.12C149.827 267.804 149.905 267.496 149.987 267.193C152.685 267.596 155.409 267.803 158.137 267.812C159.132 267.812 160.144 267.812 161.165 267.752C161.165 268.04 161.178 268.352 161.204 268.687C161.429 273.746 161.848 282.615 162.19 285.911C162.674 290.636 165.352 303.369 165.352 303.369C165.352 303.369 160.243 306.652 166.243 314.742C166.243 314.742 166.243 317.674 165.845 318.099C165.42 319.486 165.078 320.898 164.82 322.326C164.569 323.85 164.465 325.392 164.872 326.193C165.845 328.108 171.685 327.952 171.685 327.952L171.828 327.926C172.93 327.812 174.044 327.918 175.105 328.238C176.166 328.559 177.153 329.087 178.009 329.792C180.228 331.577 188.65 330.793 193.209 330.225C194.996 330 196.189 329.792 196.189 329.792C196.247 329.59 196.268 329.379 196.25 329.169C196.202 328.047 195.324 325.587 189.372 323.391C189.372 323.391 183.775 319.623 183.853 316.341H183.736H183.087C183.559 316.315 183.861 316.341 183.861 316.341C183.861 316.341 181.668 308.328 182.564 307.679C183.459 307.029 180.777 298.151 180.777 298.151C180.777 298.151 179.242 283.252 179.159 282.208C179.163 281.313 179.298 280.422 179.562 279.566L179.159 271.398C179.159 271.398 179.082 268.683 179.159 267.799C179.146 267.032 179.084 266.267 178.973 265.508C178.935 265.205 178.896 264.889 178.852 264.577C180.95 264.044 182.313 263.551 182.313 263.551L182.071 235.118C183.853 231.653 184.182 224.053 184.173 218.66C184.173 215.196 184.017 212.632 184.017 212.632L186.452 208.652C186.452 208.652 187.015 203.888 186.124 202.844C185.73 202.372 185.907 201.882 186.232 201.48C186.4 201.346 186.578 201.224 186.764 201.116C186.764 201.116 186.738 201.077 186.708 201.021C186.878 200.878 187.059 200.749 187.248 200.635C187.248 200.635 186.383 199.293 187.158 198.725C187.884 199.219 188.533 199.591 189.026 199.895C188.992 200.211 188.957 200.393 188.957 200.393L189.165 199.96C189.64 200.228 189.93 200.393 189.93 200.393C189.93 200.393 193.746 192.783 193.663 191.661C193.581 190.54 196.259 185.815 196.259 185.815C196.259 185.815 196.583 183.333 198.045 182.294C199.507 181.254 199.179 173.723 199.179 173.723C199.179 173.723 199.585 169.799 200.558 168.196C201.532 166.594 199.672 164.433 199.672 164.433ZM126.672 161.094L126.746 162.908C126.313 162.211 126.002 161.709 126.002 161.709L126.672 161.094Z" fill="url(#paint0_linear_74_903)"/>
<path d="M190.138 197.105L189.204 201.09C189.204 201.09 181.72 197.266 180.371 192.406C179.021 187.547 182.629 185.702 182.629 185.702L189.602 188.66L190.138 197.105Z" fill="white"/>
<path opacity="0.1" d="M190.138 197.105L189.204 201.09C189.204 201.09 181.72 197.266 180.371 192.406C179.021 187.547 182.629 185.702 182.629 185.702L189.602 188.66L190.138 197.105Z" fill="black"/>
<path d="M148.14 332.711C148.14 332.711 141.219 335.258 136.461 335.579C133.935 335.747 132.607 334.197 131.924 332.703C131.55 331.872 131.309 330.988 131.21 330.083L131.829 323.218L132.157 319.563L142.266 316.934L143.698 321.317L143.832 321.65C144.407 323.114 146.713 329.069 146.644 330.312C146.641 330.63 146.702 330.946 146.824 331.24C146.946 331.534 147.126 331.8 147.353 332.023C147.585 332.285 147.85 332.516 148.14 332.711Z" fill="white"/>
<path d="M195.414 329.221C195.432 329.429 195.411 329.639 195.354 329.84C195.354 329.84 180.552 332.313 177.524 329.84C176.67 329.118 175.675 328.582 174.602 328.267C173.529 327.952 172.403 327.866 171.295 328.012C171.295 328.012 165.568 328.168 164.612 326.28C164.214 325.487 164.317 323.95 164.564 322.434C164.816 321.014 165.151 319.61 165.568 318.229L165.797 318.047L167.159 316.951L183.112 316.479H183.234C183.156 319.745 188.649 323.491 188.649 323.491C194.484 325.656 195.345 328.103 195.414 329.221Z" fill="white"/>
<path opacity="0.1" d="M195.415 329.221C195.43 329.429 195.408 329.639 195.35 329.84C195.35 329.84 180.552 332.313 177.524 329.84C176.671 329.118 175.677 328.583 174.605 328.268C173.533 327.953 172.407 327.866 171.3 328.012C171.3 328.012 165.568 328.168 164.617 326.28C164.219 325.483 164.318 323.95 164.565 322.434C166.771 322.655 170.253 323.205 171.62 324.517C173.687 326.514 177.191 328.506 179.341 328.662C181.024 328.77 191.09 329.091 195.415 329.221Z" fill="black"/>
<path opacity="0.1" d="M148.14 332.711C148.14 332.711 141.219 335.258 136.461 335.579C133.935 335.747 132.607 334.197 131.928 332.698C133.688 333.292 136.132 333.915 137.417 333.344C138.94 332.668 144.338 332.231 147.366 332.044C147.596 332.297 147.856 332.521 148.14 332.711Z" fill="black"/>
<path d="M158.409 127.49C152.699 125.268 145.354 117.927 147.188 114.497C147.595 113.631 147.837 112.697 147.902 111.743C148.02 110.447 148.037 109.143 147.954 107.845C147.825 105.718 147.569 103.601 147.188 101.504C147.188 101.504 165.014 101.907 163.976 104.536C163.673 105.307 163.625 106.645 163.708 108.144C163.79 109.642 164.006 111.335 164.231 112.769C164.543 114.735 164.854 116.234 164.854 116.234C164.854 116.234 163.764 117.763 163.124 117.845C162.484 117.927 166.602 130.656 158.409 127.49Z" fill="#CF6F80"/>
<path opacity="0.1" d="M143.819 321.65L143.685 321.798C138.356 315.344 131.911 323.387 131.911 323.387L131.815 323.218L132.144 319.563L142.253 316.934L143.685 321.317L143.819 321.65Z" fill="black"/>
<path opacity="0.1" d="M183.238 316.934C183.238 316.934 179.345 316.852 177.269 318.688C175.193 320.524 165.157 319.086 165.59 318.688C165.718 318.49 165.795 318.264 165.815 318.03L167.177 316.934L183.13 316.462C183.191 316.752 183.238 316.934 183.238 316.934Z" fill="black"/>
<path d="M150.45 266.258C150.16 266.975 149.94 267.719 149.792 268.479C149.432 270.561 149.331 272.679 149.494 274.785C149.654 277.817 149.494 298.133 149.494 298.133C149.494 298.133 146.072 303.551 144.165 305.461C142.257 307.371 148.058 310.801 148.058 310.801C148.923 315.739 143.68 321.317 143.68 321.317C138.351 314.864 131.906 322.911 131.906 322.911C131.906 322.911 128.402 316.847 127.528 314.682C126.654 312.516 130.95 311.018 132.459 310.139C133.969 309.259 132.386 304.075 132.386 304.075C132.386 304.075 131.11 299.532 129.596 295.387C128.082 291.243 131.266 270.61 131.266 270.61C131.266 270.61 131.43 266.946 131.824 265.669C132.022 264.747 132.062 263.797 131.94 262.862C131.914 262.546 131.884 262.282 131.863 262.104C131.841 261.927 131.824 261.844 131.824 261.844L131.884 261.74L134.047 257.704C134.047 257.704 151.488 263.715 150.45 266.258Z" fill="#6C63FF"/>
<path d="M183.238 316.457C183.238 316.457 179.345 316.375 177.269 318.19C175.192 320.004 165.157 318.588 165.589 318.19C166.022 317.791 165.987 314.842 165.987 314.842C160.1 306.795 165.122 303.53 165.122 303.53C165.122 303.53 162.492 290.862 162.016 286.163C161.683 282.88 161.272 274.058 161.052 269.021C160.957 266.855 160.9 265.365 160.9 265.365L165.71 264.395L166.329 264.27L177.93 261.94C177.93 261.94 178.251 264.105 178.467 265.876C178.575 266.633 178.635 267.395 178.648 268.159C178.571 269.025 178.648 271.736 178.648 271.736L179.042 279.865C178.785 280.718 178.652 281.604 178.648 282.494C178.726 283.529 180.236 298.35 180.236 298.35C180.236 298.35 182.862 307.194 181.966 307.83C181.071 308.467 183.238 316.457 183.238 316.457Z" fill="#6C63FF"/>
<path opacity="0.1" d="M163.976 104.536C163.673 105.307 163.626 106.645 163.708 108.144C161.32 109.583 158.575 110.319 155.789 110.267C153.002 110.215 150.286 109.377 147.954 107.849C147.826 105.721 147.57 103.602 147.188 101.504C147.188 101.504 165.014 101.898 163.976 104.536Z" fill="black"/>
<path d="M170.867 94.9645C170.87 96.5252 170.625 98.0764 170.14 99.5597C169.056 102.883 166.834 105.716 163.866 107.557C160.898 109.399 157.375 110.131 153.92 109.623C150.466 109.116 147.301 107.402 144.986 104.785C142.672 102.167 141.355 98.8147 141.271 95.3197C141.271 95.1984 141.271 95.0858 141.271 94.9645C141.237 92.9972 141.595 91.043 142.324 89.2157C143.053 87.3884 144.137 85.7246 145.515 84.3215C146.893 82.9184 148.536 81.8039 150.348 81.0432C152.16 80.2825 154.106 79.8907 156.071 79.8907C158.036 79.8907 159.982 80.2825 161.794 81.0432C163.606 81.8039 165.249 82.9184 166.627 84.3215C168.004 85.7246 169.089 87.3884 169.818 89.2157C170.547 91.043 170.905 92.9972 170.871 94.9645H170.867Z" fill="#CF6F80"/>
<path opacity="0.1" d="M158.409 127.49C152.699 125.268 145.354 117.927 147.188 114.497C147.595 113.632 147.837 112.697 147.902 111.743L155.718 118.174L160.554 122.146L164.231 112.773C164.543 114.74 164.854 116.238 164.854 116.238C164.854 116.238 163.764 117.767 163.124 117.849C162.484 117.932 166.602 130.656 158.409 127.49Z" fill="black"/>
<path d="M178.623 155.914L172.095 265.703L163.583 266.262L141.539 202.601L145.155 127.022L145.917 111.054L155.718 119.114L160.559 123.085L164.344 113.44L171.382 119.582L178.623 155.914Z" fill="#6C63FF"/>
<path opacity="0.1" d="M150.45 266.257C150.16 266.975 149.94 267.719 149.792 268.479C143.598 267.522 137.582 265.64 131.945 262.897L131.828 262.836L131.867 262.139L131.889 261.775L134.052 257.739C134.052 257.739 151.488 263.715 150.45 266.257Z" fill="black"/>
<path opacity="0.1" d="M165.811 268.497C164.227 268.766 162.63 268.948 161.026 269.042C160.931 266.877 160.875 265.387 160.875 265.387L165.685 264.417L165.811 268.497Z" fill="black"/>
<path opacity="0.1" d="M178.441 265.898C175.366 266.699 170.616 267.6 166.364 267.037L166.304 264.291L177.905 261.961C177.905 261.961 178.225 264.105 178.441 265.898Z" fill="black"/>
<path opacity="0.1" d="M166.286 267.539C148.551 270.571 132.309 261.879 132.309 261.879L132.464 258.934C132.464 258.934 132.867 225.547 131.751 222.987C130.634 220.428 129.765 207.448 130.397 205.455C131.028 203.463 128.091 173.588 128.091 173.588L127.615 161.462L110.2 154.398L117.986 138.148C119.038 135.87 119.942 133.527 120.694 131.132C122.048 126.914 128.333 122.769 128.333 122.769C128.333 122.769 134.778 118.629 137.326 118.785C139.874 118.941 143.213 115.121 143.213 115.121C145.679 108.828 147.911 111.678 147.911 111.678C147.911 111.976 147.911 111.678 147.79 112.609C146.925 119.517 161.779 141.345 161.991 141.73L163.406 176.23L164.837 219.89L166.286 267.539Z" fill="black"/>
<path d="M165.81 267.539C148.075 270.571 131.828 261.879 131.828 261.879L131.988 258.934C131.988 258.934 132.39 225.547 131.27 222.987C130.15 220.428 129.284 207.448 129.92 205.455C130.556 203.463 127.615 173.588 127.615 173.588L127.135 161.462L109.711 154.372L117.497 138.122C118.546 135.843 119.451 133.5 120.205 131.106C121.555 126.888 127.844 122.743 127.844 122.743C127.844 122.743 134.289 118.603 136.833 118.759C139.376 118.915 142.72 115.095 142.72 115.095C145.19 108.802 147.911 111.652 147.911 111.652C147.911 111.95 147.651 112.085 147.79 112.583C149.693 119.283 161.303 141.319 161.515 141.704L162.947 176.204L164.378 219.864L165.81 267.539Z" fill="white"/>
<path opacity="0.1" d="M161.03 142.687C159.123 141.89 149.018 130.34 149.018 130.34V127.711C148.65 126.845 146.466 127.373 144.692 127.979L145.454 112.011L146.319 112.73C148.213 119.426 160.81 142.302 161.03 142.687Z" fill="black"/>
<path d="M161.51 141.73C159.598 140.933 149.494 129.382 149.494 129.382V126.754C149.126 125.887 146.941 126.416 145.168 127.022L145.934 111.054L146.799 111.773C148.698 118.469 161.298 141.349 161.51 141.73Z" fill="white"/>
<path opacity="0.1" d="M132.308 199.336C132.546 199.336 144.641 198.063 144.641 198.063C144.641 198.063 151.964 212.48 151.484 215.988C151.004 219.496 150.134 222.602 147.188 222.052C144.243 221.502 131.335 222.485 131.335 222.485L132.308 199.336Z" fill="black"/>
<path d="M131.828 198.379C132.066 198.379 144.16 197.105 144.16 197.105C144.16 197.105 151.479 211.527 151.003 215.031C150.527 218.535 149.649 221.645 146.708 221.094C143.767 220.544 130.854 221.528 130.854 221.528L131.828 198.379Z" fill="white"/>
<path d="M140.942 191.609C140.942 191.609 152.042 197.582 152.28 199.405C152.517 201.228 146.63 198.608 145.358 198.292C144.521 198.09 143.669 197.957 142.811 197.894L134.328 198.123L140.942 191.609Z" fill="#CF6F80"/>
<path opacity="0.1" d="M157.934 143.432C158.579 143.432 159.101 142.909 159.101 142.263C159.101 141.617 158.579 141.093 157.934 141.093C157.289 141.093 156.766 141.617 156.766 142.263C156.766 142.909 157.289 143.432 157.934 143.432Z" fill="black"/>
<path d="M157.934 142.956C158.579 142.956 159.101 142.432 159.101 141.786C159.101 141.14 158.579 140.617 157.934 140.617C157.289 140.617 156.766 141.14 156.766 141.786C156.766 142.432 157.289 142.956 157.934 142.956Z" fill="#3F3D56"/>
<path opacity="0.1" d="M160.083 194.052C160.728 194.052 161.251 193.529 161.251 192.883C161.251 192.237 160.728 191.713 160.083 191.713C159.438 191.713 158.915 192.237 158.915 192.883C158.915 193.529 159.438 194.052 160.083 194.052Z" fill="black"/>
<path d="M160.083 193.571C160.728 193.571 161.251 193.048 161.251 192.402C161.251 191.756 160.728 191.233 160.083 191.233C159.438 191.233 158.915 191.756 158.915 192.402C158.915 193.048 159.438 193.571 160.083 193.571Z" fill="#3F3D56"/>
<path opacity="0.1" d="M159.097 168.742C159.742 168.742 160.265 168.219 160.265 167.573C160.265 166.927 159.742 166.403 159.097 166.403C158.452 166.403 157.929 166.927 157.929 167.573C157.929 168.219 158.452 168.742 159.097 168.742Z" fill="black"/>
<path d="M159.097 168.266C159.742 168.266 160.265 167.742 160.265 167.096C160.265 166.451 159.742 165.927 159.097 165.927C158.452 165.927 157.929 166.451 157.929 167.096C157.929 167.742 158.452 168.266 159.097 168.266Z" fill="#3F3D56"/>
<path d="M186.02 197.651C186.02 197.651 186.816 198.846 186.02 199.405C185.224 199.964 186.098 201.315 186.098 201.315C186.098 201.315 184.112 202.48 184.986 203.528C185.86 204.576 185.306 209.31 185.306 209.31L182.919 213.269C182.919 213.269 183.061 215.819 183.07 219.267C183.07 224.646 182.754 232.208 181.007 235.655L181.249 263.94C181.249 263.94 172.887 266.998 165.889 266.067L164.85 220.679C164.85 220.679 166.364 194.94 166.922 190.003C167.249 187.439 167.382 184.855 167.32 182.272C167.32 182.272 167.082 174.546 166.282 170.96C166.282 170.96 165.417 155.424 165.331 151.124C165.292 149.067 165.4 143.064 165.521 137.356C165.655 131.115 165.806 125.229 165.806 125.229L164.228 112.721C164.228 112.721 165.806 112.561 166.282 113.198C166.495 113.397 166.727 113.576 166.974 113.731C169.699 115.575 179.328 121.249 179.328 121.249C179.328 121.249 184.658 123.371 185.934 126.412C187.21 129.452 188.096 131.609 188.715 132.475C189.334 133.341 189.671 137.412 189.671 137.412C189.671 137.412 191.505 144.905 192.937 146.174C194.369 147.443 195.415 155.515 195.415 155.515L182.763 165.477C182.763 165.477 181.651 182.047 181.413 182.688C181.175 183.329 186.02 197.651 186.02 197.651Z" fill="white"/>
<path d="M186.5 197.651C186.5 197.651 187.292 198.846 186.5 199.405C185.709 199.964 186.574 201.315 186.574 201.315C186.574 201.315 184.601 202.493 185.466 203.541C186.332 204.589 185.787 209.323 185.787 209.323L183.399 213.281C183.399 213.281 183.542 215.832 183.554 219.28C183.554 224.659 183.239 232.221 181.491 235.668L181.729 263.953C181.729 263.953 173.355 267.011 166.364 266.08L165.331 220.692C165.331 220.692 166.845 194.953 167.403 190.016C167.729 187.452 167.861 184.868 167.796 182.285C167.796 182.285 167.558 174.559 166.762 170.972C166.762 170.972 165.897 155.437 165.806 151.137C165.767 149.08 165.88 143.077 165.997 137.369C166.131 131.128 166.282 125.242 166.282 125.242L164.197 112.565C164.197 112.565 166.282 112.565 166.762 113.211C166.974 113.412 167.206 113.591 167.454 113.743C170.18 115.588 179.813 121.262 179.813 121.262C179.813 121.262 185.138 123.384 186.414 126.424C187.69 129.465 188.577 131.622 189.199 132.488C189.822 133.354 190.151 137.425 190.151 137.425C190.151 137.425 191.985 144.918 193.417 146.187C194.849 147.455 195.883 155.511 195.883 155.511L183.23 165.472C183.23 165.472 182.118 182.042 181.876 182.683C181.634 183.324 186.5 197.651 186.5 197.651Z" fill="white"/>
<path opacity="0.1" d="M171.347 128.919L172.489 132.254L166.476 138.317C166.61 132.081 166.762 126.191 166.762 126.191L164.677 113.514C164.677 113.514 166.762 113.514 167.242 114.159C167.452 114.36 167.685 114.538 167.934 114.688L173.047 129.456L171.347 128.919Z" fill="black"/>
<path d="M170.867 127.962L172.014 131.297L166.001 137.36C166.135 131.119 166.287 125.233 166.287 125.233L164.197 112.557C164.197 112.557 166.287 112.557 166.762 113.202C166.975 113.403 167.206 113.581 167.454 113.735L172.572 128.499L170.867 127.962Z" fill="white"/>
<path opacity="0.1" d="M170.867 94.9645C170.87 96.5252 170.625 98.0764 170.14 99.5597C170.058 99.5724 169.975 99.5687 169.895 99.5486C169.814 99.5285 169.739 99.4925 169.673 99.4427C169.56 95.5449 167.644 91.8852 165.287 88.7713C164.625 87.8311 163.822 86.9985 162.908 86.3026C161.983 85.6072 160.832 85.2814 159.681 85.3888C158.383 85.5664 157.237 86.4499 155.926 86.5625C154.196 86.7054 152.647 85.5058 150.93 85.4451C150.232 85.4518 149.543 85.6074 148.91 85.9017C148.276 86.1959 147.713 86.622 147.257 87.1515C146.355 88.2201 145.685 89.4649 145.289 90.8068C144.609 92.8417 144.239 94.9674 144.191 97.1127C144.169 98.3253 144.052 99.8455 142.927 100.287C143.012 99.3954 142.911 98.4957 142.63 97.6451C142.349 96.7944 141.895 96.0114 141.297 95.3457L141.271 95.3197C141.271 95.1984 141.271 95.0858 141.271 94.9645C141.237 92.9972 141.595 91.043 142.324 89.2157C143.053 87.3884 144.137 85.7246 145.515 84.3215C146.893 82.9184 148.536 81.8039 150.348 81.0432C152.16 80.2825 154.106 79.8907 156.071 79.8907C158.036 79.8907 159.982 80.2825 161.794 81.0432C163.606 81.8039 165.249 82.9184 166.627 84.3215C168.004 85.7246 169.089 87.3884 169.818 89.2157C170.547 91.043 170.905 92.9972 170.871 94.9645H170.867Z" fill="black"/>
<path d="M162.198 71.4345C159.951 70.3759 157.394 70.1756 155.009 70.8715C153.811 71.2266 152.682 71.8026 151.466 72.0928C148.871 72.7208 145.843 72.0408 143.615 73.561C142.378 74.4272 141.634 75.7958 140.942 77.1254L139.212 80.4255C138.269 82.2315 137.317 84.0679 136.924 86.0558C136.53 88.0437 136.768 90.2698 138.027 91.8679C138.944 93.0329 140.298 93.7648 141.293 94.8606C141.889 95.5271 142.341 96.3096 142.621 97.1592C142.9 98.0088 143.002 98.9071 142.919 99.7978C144.048 99.3647 144.156 97.8402 144.182 96.6276C144.23 94.4823 144.601 92.3566 145.281 90.3217C145.676 88.9794 146.346 87.7344 147.249 86.6664C147.705 86.1373 148.268 85.7115 148.902 85.4173C149.535 85.1231 150.223 84.9672 150.921 84.96C152.652 85.0207 154.205 86.216 155.918 86.0731C157.215 85.9648 158.366 85.077 159.672 84.9037C160.824 84.7946 161.975 85.1206 162.899 85.8176C163.814 86.5123 164.615 87.3451 165.274 88.2862C167.636 91.4001 169.552 95.0511 169.664 98.9576C170.153 99.3171 170.858 98.8494 171.101 98.295C171.343 97.7406 171.351 97.091 171.659 96.5626C172.013 95.952 172.692 95.6271 173.224 95.1681C174.574 94.003 174.911 92.0411 174.859 90.2611C174.808 88.4811 174.462 86.6751 174.799 84.9254C175.002 83.8513 175.461 82.8465 175.712 81.7855C175.963 80.7244 175.993 79.5334 175.4 78.6195C174.535 77.2769 172.714 77.0128 171.126 76.8872C169.323 76.7312 167.709 76.9305 166.559 75.4103C166.018 74.617 165.411 73.8722 164.742 73.1842C164.513 72.959 162.198 71.5298 162.198 71.4345Z" fill="#512E4E"/>
<path opacity="0.1" d="M115.183 162.765L110.662 154.398L109.23 167.309C109.23 167.309 110.026 173.043 109.866 173.922C109.706 174.801 113.128 182.683 113.128 182.683C113.128 182.683 124.431 202.84 129.046 203.879L144.64 192.722L140.505 187.465C140.505 187.465 139.073 186.906 138.714 187.465C138.714 187.465 131.036 174.238 130.24 173.281C129.444 172.324 129.6 170.414 129.6 170.414C129.6 170.414 128.406 169.141 128.804 167.945C129.202 166.75 126.498 162.605 126.498 162.605L128.964 160.297L115.183 162.765Z" fill="black"/>
<path d="M110.901 153.445L109.707 154.398L108.275 167.309C108.275 167.309 109.071 173.043 108.911 173.922C108.751 174.801 112.177 182.683 112.177 182.683C112.177 182.683 123.476 202.84 128.091 203.879L143.689 192.722L139.55 187.465C139.55 187.465 138.118 186.906 137.759 187.465C137.759 187.465 130.081 174.238 129.285 173.281C128.489 172.324 128.649 170.414 128.649 170.414C128.649 170.414 127.455 169.141 127.853 167.945C128.251 166.75 125.543 162.605 125.543 162.605L128.009 160.297L110.901 153.445Z" fill="white"/>
<path opacity="0.1" d="M184.985 204.022C185.85 205.074 185.305 209.799 185.305 209.799L182.918 213.758C182.918 213.758 183.06 216.313 183.069 219.756L179.055 221.012C178.692 221.126 178.308 221.151 177.933 221.085C177.559 221.019 177.206 220.865 176.903 220.635C176.6 220.405 176.357 220.105 176.193 219.762C176.03 219.419 175.95 219.041 175.962 218.661L176.654 196.309L186.019 199.895C185.223 200.449 186.097 201.809 186.097 201.809C186.097 201.809 184.112 202.97 184.985 204.022Z" fill="black"/>
<path d="M185.466 203.541C186.331 204.594 185.786 209.323 185.786 209.323L183.399 213.281C183.399 213.281 183.541 215.832 183.554 219.28L179.467 220.557C179.111 220.668 178.735 220.692 178.368 220.627C178.002 220.563 177.656 220.411 177.36 220.186C177.064 219.961 176.826 219.668 176.665 219.332C176.505 218.995 176.427 218.626 176.439 218.253L177.135 195.832L186.504 199.418C185.704 199.972 186.578 201.328 186.578 201.328C186.578 201.328 184.601 202.493 185.466 203.541Z" fill="white"/>
<path d="M188.567 192.887C188.567 192.887 187.931 196.954 186.339 197.192C184.748 197.43 184.034 203.771 182.446 203.546C180.859 203.32 181.91 197.651 181.966 196.551C182.023 195.451 180.236 190.895 181.573 189.86C182.909 188.825 187.14 189.86 187.14 189.86L188.567 192.887Z" fill="#CF6F80"/>
<path opacity="0.1" d="M191.955 161.57L194.957 155.507C194.957 155.507 196.15 160.128 196.15 162.596C196.15 165.065 197.82 165.308 197.82 165.308C197.82 165.308 199.65 167.473 198.685 169.05C197.721 170.626 197.331 174.55 197.331 174.55C197.331 174.55 197.647 182.038 196.215 183.073C194.784 184.108 194.485 186.581 194.485 186.581C194.485 186.581 191.855 191.28 191.937 192.398C192.019 193.515 188.278 201.081 188.278 201.081C188.278 201.081 190.107 191.679 179.445 187.616C179.445 187.616 179.363 184.424 180.159 183.55C180.954 182.675 182.196 182.276 181.417 177.854C180.639 173.432 181.192 168.149 181.192 167.088C181.192 166.027 183.58 159.409 183.58 159.409L191.955 161.57Z" fill="black"/>
<path d="M193.252 154.641L195.873 155.507C195.873 155.507 197.072 160.128 197.072 162.596C197.072 165.065 198.741 165.308 198.741 165.308C198.741 165.308 200.571 167.473 199.606 169.05C198.642 170.626 198.257 174.55 198.257 174.55C198.257 174.55 198.573 182.038 197.141 183.073C195.709 184.108 195.389 186.581 195.389 186.581C195.389 186.581 192.763 191.28 192.846 192.398C192.928 193.515 189.182 201.081 189.182 201.081C189.182 201.081 191.016 191.679 180.349 187.616C180.349 187.616 180.271 184.424 181.067 183.55C181.863 182.675 183.104 182.276 182.326 177.854C181.547 173.433 182.101 168.149 182.101 167.088C182.101 166.027 184.488 159.409 184.488 159.409L193.252 154.641Z" fill="white"/>
<path opacity="0.1" d="M135.354 311.797C135.354 311.797 139.532 309.169 142.275 311.078C145.017 312.988 135.354 311.797 135.354 311.797Z" fill="black"/>
<path opacity="0.1" d="M167.821 303.668C167.821 303.668 171.52 303.192 174.626 306.54C177.731 309.887 167.821 303.668 167.821 303.668Z" fill="black"/>
<g opacity="0.1">
<path d="M173.233 94.2196C172.701 94.6787 172.018 95.0078 171.663 95.6185C171.36 96.1425 171.352 96.7878 171.109 97.3509C170.867 97.9139 170.162 98.373 169.673 98.0178C169.561 94.12 167.64 90.4603 165.283 87.3421C164.624 86.401 163.823 85.5682 162.908 84.8734C161.982 84.1765 160.83 83.8506 159.677 83.9596C158.379 84.1372 157.237 85.0207 155.926 85.129C154.196 85.2762 152.643 84.0765 150.926 84.0159C150.228 84.0228 149.54 84.1791 148.907 84.4741C148.275 84.7692 147.712 85.1962 147.258 85.7266C146.355 86.793 145.684 88.0366 145.29 89.3776C144.61 91.4126 144.24 93.5383 144.191 95.6834C144.165 96.8918 144.053 98.3989 142.937 98.8494C142.963 99.1693 142.963 99.4909 142.937 99.8108C144.061 99.3777 144.174 97.8532 144.2 96.6406C144.248 94.4953 144.618 92.3696 145.298 90.3347C145.693 88.9924 146.363 87.7474 147.266 86.6794C147.722 86.1505 148.284 85.7247 148.917 85.4304C149.549 85.1362 150.237 84.9803 150.935 84.973C152.665 85.0337 154.222 86.229 155.935 86.0861C157.233 85.9778 158.383 85.09 159.685 84.9167C160.839 84.8078 161.991 85.1337 162.917 85.8306C163.831 86.5253 164.632 87.3581 165.291 88.2992C167.649 91.4131 169.569 95.0641 169.682 98.9706C170.171 99.3301 170.876 98.8624 171.118 98.308C171.36 97.7536 171.369 97.104 171.672 96.5756C172.026 95.965 172.71 95.6401 173.242 95.1811C174.592 94.016 174.929 92.0541 174.877 90.2741C174.877 90.2178 174.877 90.1615 174.877 90.1095C174.795 91.6513 174.384 93.2235 173.233 94.2196Z" fill="black"/>
<path d="M141.302 93.9121C140.307 92.8164 138.948 92.0844 138.036 90.9237C137.267 89.8962 136.828 88.6594 136.777 87.3767C136.641 88.9796 137.088 90.5777 138.036 91.8765C138.948 93.0416 140.307 93.7735 141.302 94.8692C142.257 95.941 142.83 97.2996 142.932 98.7324C142.999 97.8604 142.888 96.984 142.608 96.1557C142.328 95.3274 141.883 94.5643 141.302 93.9121Z" fill="black"/>
<path d="M175.72 80.837C175.465 81.8981 175.011 82.9072 174.803 83.9769C174.68 84.6917 174.635 85.4178 174.669 86.1424C174.684 85.7297 174.728 85.3185 174.803 84.9124C175.011 83.8383 175.465 82.8336 175.72 81.7725C175.869 81.1872 175.917 80.5809 175.863 79.9795C175.836 80.2684 175.788 80.555 175.72 80.837Z" fill="black"/>
</g>
<path opacity="0.1" d="M57.4146 329.407C80.6928 329.407 99.5636 326.372 99.5636 322.629C99.5636 318.886 80.6928 315.851 57.4146 315.851C34.1364 315.851 15.2656 318.886 15.2656 322.629C15.2656 326.372 34.1364 329.407 57.4146 329.407Z" fill="#6C63FF"/>
<path d="M58.7727 192.787H56.0605V253.927H58.7727V192.787Z" fill="#535461"/>
<path d="M75.8153 253.741L75.6466 256.496L75.4044 260.393L75.3049 262.013L75.067 265.911L74.9632 267.531L74.7209 271.429L71.9871 315.635C71.8683 317.537 71.0301 319.322 69.6431 320.627C68.256 321.932 66.4244 322.659 64.5211 322.659H50.307C48.4041 322.659 46.573 321.932 45.1867 320.626C43.8004 319.321 42.9631 317.536 42.8453 315.635L40.1245 271.398L39.8823 267.5L39.7828 265.881L39.5405 261.983L39.441 260.363L39.1988 256.465L39.0258 253.711C38.9957 253.181 39.0742 252.65 39.2563 252.151C39.4385 251.653 39.7205 251.196 40.085 250.811C40.4495 250.425 40.889 250.118 41.3763 249.908C41.8636 249.699 42.3885 249.591 42.9189 249.592H71.9914C72.5198 249.597 73.0416 249.71 73.5247 249.924C74.0078 250.138 74.4418 250.449 74.8002 250.838C75.1585 251.227 75.4334 251.685 75.608 252.184C75.7826 252.684 75.8532 253.213 75.8153 253.741Z" fill="#3F3D56"/>
<path d="M75.6467 256.496L75.4045 260.38H39.4239L39.1816 256.496H75.6467Z" fill="#9D9CB5"/>
<path d="M75.3051 262L75.0672 265.889H39.7657L39.5234 262H75.3051Z" fill="#9D9CB5"/>
<path d="M74.9634 267.513L74.7255 271.398H40.1075L39.8652 267.513H74.9634Z" fill="#9D9CB5"/>
<path d="M35.0421 215.702C50.835 227.145 57.4272 245.04 57.4272 245.04C57.4272 245.04 38.3944 244.386 22.5972 232.944C6.8 221.502 0.220703 203.61 0.220703 203.61C0.220703 203.61 19.2448 204.26 35.0421 215.702Z" fill="#6C63FF"/>
<path d="M0.208008 203.61C0.208008 203.61 19.9675 214.589 26.3046 223.68C32.6416 232.771 57.4275 245.04 57.4275 245.04" stroke="#535461" stroke-width="2" stroke-miterlimit="10"/>
<path d="M45.2372 192.653C53.8322 198.877 57.4268 208.617 57.4268 208.617C57.4268 208.617 47.0669 208.262 38.4675 202.038C29.8682 195.815 26.2822 186.07 26.2822 186.07C26.2822 186.07 36.6378 186.425 45.2372 192.653Z" fill="#6C63FF"/>
<path d="M26.2822 186.07C26.2822 186.07 37.0358 192.047 40.4833 196.993C43.9308 201.939 57.4268 208.617 57.4268 208.617" stroke="#535461" stroke-width="2" stroke-miterlimit="10"/>
<path d="M69.9061 208.123C60.0307 218.99 57.9414 233.191 57.9414 233.191C57.9414 233.191 71.8656 229.769 81.7324 218.899C91.5992 208.028 93.6971 193.831 93.6971 193.831C93.6971 193.831 79.7815 197.257 69.9061 208.123Z" fill="#6C63FF"/>
<path d="M93.7058 193.836C93.7058 193.836 80.8413 204.975 77.5711 212.649C74.301 220.324 57.9414 233.191 57.9414 233.191" stroke="#535461" stroke-width="2" stroke-miterlimit="10"/>
<path d="M432.421 204.299C432.421 204.299 425.279 168.725 428.013 164.299C428.013 164.299 428.112 160.184 427.948 154.939C427.948 154.74 427.948 154.541 427.948 154.337C428.429 154.658 428.93 154.948 429.449 155.204C431.968 156.499 434.859 156.873 437.624 156.26L435.461 153.848C434.942 153.272 434.402 152.648 434.289 151.886C434.177 151.124 434.488 150.444 434.756 149.764C436.811 144.567 436.919 138.031 432.961 134.064C429.618 130.729 428.804 126.424 425.175 123.38C422.523 121.149 421.066 117.88 419.69 114.718C418.527 112.046 417.354 109.352 416.688 106.519C416.169 104.306 415.961 102.015 415.248 99.8541C414.534 97.693 413.197 95.5925 411.108 94.6267C410.364 94.2846 409.538 94.0897 408.859 93.6349C407.968 93.0329 407.431 92.0541 406.787 91.1966C403.512 86.8657 392.547 89.4166 387.356 91.1749C385.945 91.6177 384.638 92.3426 383.515 93.3058L383.562 93.2278C383.601 93.1628 383.649 93.0979 383.692 93.0329C383.124 93.4929 382.633 94.0413 382.239 94.657C381.482 95.8567 381.166 97.2556 380.535 98.5549C379.773 100.092 375.538 104.384 377.359 106.112C377.487 106.228 377.633 106.322 377.792 106.39C378.476 106.674 379.228 106.75 379.955 106.606L379.877 106.792C379.255 108.317 378.936 109.948 378.938 111.595C378.938 118.711 384.8 124.48 392.036 124.48C393.397 124.481 394.749 124.272 396.046 123.861C396.077 124.025 396.102 124.19 396.133 124.354C396.133 124.419 396.154 124.484 396.163 124.549L395.934 124.87C395.922 124.85 395.909 124.831 395.895 124.813L389.104 134.315C388.065 135.047 382.087 139.378 381.75 142.627C381.395 146.182 381.041 150.344 381.041 150.344L380.993 151.236C380.696 151.485 380.349 151.666 379.976 151.767C379.602 151.867 379.212 151.886 378.83 151.821C376.711 151.475 376.711 159.617 376.711 159.617C376.711 159.617 375.3 160.916 374.332 159.79C373.363 158.664 370.802 162.48 370.802 162.48L354.754 163.172L354.386 163.194L353.521 160.513C353.428 160.231 353.227 159.996 352.962 159.861C352.697 159.725 352.39 159.7 352.106 159.79C352.039 159.812 351.974 159.84 351.912 159.872L351.851 159.907L351.739 159.985L351.683 160.037C351.652 160.065 351.623 160.095 351.596 160.128L351.544 160.188L351.518 160.214C351.418 160.353 351.352 160.512 351.325 160.681C351.298 160.849 351.311 161.022 351.362 161.185L352.106 163.484C349.009 164.108 345.843 165.866 348.425 170.708L335.336 168.287L339.571 171.847L361.433 176.365C361.143 176.884 361.333 177.638 362.237 178.699C366.13 183.277 373.224 184.52 376.079 184.84C376.833 186.529 377.775 188.127 378.886 189.604L378.64 194.165C378.64 194.165 371.412 228.925 370.088 230.688C370.756 229.929 371.368 229.123 371.918 228.275C369.82 235.417 366.887 245.192 366.117 246.656C364.88 248.994 363.734 258.457 365.144 259.064C365.576 259.25 366.814 259.159 368.578 259.025V259.809L368.501 289.515C368.501 289.515 368.855 307.735 367.882 309.472C366.909 311.208 366.649 314.851 366.649 314.851C366.649 314.851 362.756 322.036 359.672 324.924C359.651 324.947 359.628 324.967 359.603 324.985L359.508 324.309C359.508 324.309 355.801 328.995 347.599 328.731C347.599 328.731 342.664 331.945 349.983 332.118C357.302 332.291 366.649 331.858 366.649 331.858C366.649 331.858 373.177 321.897 378.644 323.196V330.745H380.318V323.075C381.095 322.563 381.759 321.899 382.271 321.123C382.784 320.346 383.133 319.474 383.299 318.558C383.442 317.614 383.337 316.649 382.994 315.758C382.651 314.867 382.082 314.081 381.343 313.478C381.011 313.177 380.745 312.811 380.561 312.403C380.377 311.994 380.28 311.552 380.275 311.104L380.214 311.156C380.214 311.005 380.175 310.849 380.158 310.689C379.678 306.791 379.077 298.748 381.201 292.798C384.112 284.638 384.994 273.274 382.875 266.509C382.191 264.346 381.629 262.147 381.192 259.921C381.14 259.64 381.093 259.371 381.049 259.12C382.498 259.316 383.933 259.606 385.345 259.986C390.254 261.342 400.995 261.593 410.165 261.519C410.187 261.771 410.213 262.035 410.243 262.299C410.406 264.135 410.748 265.951 411.264 267.721C412.414 271.186 412.942 286.461 412.942 286.461C412.942 286.461 414.426 299.021 413.617 304.132C413.184 306.973 412.752 309.827 412.505 312.694V312.75C412.505 312.75 410.074 319.68 408.296 323.443C408.253 323.539 408.206 323.634 408.162 323.725C407.688 323.768 407.222 323.871 406.774 324.032C406.774 324.032 404.39 328.796 402.016 329.585C399.641 330.373 400.428 332.967 405.805 332.014C411.182 331.061 419.301 330.282 419.301 330.282L419.651 325.422L421.304 323.352L420.871 328.199L422.632 327.852L422.398 321.958L425.102 318.571C425.102 318.571 428.367 315.661 423.514 309.935V310.061C423.462 309.978 423.415 309.892 423.358 309.809V309.783C422.554 308.536 421.914 306.21 423.086 302.083C425.205 294.625 426.438 287.856 426.438 287.856C426.438 287.856 431.17 269.722 425.482 261.143H425.733C425.15 259.935 424.738 258.653 424.509 257.331C424.48 257.176 424.454 257.015 424.431 256.851C428.64 256.608 432.771 255.846 436.141 254.2C436.128 254.183 434.099 211.151 432.421 204.299ZM378.986 174.286V174.372L378.121 174.416L378.986 174.286ZM376.019 174.697C375.876 174.729 375.743 174.792 375.629 174.883C375.257 175.41 375.024 176.022 374.95 176.663L373.601 176.36C373.601 176.36 372.653 176.157 371.291 175.927L370.646 175.277C372.42 175.13 374.262 174.914 376.019 174.697Z" fill="url(#paint1_linear_74_903)"/>
<path d="M420.672 322.018L420.157 328.155L421.883 327.809L421.624 321.152L420.672 322.018Z" fill="#1D2366"/>
<path d="M381.296 292.88C379.215 298.813 379.804 306.821 380.271 310.71C380.444 312.148 380.604 313.023 380.604 313.023C380.604 313.023 377.494 320.117 377.234 320.386C376.975 320.654 368.081 326.089 368.081 326.089L361.865 329.723C361.865 329.723 355.559 326.956 358.582 326.003C359.2 325.755 359.756 325.375 360.213 324.89C363.241 322.01 367.043 314.851 367.043 314.851C367.043 314.851 367.303 311.217 368.254 309.489C369.206 307.761 368.86 289.601 368.86 289.601L368.933 259.999V256.14L380.764 256.227C380.839 257.537 381.009 258.84 381.274 260.125C381.699 262.343 382.249 264.535 382.923 266.691C385.007 273.443 384.142 284.751 381.296 292.88Z" fill="#FFB0B1"/>
<path opacity="0.1" d="M380.604 313.023C380.604 313.023 377.494 320.117 377.234 320.386C376.975 320.654 368.081 326.089 368.081 326.089L361.865 329.723C361.865 329.723 355.559 326.956 358.582 326.003C359.2 325.755 359.756 325.375 360.213 324.89L360.481 326.782L362.553 326.696L380.288 310.719C380.444 312.148 380.604 313.023 380.604 313.023Z" fill="black"/>
<path d="M380.387 311.122L362.553 327.207L360.481 327.293L360.048 324.262C360.048 324.262 356.423 328.931 348.369 328.671C348.369 328.671 343.533 331.871 350.7 332.044C357.868 332.218 367.021 331.785 367.021 331.785C367.021 331.785 373.414 321.823 378.765 323.123V330.646H380.409V323.053C381.173 322.538 381.825 321.874 382.326 321.1C382.827 320.326 383.167 319.458 383.324 318.549C383.467 317.613 383.366 316.656 383.032 315.77C382.698 314.884 382.141 314.099 381.417 313.491C381.093 313.187 380.835 312.82 380.658 312.413C380.481 312.005 380.389 311.566 380.387 311.122Z" fill="#1D2366"/>
<path d="M422.316 302.131C421.165 306.245 421.793 308.562 422.58 309.805V309.831C423.59 311.366 424.292 313.082 424.648 314.885L424.717 315.275L416.602 327.12L412.198 328.853C412.198 328.853 405.117 326.432 406.411 325.739C406.735 325.57 407.241 324.669 407.821 323.426C409.551 319.68 411.939 312.767 411.939 312.767V312.711C412.19 309.857 412.588 307.012 413.029 304.179C413.821 299.082 412.367 286.57 412.367 286.57C412.367 286.57 411.848 271.355 410.723 267.895C410.216 266.135 409.878 264.331 409.716 262.507C409.482 260.341 409.43 258.557 409.43 258.557C409.43 258.557 414.093 252.061 422.641 259.077C423.324 259.636 423.925 260.29 424.427 261.017C430.332 269.428 425.578 287.956 425.578 287.956C425.578 287.956 424.388 294.694 422.316 302.131Z" fill="#FFB0B1"/>
<path opacity="0.1" d="M424.73 315.275L416.615 327.12L412.211 328.853C412.211 328.853 405.13 326.432 406.423 325.739C406.748 325.57 407.254 324.669 407.834 323.426C410.831 323.4 412.384 326.258 412.384 326.258L416.182 325.652C416.182 325.652 421.191 315.795 422.316 315.193C423.44 314.591 422.489 310.693 422.489 310.693V309.701C422.519 309.736 422.545 309.775 422.58 309.809V309.835C423.589 311.37 424.292 313.087 424.647 314.89L424.73 315.275Z" fill="black"/>
<path d="M412.644 326.514C412.644 326.514 410.481 322.538 406.337 324.006C406.337 324.006 404.005 328.77 401.674 329.541C399.342 330.312 400.121 332.911 405.389 331.962C410.658 331.014 418.6 330.23 418.6 330.23L418.946 325.384L424.301 318.554C424.301 318.554 427.493 315.656 422.744 309.952V310.944C422.744 310.944 423.696 314.842 422.571 315.444C421.446 316.046 416.454 325.908 416.454 325.908L412.644 326.514Z" fill="#1D2366"/>
<path opacity="0.1" d="M380.777 256.218C380.852 257.528 381.022 258.831 381.288 260.116C376.417 259.402 371.897 259.757 368.934 259.991V256.132L380.777 256.218Z" fill="black"/>
<path opacity="0.1" d="M424.907 262.095C424.907 262.095 417.986 262.433 409.733 262.503C409.499 260.337 409.447 258.553 409.447 258.553C409.447 258.553 414.11 252.056 422.658 259.073C423.341 259.632 423.943 260.285 424.444 261.013C424.578 261.382 424.733 261.743 424.907 262.095Z" fill="black"/>
<path d="M424.907 261.316C424.907 261.316 394.593 262.784 385.353 260.19C376.114 257.596 366.956 259.843 365.576 259.241C364.196 258.639 365.317 249.211 366.528 246.877C367.739 244.542 374.383 220.934 374.383 220.934L380.777 187.56L387.512 185.702L387.987 185.568L399.723 182.328L408.322 179.951C408.322 179.951 425.421 246.79 423.955 251.719C423.423 253.606 423.337 255.591 423.704 257.518C423.928 258.833 424.333 260.111 424.907 261.316Z" fill="#1D2366"/>
<path d="M358.491 164.736C358.491 164.736 352.435 171.232 357.021 174.853C361.606 178.474 364.621 175.2 364.621 175.2L358.491 164.736Z" fill="#C7DAF5"/>
<path opacity="0.1" d="M358.491 164.736C358.491 164.736 352.435 171.232 357.021 174.853C361.606 178.474 364.621 175.2 364.621 175.2L358.491 164.736Z" fill="black"/>
<path d="M407.418 122.024C407.418 122.024 406.709 122.7 405.64 123.696C404.118 125.121 401.864 127.204 399.866 128.949C397.097 131.362 394.813 133.133 395.631 131.622C396.448 130.11 396.293 127.477 395.886 125.013C395.856 124.848 395.83 124.683 395.8 124.523C395.463 122.713 395.016 120.926 394.463 119.17C394.463 119.17 398.936 113.384 401.41 111.102C402.331 110.235 402.976 109.88 403.015 110.482C403.058 111.292 403.664 113.081 404.416 114.978C404.438 115.038 404.459 115.095 404.485 115.155C404.987 116.455 405.554 117.789 406.051 118.941C406.813 120.708 407.418 122.024 407.418 122.024Z" fill="#FFB0B1"/>
<path opacity="0.1" d="M404.485 115.155C404.065 117.419 403.045 119.528 401.533 121.262C400.02 122.996 398.07 124.291 395.886 125.013C395.542 123.036 395.067 121.084 394.463 119.17C394.463 119.17 402.885 108.278 403.015 110.482C403.045 111.318 403.702 113.172 404.485 115.155Z" fill="black"/>
<path opacity="0.1" d="M395.048 127.923L396.138 126.385C396.138 126.385 396.86 130.794 399.516 128.85C402.172 126.905 402.302 143.484 402.302 143.484L399.451 186.157L378.853 184.922L379.436 164.303L381.768 153.909L387.534 138.798L390.964 133.804L395.048 127.923Z" fill="black"/>
<path d="M402.302 143.748L399.706 182.333L399.434 186.421L387.949 185.732L387.517 185.706L378.865 185.187L379.449 164.563L381.781 154.168L387.547 139.058L390.977 134.064L395.06 128.161L396.15 126.628C396.15 126.628 396.873 131.037 399.529 129.092L399.585 129.053C402.18 127.408 402.302 143.748 402.302 143.748Z" fill="#1D2366"/>
<path d="M382.07 150.556C382.07 150.556 381.037 152.722 378.96 152.371C376.884 152.02 376.888 160.167 376.888 160.167C376.888 160.167 375.508 161.466 374.557 160.34C373.605 159.214 371.096 163.021 371.096 163.021L355.377 163.714C355.377 163.714 362.372 166.914 361 176.598C361 176.598 384.748 175.126 385.527 172.878C386.305 170.63 382.07 150.556 382.07 150.556Z" fill="white"/>
<path opacity="0.03" d="M382.07 150.556C382.07 150.556 381.037 152.722 378.96 152.371C376.884 152.02 376.888 160.167 376.888 160.167C376.888 160.167 375.508 161.466 374.557 160.34C373.605 159.214 371.096 163.021 371.096 163.021L355.377 163.714C355.377 163.714 362.372 166.914 361 176.598C361 176.598 384.748 175.126 385.527 172.878C386.305 170.63 382.07 150.556 382.07 150.556Z" fill="black"/>
<path d="M336.388 168.803L340.532 172.345L374.644 179.522L370.413 175.2L336.388 168.803Z" fill="white"/>
<path d="M395.112 129.287C394.545 130.153 392.923 134.588 391.569 138.46C390.44 141.687 389.497 144.523 389.497 144.523C389.497 144.523 387.296 158.876 386.171 161.47C385.046 164.065 385.656 174.182 385.656 174.182L381.465 199.167C381.465 199.167 379.566 212.051 376.633 219.748C373.739 227.322 370.516 230.874 370.417 230.986C371.715 229.228 378.787 194.606 378.787 194.606L381.123 150.942C381.123 150.942 381.465 146.793 381.811 143.246C382.157 139.699 389.164 134.857 389.164 134.857L395.921 125.238C396.6 126.147 396.146 127.732 395.112 129.287Z" fill="white"/>
<path d="M377.494 185.403C377.494 185.403 367.545 184.97 362.726 179.175C357.907 173.381 373.865 176.863 373.865 176.863L378.013 177.815L377.494 185.403Z" fill="#FFB0B1"/>
<path opacity="0.1" d="M423.955 251.723C423.423 253.61 423.337 255.596 423.704 257.522C412.851 258.293 401.241 255.357 401.241 255.357C399.078 257.349 393.382 260.285 393.382 260.285L390.276 221.74C388.29 216.543 387.512 189.314 387.512 189.314C387.512 189.314 387.689 187.889 387.944 185.754C387.944 185.702 387.944 185.646 387.966 185.594C388.74 179.63 390.276 168.435 391.028 166.923C392.067 164.844 387.836 159.314 387.836 159.314L389.761 142.878L389.995 140.894C394.052 139.079 397.162 133.285 397.162 133.285L399.55 129.097C402.145 127.429 402.279 143.77 402.279 143.77L399.684 182.354L408.283 179.977C408.283 179.977 425.422 246.794 423.955 251.723Z" fill="black"/>
<path d="M435.094 254.386C423.264 260.268 401.761 254.82 401.761 254.82C399.598 256.812 393.901 259.748 393.901 259.748L390.791 221.203C388.81 216.006 388.031 188.777 388.031 188.777C388.031 188.777 390.531 168.461 391.57 166.386C391.872 165.78 391.725 164.879 391.366 163.909C389.601 159.291 388.952 154.321 389.472 149.404L390.302 142.341L390.531 140.361C394.593 138.542 397.703 132.748 397.703 132.748L399.866 128.954L403.846 121.964L405.732 118.655L406.052 118.945L408.496 121.162C408.496 121.162 409.534 122.029 411.091 123.328C414.478 126.186 420.331 131.219 423.35 134.298C426.006 137.009 426.845 147.555 427.087 155.494C427.247 160.721 427.152 164.818 427.152 164.818C424.475 169.231 431.478 204.663 431.478 204.663C433.109 211.51 435.094 254.386 435.094 254.386Z" fill="white"/>
<path opacity="0.03" d="M412.385 132.661C412.385 132.661 404.266 148.135 405.209 154.017C406.152 159.898 408.833 166.555 407.54 168.11C407.096 168.699 406.521 169.177 405.862 169.507C405.202 169.837 404.475 170.009 403.738 170.011C402.44 170.098 398.98 172.519 398.98 172.779C398.98 173.038 395.783 173.038 392.924 174.251C390.065 175.464 385.843 176.152 385.843 176.152C385.843 176.152 377.624 175.892 376.858 176.672C376.093 177.452 375.305 182.116 376.945 185.836C378.584 189.557 380.405 192.333 381.781 192.839C383.157 193.346 391.886 190.418 398.967 189.726C406.048 189.033 413.734 183.415 413.734 183.415C413.734 183.415 422.2 180.384 423.683 175.286C425.167 170.189 421.871 142.172 421.871 142.172C421.871 142.172 419.379 129.114 412.385 132.661Z" fill="black"/>
<path opacity="0.03" d="M411.346 131.362C411.346 131.362 403.227 146.841 404.178 152.718C405.13 158.595 407.803 165.256 406.506 166.815C406.063 167.405 405.489 167.883 404.83 168.213C404.171 168.543 403.444 168.715 402.708 168.716C401.41 168.803 397.949 171.224 397.949 171.484C397.949 171.743 394.753 171.743 391.894 172.952C389.034 174.16 384.812 174.853 384.812 174.853C384.812 174.853 376.594 174.593 375.832 175.373C375.071 176.152 374.275 180.821 375.919 184.537C377.563 188.253 379.379 191.033 380.755 191.54C382.131 192.047 390.86 189.119 397.941 188.431C405.022 187.742 412.708 182.116 412.708 182.116C412.708 182.116 421.169 179.084 422.636 173.991C424.102 168.898 420.823 140.872 420.823 140.872C420.823 140.872 418.34 127.819 411.346 131.362Z" fill="black"/>
<path d="M412.129 131.881C412.129 131.881 404.01 147.36 404.962 153.237C405.913 159.114 408.586 165.775 407.293 167.33C406.85 167.921 406.276 168.401 405.616 168.732C404.956 169.063 404.229 169.235 403.491 169.236C402.193 169.322 398.733 171.743 398.733 171.999C398.733 172.254 395.54 172.259 392.677 173.471C389.813 174.684 385.596 175.373 385.596 175.373C385.596 175.373 377.377 175.113 376.611 175.892C375.846 176.672 375.058 181.341 376.698 185.057C378.337 188.773 380.158 191.553 381.534 192.06C382.909 192.567 391.639 189.639 398.72 188.946C405.801 188.253 413.487 182.636 413.487 182.636C413.487 182.636 421.953 179.604 423.436 174.507C424.92 169.409 421.645 141.392 421.645 141.392C421.645 141.392 419.119 128.356 412.129 131.881Z" fill="white"/>
<path opacity="0.1" d="M411.952 173.398C411.952 173.398 405.463 172.099 407.721 174.264C409.979 176.43 409.966 178.326 412.73 178.24C415.495 178.153 411.952 173.398 411.952 173.398Z" fill="black"/>
<path opacity="0.1" d="M422.918 219.99C422.918 219.99 419.985 221.978 425.595 226.56C431.205 231.142 422.918 219.99 422.918 219.99Z" fill="black"/>
<path opacity="0.1" d="M417.32 236.331C417.32 236.591 416.282 245.859 420.167 248.176C424.051 250.493 417.32 236.331 417.32 236.331Z" fill="black"/>
<path d="M355.645 163.692C352.513 163.8 345.748 164.758 349.256 171.31C352.357 177.109 357.57 173.233 360.503 170.293C359.787 167.551 358.049 165.188 355.645 163.692Z" fill="#FFB0B1"/>
<path opacity="0.1" d="M411.091 123.592C407.769 125.866 404.983 127.784 404.438 128.183C402.95 129.287 400.112 135.771 398.283 139.079C396.825 141.743 392.088 142.427 390.302 142.596L390.531 140.617C394.593 138.798 397.703 133.003 397.703 133.003L405.731 118.91L408.495 121.427C408.495 121.427 409.534 122.293 411.091 123.592Z" fill="black"/>
<path d="M411.091 123.332C407.769 125.606 404.983 127.525 404.438 127.927C402.95 129.027 400.112 135.511 398.283 138.82C396.825 141.483 392.088 142.167 390.302 142.336L390.531 140.357C394.593 138.538 397.703 132.743 397.703 132.743L405.731 118.65L408.495 121.158C408.495 121.158 409.534 122.016 411.091 123.332Z" fill="#DCE7FF"/>
<path d="M404.698 112.297C404.7 114.897 403.912 117.436 402.44 119.577C400.701 122.109 398.113 123.933 395.146 124.718C392.179 125.504 389.029 125.198 386.268 123.856C383.506 122.515 381.317 120.227 380.096 117.408C378.876 114.588 378.705 111.424 379.615 108.49C380.525 105.555 382.456 103.044 385.057 101.413C387.658 99.7819 390.757 99.1381 393.791 99.5987C396.825 100.059 399.594 101.594 401.595 103.924C403.597 106.253 404.697 109.224 404.698 112.297Z" fill="#FFB0B1"/>
<path opacity="0.1" d="M427.087 155.498C425.33 154.416 423.9 152.877 422.947 151.046C422.225 149.617 421.745 147.967 420.512 146.953C419.4 146.044 417.917 145.823 416.532 145.416C411.982 144.069 408.167 139.911 408.024 135.164C407.955 132.93 408.651 130.699 408.335 128.486C408.156 127.233 407.658 126.048 406.891 125.043C406.509 124.562 406.091 124.112 405.64 123.696C405.035 123.124 404.399 122.57 403.845 121.964C403.496 121.588 403.192 121.174 402.937 120.729C402.731 120.365 402.564 119.981 402.439 119.582C401.574 116.931 402.362 113.787 401.41 111.106L401.358 110.959C400.999 110.006 400.268 109.053 399.251 108.979C398.235 108.906 397.365 109.75 396.397 110.127C394.368 110.915 392.179 109.573 390.488 108.204C388.796 106.836 386.889 105.272 384.739 105.575C383.316 105.779 382.191 106.749 380.88 107.251C380.585 107.366 380.279 107.454 379.968 107.516C381.077 104.746 383.115 102.45 385.731 101.021C388.348 99.5923 391.38 99.1206 394.306 99.6869C397.232 100.253 399.87 101.822 401.766 104.124C403.662 106.426 404.699 109.317 404.697 112.301C404.699 113.202 404.605 114.101 404.416 114.982C404.438 115.043 404.46 115.099 404.485 115.16C404.987 116.459 405.554 117.793 406.051 118.945L408.495 121.162C408.495 121.162 409.533 122.029 411.091 123.328C414.478 126.186 420.33 131.219 423.35 134.298C426.005 137.018 426.836 147.559 427.087 155.498Z" fill="black"/>
<path d="M380.729 99.3388C381.348 98.0785 381.655 96.6666 382.394 95.4712C383.48 93.7389 385.375 92.6301 387.321 91.9588C392.404 90.2048 403.145 87.6582 406.354 91.9588C406.986 92.825 407.509 93.7865 408.383 94.3842C409.049 94.8389 409.854 95.0338 410.585 95.376C412.631 96.3374 413.937 98.4336 414.633 100.573C415.33 102.713 415.537 105.008 416.048 107.212C416.701 110.041 417.847 112.721 418.989 115.385C420.335 118.529 421.762 121.79 424.357 124.012C427.9 127.044 428.683 131.336 431.971 134.662C435.864 138.612 435.738 145.13 433.731 150.305C433.467 150.985 433.169 151.695 433.273 152.419C433.376 153.142 433.913 153.8 434.419 154.376L436.547 156.78C431.512 157.997 425.815 155.364 423.471 150.743C422.748 149.313 422.268 147.668 421.031 146.65C419.924 145.74 418.436 145.524 417.056 145.117C412.505 143.766 408.69 139.604 408.547 134.857C408.478 132.626 409.174 130.396 408.859 128.187C408.683 126.926 408.184 125.732 407.41 124.722C406.22 123.168 404.425 122.124 403.456 120.391C401.817 117.494 403.062 113.73 401.881 110.621C401.518 109.668 400.791 108.715 399.775 108.642C398.758 108.568 397.889 109.413 396.916 109.789C394.891 110.578 392.702 109.239 391.011 107.866C389.32 106.493 387.412 104.934 385.258 105.242C383.835 105.441 382.715 106.411 381.404 106.918C380.435 107.29 378.471 107.624 377.623 106.805C375.832 105.155 379.981 100.881 380.729 99.3388Z" fill="#591D4B"/>
<path opacity="0.1" d="M424.674 149.313C423.947 147.884 423.471 146.239 422.234 145.225C421.127 144.316 419.639 144.095 418.254 143.688C413.708 142.341 409.893 138.179 409.746 133.432C409.677 131.201 410.373 128.967 410.062 126.758C409.881 125.505 409.382 124.32 408.613 123.315C407.419 121.76 405.624 120.716 404.659 118.984C403.02 116.091 404.265 112.327 403.08 109.213C402.721 108.265 401.99 107.312 400.978 107.234C399.966 107.156 399.088 108.009 398.119 108.386C396.094 109.174 393.901 107.832 392.214 106.463C390.527 105.095 388.611 103.531 386.461 103.834C385.038 104.038 383.913 105.008 382.607 105.51C381.638 105.883 379.67 106.221 378.822 105.402C377.04 103.67 381.188 99.4037 381.932 97.8706C382.551 96.6059 382.858 95.1984 383.602 94.0031C383.641 93.9381 383.684 93.8731 383.727 93.8082C383.171 94.2698 382.69 94.8164 382.304 95.4279C381.564 96.6233 381.257 98.0265 380.639 99.2955C379.89 100.829 375.742 105.108 377.529 106.827C378.394 107.65 380.34 107.312 381.309 106.94C382.607 106.433 383.74 105.463 385.163 105.263C387.326 104.956 389.229 106.519 390.916 107.888C392.603 109.257 394.81 110.599 396.825 109.811C397.794 109.434 398.642 108.585 399.68 108.663C400.718 108.741 401.41 109.69 401.787 110.643C402.968 113.752 401.722 117.516 403.361 120.413C404.33 122.115 406.125 123.181 407.315 124.744C408.089 125.754 408.588 126.948 408.764 128.209C409.08 130.418 408.383 132.648 408.453 134.878C408.595 139.642 412.411 143.787 416.961 145.138C418.332 145.546 419.829 145.762 420.936 146.672C422.178 147.689 422.667 149.335 423.376 150.764C425.721 155.385 431.417 158.019 436.452 156.802L435.449 155.667C431.084 155.732 426.668 153.246 424.674 149.313Z" fill="black"/>
<path opacity="0.1" d="M394.852 129.547C394.286 130.413 392.664 134.848 391.31 138.72C390.042 138.226 388.892 135.078 388.892 135.078L395.648 125.454C396.34 126.407 395.886 127.988 394.852 129.547Z" fill="black"/>
<path d="M395.112 129.287C394.545 130.153 392.923 134.588 391.569 138.46C390.302 137.971 389.151 134.818 389.151 134.818L395.908 125.199C396.6 126.147 396.146 127.732 395.112 129.287Z" fill="#DCE7FF"/>
<path d="M355.827 173.532L352.081 161.704C352.037 161.566 352.02 161.42 352.032 161.275C352.044 161.13 352.085 160.989 352.152 160.86C352.218 160.731 352.31 160.616 352.421 160.522C352.532 160.429 352.661 160.358 352.799 160.314C353.078 160.227 353.38 160.254 353.639 160.388C353.898 160.523 354.094 160.755 354.183 161.033L357.929 172.848L357.557 175.321L355.827 173.532Z" fill="#BE8B87"/>
<path opacity="0.1" d="M352.435 160.665C352.715 160.576 353.018 160.602 353.278 160.737C353.538 160.872 353.734 161.104 353.824 161.384L357.57 173.199L357.289 175.052L357.561 175.338L357.933 172.865L354.166 161.05C354.076 160.772 353.881 160.54 353.621 160.406C353.362 160.271 353.06 160.244 352.781 160.331C352.547 160.408 352.344 160.56 352.206 160.764C352.28 160.725 352.356 160.692 352.435 160.665Z" fill="white"/>
<path d="M355.827 173.532L357.929 172.865L357.622 174.892L357.557 175.338L356.943 174.697L355.827 173.532Z" fill="#EFC8C4"/>
<path d="M356.942 174.697C356.979 174.651 357.025 174.612 357.076 174.585C357.107 174.565 357.142 174.555 357.178 174.555C357.214 174.555 357.249 174.565 357.28 174.585C357.309 174.62 357.334 174.659 357.353 174.701C357.382 174.749 357.421 174.79 357.467 174.821C357.514 174.851 357.566 174.871 357.622 174.879L357.557 175.312L356.942 174.697Z" fill="#727A9C"/>
<path d="M352.06 165.905C352.06 165.905 359.573 165.862 357.804 169.063C356.035 172.263 353.271 172.649 353.271 172.649L352.06 165.905Z" fill="#FFB0B1"/>
<path d="M305.329 22.2697H305.005C292.097 22.2697 280.682 29.1082 274.116 39.1993C267.549 29.1082 256.134 22.2697 243.226 22.2697H242.902C233.215 22.3621 223.956 26.2784 217.137 33.1675C210.318 40.0566 206.49 49.3618 206.484 59.061C206.484 71.1054 211.753 88.1952 222.026 102.258C241.6 129.053 274.116 152.497 274.116 152.497C274.116 152.497 306.631 129.058 326.201 102.258C336.478 88.1952 341.743 71.1054 341.743 59.061C341.737 49.3626 337.91 40.058 331.092 33.169C324.273 26.28 315.016 22.3632 305.329 22.2697ZM300.688 104.319C299.218 104.314 297.784 103.863 296.574 103.027C295.365 102.191 294.436 101.008 293.91 99.6333H286.193C285.685 99.6301 285.19 99.4681 284.778 99.17C284.367 98.8718 284.058 98.4524 283.896 97.9702L281.525 90.8198L274.025 117.061C273.879 117.566 273.573 118.01 273.153 118.326C272.734 118.643 272.223 118.814 271.698 118.815H271.546C270.998 118.788 270.476 118.574 270.066 118.209C269.657 117.843 269.385 117.348 269.297 116.805L261.567 70.2565L255.918 97.8013C255.788 98.3245 255.487 98.7893 255.063 99.1213C254.639 99.4534 254.116 99.6336 253.578 99.6333H242.707C242.381 99.6471 242.056 99.5947 241.751 99.4794C241.446 99.3641 241.167 99.1881 240.932 98.9622C240.696 98.7362 240.509 98.4649 240.381 98.1645C240.253 97.8642 240.187 97.541 240.187 97.2144C240.187 96.8879 240.253 96.5647 240.381 96.2644C240.509 95.964 240.696 95.6927 240.932 95.4667C241.167 95.2407 241.446 95.0648 241.751 94.9495C242.056 94.8341 242.381 94.7818 242.707 94.7956H251.674L259.677 57.7617C259.808 57.2142 260.125 56.7294 260.574 56.3901C261.023 56.0508 261.576 55.8782 262.138 55.9017C262.7 55.9252 263.236 56.1435 263.655 56.5191C264.074 56.8947 264.35 57.4044 264.435 57.961L272.329 105.445L279.051 81.9674C279.191 81.4729 279.487 81.037 279.895 80.7248C280.303 80.4126 280.8 80.2407 281.314 80.235H281.361C281.869 80.2351 282.365 80.396 282.776 80.6946C283.188 80.9933 283.495 81.4144 283.654 81.8981L287.94 94.8086H293.815C294.232 93.5382 294.992 92.408 296.011 91.5428C297.03 90.6775 298.267 90.1109 299.587 89.9055C300.907 89.7001 302.258 89.8638 303.491 90.3785C304.724 90.8933 305.791 91.7391 306.574 92.8227C307.357 93.9062 307.826 95.1853 307.929 96.5188C308.032 97.8523 307.765 99.1884 307.157 100.379C306.55 101.571 305.625 102.571 304.486 103.269C303.347 103.967 302.037 104.337 300.701 104.337L300.688 104.319Z" fill="#6C63FF"/>
<g clip-path="url(#clip1_74_903)">
<path d="M257.698 327.12C258.79 332.38 265.017 325.914 265.017 325.914L272.445 325.038C272.445 325.038 277.142 325.147 280.2 327.558C283.259 329.969 285.334 326.791 285.334 326.791C288.78 327.944 293.002 327.939 296.658 327.57C301.927 327.038 306.15 322.958 306.874 317.696C310.959 288.009 288.502 273.42 288.502 273.42L281.948 255.666C281.948 255.666 284.024 250.515 284.679 245.912C285.334 241.309 280.528 236.926 274.629 232.542C272.049 230.624 269.092 230.762 266.582 231.524C263.766 232.379 261.31 234.136 259.495 236.459C257.991 238.383 255.412 241.109 252.577 241.581C251.596 241.743 250.628 242.133 249.724 242.844C248.789 243.578 248.376 244.803 248.363 246.326C248.293 252.981 253.77 260.992 258.572 262.241C264.471 263.776 261.303 278.351 261.303 278.351C251.69 291.941 258.463 307.065 258.463 307.065L256.715 319.339C256.715 319.339 256.606 321.86 257.698 327.12Z" fill="#3F3D56"/>
<path d="M289.813 298.845L287.41 328.873C287.41 328.873 290.687 337.202 279.545 336.764C268.403 336.326 274.957 319.229 274.957 319.229L278.452 296.873" fill="#3F3D56"/>
<path d="M280.374 337C280.102 337 279.823 336.994 279.536 336.983C277.07 336.886 275.254 335.975 274.138 334.274C270.948 329.412 274.496 319.829 274.745 319.173L278.237 296.839C278.255 296.719 278.366 296.638 278.486 296.656C278.606 296.675 278.687 296.787 278.668 296.907L275.173 319.263C275.17 319.279 275.167 319.294 275.161 319.308C275.123 319.407 271.392 329.293 274.503 334.034C275.537 335.609 277.236 336.454 279.553 336.545C283.191 336.688 285.638 335.909 286.828 334.229C288.384 332.031 287.218 328.984 287.206 328.954C287.194 328.923 287.189 328.889 287.192 328.856L289.595 298.828C289.605 298.707 289.708 298.619 289.83 298.627C289.951 298.637 290.04 298.742 290.031 298.863L287.631 328.842C287.79 329.272 288.785 332.218 287.186 334.48C286.003 336.154 283.713 337 280.374 337Z" fill="#2F2E41"/>
<path d="M269.932 304.982C269.932 304.982 270.588 332.819 256.824 332.161C243.061 331.504 255.513 322.736 255.513 322.736L256.715 319.339" fill="#3F3D56"/>
<path d="M257.296 332.392C257.137 332.392 256.976 332.388 256.814 332.38C252.884 332.192 250.663 331.309 250.214 329.755C249.405 326.954 254.679 323.065 255.33 322.598L256.509 319.266C256.549 319.151 256.674 319.092 256.788 319.132C256.901 319.173 256.961 319.298 256.921 319.412L255.719 322.81C255.704 322.853 255.676 322.89 255.639 322.916C255.581 322.956 249.876 327.011 250.634 329.633C251.025 330.987 253.112 331.764 256.834 331.942C259.314 332.062 261.487 331.225 263.29 329.459C270.052 322.836 269.718 305.165 269.714 304.988C269.711 304.867 269.806 304.766 269.927 304.763C270.041 304.763 270.148 304.856 270.151 304.977C270.168 305.711 270.494 323.016 263.596 329.772C261.82 331.512 259.703 332.392 257.296 332.392Z" fill="#2F2E41"/>
<path d="M248.363 246.326C249.932 246.515 252.387 246.506 254.421 245.145C256.6 243.687 254.338 242.329 252.578 241.581C251.597 241.743 250.629 242.133 249.724 242.844C248.789 243.578 248.376 244.803 248.363 246.326Z" fill="#2F2E41"/>
<path d="M273.711 242.385C273.711 242.385 269.899 232.562 275.359 232.425C280.819 232.287 285.132 240.8 285.132 240.8C285.132 240.8 298.836 265.862 280.06 264.51C261.285 263.159 270.257 253.154 270.257 253.154C270.257 253.154 274.539 247.872 273.711 242.385Z" fill="#2F2E41"/>
<path d="M294.627 315.792C297.045 316.871 299.572 317.972 302.216 317.867C304.86 317.761 307.643 316.053 308.055 313.43C308.268 312.076 307.846 310.624 308.363 309.355C309.058 307.648 311.3 306.989 313.044 307.574C314.787 308.159 316.067 309.668 316.986 311.266C318.703 314.255 319.392 318.177 317.55 321.091C315.953 323.617 312.925 324.758 310.108 325.737C306.355 327.041 302.166 328.336 298.53 326.734C294.873 325.123 292.882 320.469 294.236 316.699" fill="#3F3D56"/>
<path d="M286.561 268.463C286.561 268.463 291.367 270.874 288.964 273.505C286.561 276.135 271.705 283.587 266.243 282.491C260.782 281.395 259.471 278.107 259.471 277.231C259.471 276.354 259.883 265.748 261.63 266.187C263.378 266.625 274.327 276.573 286.561 268.463Z" fill="#6C63FF"/>
</g>
</g>
<defs>
<linearGradient id="paint0_linear_74_903" x1="154.136" y1="335.592" x2="154.136" y2="69.0915" gradientUnits="userSpaceOnUse">
<stop stop-color="#808080" stop-opacity="0.25"/>
<stop offset="0.54" stop-color="#808080" stop-opacity="0.12"/>
<stop offset="1" stop-color="#808080" stop-opacity="0.1"/>
</linearGradient>
<linearGradient id="paint1_linear_74_903" x1="386.465" y1="332.222" x2="386.465" y2="88.8233" gradientUnits="userSpaceOnUse">
<stop stop-color="#808080" stop-opacity="0.25"/>
<stop offset="0.54" stop-color="#808080" stop-opacity="0.12"/>
<stop offset="1" stop-color="#808080" stop-opacity="0.1"/>
</linearGradient>
<clipPath id="clip0_74_903">
<rect width="478" height="339" fill="white"/>
</clipPath>
<clipPath id="clip1_74_903">
<rect width="194" height="106" fill="white" transform="translate(169 231)"/>
</clipPath>
</defs>
</svg>
