<svg width="20" height="20" viewBox="0 0 20 20" fill="none" xmlns="http://www.w3.org/2000/svg">
<g clip-path="url(#clip0_74_1125)">
<path d="M9.99993 11.875C9.85716 11.8792 9.71727 11.8343 9.60355 11.7479C9.48983 11.6614 9.40915 11.5387 9.37493 11.4L8.43118 7.61249C8.37475 7.37624 8.37418 7.13008 8.42951 6.89357C8.48484 6.65705 8.59455 6.4367 8.74993 6.24999C8.89981 6.0624 9.09 5.91095 9.30639 5.80687C9.52277 5.70279 9.75981 5.64874 9.99993 5.64874C10.24 5.64874 10.4771 5.70279 10.6935 5.80687C10.9099 5.91095 11.1 6.0624 11.2499 6.24999C11.4009 6.44012 11.5055 6.66282 11.5554 6.9004C11.6053 7.13799 11.5991 7.38394 11.5374 7.61874L10.6249 11.4C10.5907 11.5387 10.51 11.6614 10.3963 11.7479C10.2826 11.8343 10.1427 11.8792 9.99993 11.875ZM9.99993 6.87499C9.94648 6.8745 9.89367 6.8867 9.84586 6.91061C9.79805 6.93451 9.7566 6.96943 9.72493 7.01249C9.69064 7.0535 9.667 7.10234 9.6561 7.15466C9.6452 7.20699 9.64737 7.2612 9.66243 7.31249L9.99993 8.67499L10.3374 7.31249C10.3525 7.2612 10.3547 7.20699 10.3438 7.15466C10.3329 7.10234 10.3092 7.0535 10.2749 7.01249C10.2433 6.96943 10.2018 6.93451 10.154 6.91061C10.1062 6.8867 10.0534 6.8745 9.99993 6.87499Z" fill="black"/>
<path d="M10 14.375C10.5178 14.375 10.9375 13.9553 10.9375 13.4375C10.9375 12.9197 10.5178 12.5 10 12.5C9.48223 12.5 9.0625 12.9197 9.0625 13.4375C9.0625 13.9553 9.48223 14.375 10 14.375Z" fill="black"/>
<path d="M10 18.125C8.39303 18.125 6.82214 17.6485 5.486 16.7557C4.14985 15.8629 3.10844 14.594 2.49348 13.1093C1.87852 11.6247 1.71762 9.99099 2.03112 8.4149C2.34463 6.8388 3.11846 5.39106 4.25476 4.25476C5.39106 3.11846 6.8388 2.34463 8.4149 2.03112C9.99099 1.71762 11.6247 1.87852 13.1093 2.49348C14.594 3.10844 15.8629 4.14985 16.7557 5.486C17.6485 6.82214 18.125 8.39303 18.125 10C18.125 12.1549 17.269 14.2215 15.7452 15.7452C14.2215 17.269 12.1549 18.125 10 18.125ZM10 3.125C8.64026 3.125 7.31105 3.52822 6.18046 4.28365C5.04987 5.03908 4.16868 6.11281 3.64833 7.36906C3.12798 8.6253 2.99183 10.0076 3.2571 11.3412C3.52238 12.6749 4.17716 13.8999 5.13864 14.8614C6.10013 15.8228 7.32514 16.4776 8.65876 16.7429C9.99238 17.0082 11.3747 16.872 12.631 16.3517C13.8872 15.8313 14.9609 14.9501 15.7164 13.8195C16.4718 12.689 16.875 11.3597 16.875 10C16.875 8.17664 16.1507 6.42796 14.8614 5.13864C13.5721 3.84933 11.8234 3.125 10 3.125Z" fill="black"/>
</g>
<defs>
<clipPath id="clip0_74_1125">
<rect width="20" height="20" fill="white"/>
</clipPath>
</defs>
</svg>
