<svg width="541" height="309" viewBox="0 0 541 309" fill="none" xmlns="http://www.w3.org/2000/svg">
<g clip-path="url(#clip0_495_2)">
<path d="M88.9248 140.498V53.6584C88.9248 52.4183 89.4176 51.229 90.2947 50.352C91.1719 49.4751 92.3615 48.9825 93.602 48.9825C94.8425 48.9825 96.0321 49.4751 96.9092 50.352C97.7864 51.229 98.2792 52.4183 98.2792 53.6584V140.498C98.2792 141.738 97.7864 142.927 96.9092 143.804C96.0321 144.681 94.8425 145.174 93.602 145.174C92.3615 145.174 91.1719 144.681 90.2947 143.804C89.4176 142.927 88.9248 141.738 88.9248 140.498Z" fill="#F0F0F0"/>
<path d="M77.7334 140.498V53.6584C77.7334 52.4183 78.2262 51.229 79.1033 50.352C79.9805 49.4751 81.1701 48.9825 82.4106 48.9825C83.651 48.9825 84.8407 49.4751 85.7178 50.352C86.595 51.229 87.0878 52.4183 87.0878 53.6584V140.498C87.0878 141.738 86.595 142.927 85.7178 143.804C84.8407 144.681 83.651 145.174 82.4106 145.174C81.1701 145.174 79.9805 144.681 79.1033 143.804C78.2262 142.927 77.7334 141.738 77.7334 140.498Z" fill="#F0F0F0"/>
<path d="M66.541 140.498V53.6584C66.541 52.4183 67.0338 51.229 67.9109 50.352C68.7881 49.4751 69.9777 48.9825 71.2182 48.9825C72.4587 48.9825 73.6483 49.4751 74.5255 50.352C75.4026 51.229 75.8954 52.4183 75.8954 53.6584V140.498C75.8954 141.738 75.4026 142.927 74.5255 143.804C73.6483 144.681 72.4587 145.174 71.2182 145.174C69.9777 145.174 68.7881 144.681 67.9109 143.804C67.0338 142.927 66.541 141.738 66.541 140.498Z" fill="#F0F0F0"/>
<path d="M489.095 279.198C487.211 279.199 485.341 278.875 483.568 278.239L483.295 278.141L483.421 277.536C480.246 271.123 481.356 262.337 486.263 255.113C490.724 248.546 497.507 243.771 503.492 239.559C504.252 239.025 505.154 238.73 506.082 238.712C507.011 238.694 507.923 238.955 508.703 239.46C509.482 239.964 510.092 240.691 510.456 241.545C510.819 242.4 510.918 243.343 510.74 244.255L508.6 255.232C507.056 263.152 505.218 270.647 499.769 275.321C496.776 277.825 492.997 279.197 489.095 279.198Z" fill="#E6E6E6"/>
<path d="M503.11 298.167C501.037 298.155 499 297.626 497.184 296.626C495.368 295.627 493.83 294.19 492.711 292.446L492.556 292.204L492.926 291.878C493.883 286.656 498.386 282.002 504.433 280.001C509.929 278.182 515.996 278.48 521.346 278.741C522.053 278.776 522.733 279.019 523.302 279.441C523.87 279.862 524.3 280.443 524.538 281.11C524.776 281.776 524.811 282.498 524.638 283.184C524.465 283.87 524.092 284.489 523.566 284.963L517.547 290.395C513.174 294.341 508.812 297.904 503.55 298.159C503.403 298.165 503.256 298.168 503.11 298.167Z" fill="#E6E6E6"/>
<path d="M484.431 303.974C483.543 297.357 482.629 290.655 483.252 283.968C483.806 278.028 485.579 272.227 489.188 267.471C491.095 264.959 493.427 262.8 496.077 261.091C496.766 260.646 497.4 261.762 496.714 262.204C492.119 265.186 488.585 269.545 486.617 274.656C484.419 280.37 484.066 286.6 484.445 292.67C484.674 296.341 485.159 299.988 485.649 303.631C485.688 303.794 485.664 303.966 485.583 304.113C485.501 304.26 485.367 304.371 485.208 304.424C485.127 304.446 485.043 304.451 484.96 304.44C484.878 304.429 484.798 304.402 484.726 304.36C484.654 304.318 484.591 304.263 484.54 304.196C484.49 304.13 484.453 304.054 484.431 303.974Z" fill="#F2F2F2"/>
<path d="M481.92 307.777C486.198 300.041 491.16 291.443 500.027 288.695C502.489 287.934 505.076 287.661 507.642 287.891C508.451 287.962 508.249 289.236 507.442 289.165C503.131 288.803 498.829 289.966 495.288 292.451C491.861 294.835 489.193 298.15 486.935 301.664C485.551 303.817 484.312 306.061 483.073 308.303C482.677 309.019 481.519 308.502 481.92 307.777Z" fill="#F2F2F2"/>
<path d="M479.994 307.664L484.314 307.763L458.268 168.661L453.949 169.474L460.75 205.559H438.838L445.639 169.474L441.32 168.661L415.492 307.763L419.594 307.664L433.173 235.619H466.415L479.994 307.664ZM434.18 230.275L437.831 210.903H461.757L465.408 230.275H434.18Z" fill="#CACACA"/>
<path d="M291.38 142.714V97.0324C291.38 95.6761 293.478 94.5727 296.057 94.5727C298.636 94.5727 300.734 95.6761 300.734 97.0324V142.714C300.734 144.07 298.636 145.173 296.057 145.173C293.478 145.173 291.38 144.07 291.38 142.714Z" fill="#F0F0F0"/>
<path d="M280.188 142.714V97.0324C280.188 95.6761 282.287 94.5727 284.866 94.5727C287.445 94.5727 289.543 95.6761 289.543 97.0324V142.714C289.543 144.07 287.445 145.173 284.866 145.173C282.287 145.173 280.188 144.07 280.188 142.714Z" fill="#F0F0F0"/>
<path d="M268.996 142.714V97.0324C268.996 95.6761 271.094 94.5727 273.673 94.5727C276.252 94.5727 278.35 95.6761 278.35 97.0324V142.714C278.35 144.07 276.252 145.173 273.673 145.173C271.094 145.173 268.996 144.07 268.996 142.714Z" fill="#F0F0F0"/>
<path d="M363.151 109.12C363.131 108.981 363.081 108.848 363.005 108.73C362.93 108.611 362.83 108.51 362.713 108.433L327.452 85.1607C327.983 84.9389 328.427 84.5497 328.717 84.0523C329.069 83.4381 329.165 82.7095 328.981 82.0256C328.798 81.3417 328.351 80.7581 327.739 80.4023L324.846 78.7323C324.232 78.3801 323.503 78.2852 322.819 78.4685C322.135 78.6517 321.551 79.0982 321.195 79.7103C321.003 80.0467 320.887 80.4215 320.856 80.8077L295.403 64.0087C294.549 61.939 293.253 60.0805 291.606 58.5627C289.959 57.045 288.001 55.9044 285.868 55.2205V47.8135H276.514V55.2205C273.41 56.2126 270.702 58.165 268.781 60.7958C266.859 63.4267 265.824 66.5998 265.823 69.8574V71.8613H275.178C275.178 73.4558 275.811 74.985 276.939 76.1125C278.067 77.2399 279.596 77.8733 281.191 77.8733C282.786 77.8733 284.316 77.2399 285.443 76.1125C286.571 74.985 287.205 73.4558 287.205 71.8613H296.559V69.8574C296.558 68.8967 296.468 67.9382 296.289 66.9944L360.679 109.492L333.932 142.004C333.724 142.003 333.517 142.001 333.308 142.001C331.174 142.001 329.106 142.051 327.136 142.138C327.255 141.808 327.307 141.458 327.289 141.107C327.25 140.4 326.933 139.737 326.407 139.263C325.881 138.789 325.188 138.543 324.481 138.578L321.145 138.752C320.437 138.79 319.774 139.108 319.3 139.634C318.826 140.16 318.58 140.852 318.614 141.559C318.639 141.977 318.763 142.383 318.977 142.743C313.077 143.369 309.254 144.233 309.254 144.673C309.254 145.393 319.519 144.708 332.368 144.675C332.427 144.842 332.529 144.99 332.664 145.104C332.799 145.219 332.963 145.295 333.137 145.326C333.312 145.357 333.491 145.34 333.657 145.279C333.823 145.217 333.97 145.112 334.082 144.975L334.33 144.675C347.14 144.71 357.362 145.392 357.362 144.673C357.362 143.995 348.274 142.309 336.498 142.039L362.935 109.906C363.024 109.797 363.089 109.671 363.127 109.536C363.164 109.4 363.172 109.259 363.151 109.12Z" fill="#CCCCCC"/>
<path d="M364.115 307.998H281.786C280.122 307.996 278.527 307.334 277.351 306.158C276.174 304.982 275.513 303.387 275.511 301.724V166.645C275.509 165.158 274.918 163.734 273.867 162.683C272.815 161.632 271.39 161.041 269.904 161.039H77.3268C75.8402 161.041 74.4149 161.632 73.3637 162.683C72.3125 163.734 71.7212 165.158 71.7194 166.645V301.724C71.7175 303.387 71.0558 304.982 69.8793 306.158C68.7029 307.335 67.1078 307.996 65.4439 307.998H62.6271C60.9632 307.996 59.3681 307.335 58.1917 306.158C57.0152 304.982 56.3535 303.387 56.3516 301.724V159.369C56.356 155.384 57.9414 151.564 60.7598 148.746C63.5782 145.929 67.3995 144.344 71.3854 144.339H355.357C359.343 144.344 363.164 145.929 365.983 148.746C368.801 151.564 370.386 155.384 370.391 159.369V301.724C370.389 303.387 369.727 304.982 368.551 306.158C367.374 307.335 365.779 307.996 364.115 307.998Z" fill="#E4E4E4"/>
<path d="M370.058 179.409H275.846V183.417H370.058V179.409Z" fill="white"/>
<path d="M370.058 233.516H275.846V237.524H370.058V233.516Z" fill="white"/>
<path d="M197.859 143.679L195.152 142.54L193.294 128.969H168.558L166.545 142.484L164.123 143.695C164.007 143.753 163.914 143.848 163.859 143.966C163.804 144.083 163.79 144.215 163.82 144.342C163.85 144.468 163.921 144.58 164.023 144.66C164.125 144.741 164.25 144.784 164.38 144.784H197.636C197.769 144.784 197.898 144.739 198.001 144.654C198.103 144.57 198.174 144.453 198.2 144.323C198.226 144.193 198.207 144.058 198.145 143.94C198.083 143.823 197.982 143.731 197.859 143.679Z" fill="#E6E6E6"/>
<path d="M241.816 130.775H120.307C119.67 130.773 119.059 130.519 118.608 130.068C118.158 129.617 117.905 129.005 117.905 128.368V111.238H244.218V128.368C244.218 129.005 243.965 129.617 243.515 130.068C243.065 130.519 242.454 130.773 241.816 130.775Z" fill="#CCCCCC"/>
<path d="M244.346 119.334H117.795V46.0387C117.796 45.2695 118.102 44.5321 118.646 43.9882C119.19 43.4443 119.928 43.1384 120.697 43.1375H241.444C242.213 43.1384 242.951 43.4443 243.495 43.9882C244.039 44.5321 244.345 45.2695 244.346 46.0387V119.334Z" fill="#3F3D56"/>
<path d="M236.787 114.014H125.353C124.759 114.014 124.191 113.778 123.771 113.358C123.352 112.939 123.116 112.371 123.115 111.778V50.6939C123.116 50.1009 123.352 49.5324 123.771 49.113C124.191 48.6937 124.759 48.4578 125.353 48.4572H236.787C237.38 48.4578 237.948 48.6937 238.368 49.113C238.787 49.5324 239.023 50.1009 239.024 50.6939V111.778C239.023 112.371 238.787 112.939 238.368 113.358C237.948 113.778 237.38 114.014 236.787 114.014Z" fill="white"/>
<path d="M361.706 55.4695C362.772 55.316 363.859 55.3979 364.89 55.7097C365.921 56.0214 366.871 56.5553 367.673 57.2738C368.475 57.9922 369.11 58.8778 369.533 59.8681C369.955 60.8583 370.156 61.9292 370.12 63.0053L394.551 72.407L383.482 80.3135L361.979 70.1734C360.174 69.9931 358.499 69.1574 357.27 67.8246C356.041 66.4919 355.343 64.7547 355.31 62.9423C355.276 61.1298 355.909 59.368 357.088 57.9908C358.267 56.6135 359.91 55.7164 361.706 55.4695Z" fill="#9E616A"/>
<path d="M454.473 50.8542L458.606 58.367C457.608 63.1321 455.026 67.4193 451.281 70.5318C444.953 75.8675 411.865 95.7396 411.865 95.7396L370.093 74.7744L377.4 65.0663L410.195 76.0542C422.361 64.5693 437.042 56.0843 453.068 51.2758L454.473 50.8542Z" fill="#E4E4E4"/>
<path d="M446.788 175.171C464.793 175.171 479.388 170.417 479.388 164.552C479.388 158.686 464.793 153.932 446.788 153.932C428.783 153.932 414.188 158.686 414.188 164.552C414.188 170.417 428.783 175.171 446.788 175.171Z" fill="#CACACA"/>
<path d="M373.652 298.664L364.995 296.272L370.105 261.752L382.882 265.283L373.652 298.664Z" fill="#9E616A"/>
<path d="M373.54 307.664L345.627 299.95L345.725 299.597C346.521 296.716 348.43 294.27 351.03 292.796C353.631 291.322 356.711 290.941 359.592 291.737L359.593 291.738L376.641 296.449L373.54 307.664Z" fill="#2F2E41"/>
<path d="M348.552 298.777L340.336 295.149L350.42 261.742L362.546 267.094L348.552 298.777Z" fill="#9E616A"/>
<path d="M347.131 307.664L320.639 295.969L320.787 295.634C321.994 292.9 324.239 290.758 327.026 289.678C329.814 288.598 332.916 288.67 335.651 289.877L335.652 289.877L351.832 297.02L347.131 307.664Z" fill="#2F2E41"/>
<path d="M472.159 138.587C472.159 138.587 476.514 152.076 449.795 169.135L415.383 203.415L379.628 288.923L358.4 279.409L362.564 268.299L365.357 260.843L366.787 257.029L368.319 252.941L391.044 192.296L410.134 158.88L410.688 140.748L415.383 127.967L449.449 115.883L472.159 138.587Z" fill="#2F2E41"/>
<path d="M454.787 139.255C454.787 139.255 459.142 152.744 432.423 169.803L398.011 204.083L362.256 289.591L341.028 280.077L345.192 268.967L347.985 261.511L349.415 257.697L350.947 253.609L373.672 192.964L380.064 181.775C388.496 167.015 398.742 153.368 410.564 141.151L416.829 134.676L417.498 124.656L432.077 116.551L454.787 139.255Z" fill="#2F2E41"/>
<path d="M434.201 73.2199L444.892 50.508L463.548 47.9637C463.548 47.9637 478.116 66.5187 474.291 92.5918C472.857 102.369 471.688 112.103 471.619 120.648C471.6 122.921 473.59 123.936 473.623 125.992C473.656 128.011 469.853 131.299 470.95 132.672C472.52 134.563 473.455 136.9 473.623 139.351C472.299 142.502 432.226 125.434 415.383 127.967L434.201 73.2199Z" fill="#E4E4E4"/>
<path d="M460.7 36.5296C465.462 28.5207 462.828 18.1689 454.817 13.4081C446.806 8.64729 436.452 11.2804 431.69 19.2892C426.928 27.298 429.562 37.6499 437.572 42.4107C445.583 47.1715 455.938 44.5384 460.7 36.5296Z" fill="#9E616A"/>
<path d="M456.983 21.8522C456.95 22.2961 456.906 22.884 456.854 23.5491C456.802 25.3698 457.315 27.1621 458.324 28.6792C459.268 30.2753 458.141 39.9155 458.141 39.9155C485.782 20.6529 463.942 1.30064 455.398 3.02092C455.577 0.571295 448.609 1.54172 448.609 1.54172C445.954 -2.59172 440.135 2.89508 440.135 2.89508L441.258 1.0067C436.74 2.15547 432.275 16.1137 432.275 16.1137C433.807 22.1354 457.161 19.4025 456.983 21.8522Z" fill="#2F2E41"/>
<path d="M349.755 82.1542C359.254 69.5231 366.762 55.5132 372.021 40.6108C372.326 39.7194 372.304 38.7489 371.96 37.8719C371.616 36.995 370.971 36.2686 370.142 35.8221L337.639 18.4106C337.113 18.1268 336.529 17.9666 335.932 17.9424C335.335 17.9182 334.74 18.0305 334.193 18.2708C333.636 18.5129 333.141 18.8789 332.747 19.341C332.352 19.803 332.068 20.349 331.917 20.9373C328.134 35.2976 321.022 48.5659 311.158 59.6689C310.752 60.1208 310.455 60.6594 310.288 61.2437C310.122 61.8279 310.091 62.4425 310.198 63.0405C310.301 63.629 310.537 64.1862 310.888 64.6698C311.239 65.1533 311.695 65.5505 312.223 65.831L344.726 83.2425C345.558 83.6857 346.52 83.8196 347.44 83.6203C348.361 83.421 349.182 82.9015 349.755 82.1542Z" fill="#CCCCCC"/>
<path d="M347.537 80.4879C347.362 80.7061 347.117 80.8564 346.843 80.913C346.569 80.9695 346.284 80.9287 346.037 80.7977L313.534 63.3858C313.376 63.3036 313.239 63.1859 313.134 63.042C313.03 62.8981 312.96 62.7319 312.93 62.5565C312.896 62.3713 312.906 62.1807 312.958 61.9997C313.01 61.8188 313.103 61.6524 313.231 61.5136C323.385 50.0836 330.706 36.4242 334.601 21.6408C334.646 21.4581 334.732 21.2883 334.854 21.1448C334.976 21.0012 335.129 20.8878 335.302 20.8133C335.464 20.7405 335.642 20.7064 335.82 20.7138C335.998 20.7211 336.172 20.7697 336.329 20.8557L368.831 38.267C369.077 38.4 369.27 38.6149 369.374 38.8744C369.479 39.1339 369.489 39.4217 369.404 39.6883C364.24 54.3238 356.866 68.083 347.537 80.4879Z" fill="white"/>
<path d="M336.165 37.3982L358.584 50.5351C360.814 51.8421 362.834 48.3793 360.607 47.0743L338.189 33.9374C335.958 32.6303 333.938 36.0932 336.165 37.3982Z" fill="#6C63FF"/>
<path d="M332.157 44.7461L354.575 57.883C356.806 59.1901 358.825 55.7272 356.598 54.4223L334.18 41.2853C331.949 39.9783 329.93 43.4411 332.157 44.7461Z" fill="#6C63FF"/>
<path d="M327.48 52.7621L349.898 65.899C352.129 67.206 354.149 63.7432 351.922 62.4382L329.503 49.3013C327.273 47.9942 325.253 51.4571 327.48 52.7621Z" fill="#6C63FF"/>
<path d="M322.802 59.442L345.221 72.5789C347.451 73.886 349.471 70.4232 347.244 69.1182L324.825 55.9812C322.595 54.6742 320.575 58.1371 322.802 59.442Z" fill="#6C63FF"/>
<path d="M425.002 136.715L433.419 155.636C433.622 156.089 433.708 156.585 433.671 157.08C433.634 157.575 433.474 158.053 433.206 158.471C432.89 158.97 432.433 159.364 431.893 159.604C431.353 159.844 430.754 159.919 430.172 159.819C429.974 159.789 429.779 159.737 429.592 159.665C428.848 159.378 428.248 158.807 427.924 158.079L419.507 139.158C419.347 138.797 419.259 138.408 419.249 138.014C419.239 137.619 419.307 137.226 419.448 136.858C419.734 136.114 420.304 135.513 421.033 135.19C421.762 134.866 422.589 134.844 423.334 135.13C424.078 135.416 424.678 135.986 425.002 136.715Z" fill="#6C63FF"/>
<path d="M432.74 154.11L434.426 157.929L435.288 163.343C435.345 163.699 435.283 164.065 435.111 164.382C434.938 164.699 434.666 164.951 434.336 165.097C434.006 165.244 433.637 165.278 433.286 165.193C432.935 165.108 432.622 164.91 432.396 164.629L428.907 160.289L427.245 156.553L432.74 154.11Z" fill="#3F3D56"/>
<path d="M417.637 131.451L418.843 139.026C418.882 139.274 418.978 139.509 419.123 139.714C419.268 139.919 419.458 140.088 419.679 140.208C419.9 140.328 420.145 140.395 420.396 140.405C420.647 140.415 420.897 140.367 421.127 140.265L422.323 139.734L424.63 144.922C424.702 145.083 424.836 145.21 425.001 145.273C425.166 145.336 425.35 145.332 425.512 145.26C425.674 145.188 425.8 145.055 425.864 144.889C425.927 144.724 425.923 144.541 425.851 144.379L423.544 139.191L424.739 138.659C425.136 138.483 425.446 138.156 425.602 137.752C425.759 137.347 425.748 136.897 425.573 136.5C425.515 136.368 425.439 136.245 425.349 136.133L420.53 130.164C420.303 129.883 419.99 129.685 419.639 129.601C419.288 129.516 418.919 129.55 418.589 129.696C418.259 129.843 417.987 130.094 417.815 130.412C417.642 130.729 417.58 131.094 417.637 131.451Z" fill="#3F3D56"/>
<path d="M421.128 145.123C421.318 144.063 421.738 143.058 422.358 142.178C422.978 141.298 423.784 140.564 424.719 140.029C425.653 139.494 426.694 139.17 427.767 139.081C428.841 138.991 429.92 139.138 430.931 139.511L447.546 119.285L451.569 132.277L435.174 149.492C434.435 151.148 433.115 152.474 431.463 153.221C429.81 153.968 427.942 154.083 426.21 153.545C424.479 153.006 423.005 151.852 422.069 150.299C421.132 148.747 420.797 146.906 421.128 145.123Z" fill="#9E616A"/>
<path d="M442.045 143.809L434.728 133.242L455.507 105.543L444.802 82.6107L445.582 55.333L454.428 53.6994L454.537 53.7545C458.838 56.2293 462.162 60.1004 463.958 64.7248C466.165 70.24 471.091 90.944 473.831 102.794C474.369 105.09 474.31 107.486 473.66 109.754C473.01 112.021 471.789 114.084 470.116 115.746L442.045 143.809Z" fill="#E4E4E4"/>
<path d="M236.007 92.7484C235.946 93.2616 235.926 93.7789 235.946 94.2953L198.48 121.545L188.187 116.991L179.282 131.623L196.72 141.455C198.129 142.249 199.757 142.566 201.361 142.356C202.965 142.146 204.457 141.422 205.614 140.292L243.322 103.47C245.252 103.96 247.286 103.852 249.153 103.158C251.02 102.465 252.631 101.22 253.773 99.5882C254.914 97.9569 255.532 96.0167 255.544 94.0258C255.556 92.0348 254.961 90.0875 253.839 88.4428C252.717 86.798 251.12 85.5338 249.262 84.8183C247.403 84.1028 245.371 83.97 243.435 84.4374C241.499 84.9048 239.752 85.9503 238.425 87.4349C237.098 88.9195 236.254 90.7729 236.007 92.7484Z" fill="#FFB6B6"/>
<path d="M197.268 122.542L186.342 140.743C186.032 141.261 185.613 141.706 185.114 142.047C184.616 142.389 184.05 142.619 183.455 142.722C182.859 142.825 182.249 142.798 181.665 142.644C181.081 142.49 180.537 142.212 180.07 141.829L163.711 128.397C161.07 126.791 159.174 124.205 158.438 121.204C157.701 118.203 158.185 115.033 159.784 112.388C161.382 109.743 163.964 107.84 166.963 107.095C169.963 106.35 173.135 106.825 175.785 108.415L195.275 116.497C195.833 116.729 196.335 117.078 196.746 117.521C197.156 117.963 197.467 118.49 197.656 119.063C197.845 119.637 197.909 120.244 197.842 120.845C197.775 121.445 197.579 122.024 197.268 122.542Z" fill="#6C63FF"/>
<path d="M150.455 280.747H171.871V245.266H150.455V280.747Z" fill="#CACACA"/>
<path d="M170.798 264.041L168.049 268.091L219.448 302.96L222.197 298.91L170.798 264.041Z" fill="#CACACA"/>
<path d="M151.527 264.041L100.128 298.91L102.877 302.96L154.276 268.091L151.527 264.041Z" fill="#CACACA"/>
<path d="M220.823 307.664C224.54 307.664 227.554 304.651 227.554 300.935C227.554 297.218 224.54 294.206 220.823 294.206C217.105 294.206 214.092 297.218 214.092 300.935C214.092 304.651 217.105 307.664 220.823 307.664Z" fill="#CACACA"/>
<path d="M160.857 307.664C164.574 307.664 167.588 304.651 167.588 300.935C167.588 297.218 164.574 294.206 160.857 294.206C157.14 294.206 154.126 297.218 154.126 300.935C154.126 304.651 157.14 307.664 160.857 307.664Z" fill="#CACACA"/>
<path d="M101.502 307.664C105.22 307.664 108.233 304.651 108.233 300.935C108.233 297.218 105.22 294.206 101.502 294.206C97.785 294.206 94.7715 297.218 94.7715 300.935C94.7715 304.651 97.785 307.664 101.502 307.664Z" fill="#CACACA"/>
<path d="M163.304 266.066H158.409V300.935H163.304V266.066Z" fill="#CACACA"/>
<path d="M156.573 261.172H165.752V214.068H156.573V261.172Z" fill="#CACACA"/>
<path d="M134.851 221.409V210.397C134.853 208.37 135.659 206.426 137.093 204.993C138.527 203.559 140.471 202.753 142.499 202.75H183.497C185.524 202.753 187.469 203.559 188.902 204.993C190.336 206.426 191.143 208.37 191.145 210.397V221.409C191.143 223.436 190.336 225.38 188.902 226.813C187.469 228.247 185.524 229.053 183.497 229.055H142.499C140.471 229.053 138.527 228.247 137.093 226.813C135.659 225.38 134.853 223.436 134.851 221.409Z" fill="#3F3D56"/>
<path d="M208.897 296.676L220.234 296.676L225.629 267.277L208.896 267.277L208.897 296.676Z" fill="#FFB8B8"/>
<path d="M206.006 307.664L242.564 307.663V307.2C242.565 305.332 242.196 303.482 241.481 301.756C240.766 300.03 239.718 298.462 238.397 297.141C237.076 295.82 235.507 294.772 233.781 294.057C232.054 293.342 230.204 292.974 228.335 292.974H228.334L206.005 292.975L206.006 307.664Z" fill="#2F2E41"/>
<path d="M225.855 278.445L248.459 227.771C250.346 223.5 250.555 218.675 249.043 214.257C247.532 209.839 244.411 206.152 240.303 203.931L191.275 177.647L168.902 175.745L148.265 173.869L148.116 174.121C147.926 174.443 143.489 182.105 146.488 190.507C148.763 196.879 154.681 201.857 164.077 205.302C186.009 213.341 211.344 220.213 221.219 222.793C221.655 222.905 222.063 223.107 222.415 223.388C222.768 223.668 223.057 224.02 223.264 224.42C223.471 224.816 223.594 225.25 223.625 225.695C223.657 226.141 223.595 226.588 223.445 227.008L202.446 274.176C202.226 274.774 202.147 275.414 202.215 276.048C202.282 276.681 202.494 277.291 202.835 277.83C203.175 278.368 203.635 278.822 204.178 279.155C204.721 279.488 205.334 279.691 205.969 279.75L221.66 280.892C221.793 280.905 221.926 280.911 222.058 280.911C222.861 280.911 223.648 280.678 224.321 280.24C224.995 279.803 225.528 279.179 225.855 278.445Z" fill="#2F2E41"/>
<path d="M201.498 296.676L212.836 296.676L218.231 267.277L201.497 267.277L201.498 296.676Z" fill="#FFB8B8"/>
<path d="M198.607 307.664L235.166 307.663V307.2C235.166 305.332 234.798 303.482 234.083 301.756C233.368 300.03 232.32 298.462 230.998 297.141C229.677 295.82 228.109 294.772 226.382 294.057C224.656 293.342 222.805 292.974 220.937 292.974H220.935L198.606 292.975L198.607 307.664Z" fill="#2F2E41"/>
<path d="M217.532 281.219L240.135 230.545C242.023 226.274 242.231 221.449 240.72 217.031C239.208 212.613 236.088 208.926 231.98 206.705L182.951 180.421L160.579 178.519L144.415 177.117L144.417 176.895C144.227 177.217 139.789 184.879 142.789 193.28C145.064 199.653 146.358 204.631 155.754 208.076C177.685 216.115 203.021 222.986 212.895 225.567C213.332 225.679 213.74 225.881 214.092 226.162C214.445 226.442 214.734 226.794 214.94 227.194C215.148 227.59 215.271 228.024 215.302 228.469C215.333 228.914 215.272 229.361 215.122 229.782L194.122 276.949C193.903 277.548 193.824 278.188 193.891 278.822C193.959 279.455 194.171 280.065 194.511 280.603C194.852 281.142 195.311 281.595 195.855 281.928C196.398 282.261 197.011 282.465 197.645 282.524L213.336 283.666C213.47 283.679 213.602 283.685 213.734 283.685C214.538 283.685 215.324 283.452 215.998 283.014C216.672 282.577 217.205 281.953 217.532 281.219Z" fill="#2F2E41"/>
<path d="M203.353 62.9511C206.256 50.7497 198.715 38.5062 186.51 35.6045C174.306 32.7028 162.059 40.2417 159.157 52.4432C156.254 64.6446 163.795 76.8881 176 79.7898C188.204 82.6915 200.451 75.1526 203.353 62.9511Z" fill="#FFB8B8"/>
<path d="M259.552 144.946C269.051 132.315 276.559 118.305 281.818 103.402C282.122 102.511 282.101 101.541 281.757 100.664C281.413 99.7867 280.768 99.0603 279.939 98.6137L247.435 81.2022C246.91 80.9184 246.326 80.7583 245.729 80.7341C245.132 80.7098 244.537 80.8221 243.99 81.0624C243.433 81.3045 242.938 81.6705 242.543 82.1326C242.149 82.5947 241.865 83.1406 241.714 83.7289C237.93 98.0892 230.819 111.358 220.955 122.461C220.549 122.912 220.252 123.451 220.085 124.035C219.919 124.62 219.888 125.234 219.995 125.832C220.098 126.421 220.334 126.978 220.685 127.461C221.036 127.945 221.492 128.342 222.02 128.623L254.523 146.034C255.355 146.477 256.316 146.611 257.237 146.412C258.158 146.213 258.979 145.693 259.552 144.946Z" fill="#CCCCCC"/>
<path d="M257.334 143.28C257.159 143.498 256.914 143.648 256.64 143.705C256.366 143.761 256.081 143.72 255.834 143.589L223.33 126.177C223.173 126.095 223.036 125.978 222.931 125.834C222.827 125.69 222.757 125.524 222.727 125.348C222.693 125.163 222.703 124.972 222.755 124.791C222.807 124.61 222.9 124.444 223.028 124.305C233.182 112.875 240.503 99.2159 244.397 84.4324C244.443 84.2498 244.529 84.08 244.651 83.9365C244.773 83.7929 244.926 83.6794 245.099 83.6049C245.261 83.5321 245.439 83.4981 245.617 83.5054C245.795 83.5128 245.969 83.5614 246.125 83.6473L278.628 101.059C278.874 101.192 279.066 101.407 279.171 101.666C279.276 101.926 279.286 102.213 279.201 102.48C274.037 117.115 266.662 130.875 257.334 143.28Z" fill="white"/>
<path d="M245.963 100.19L268.382 113.327C270.612 114.634 272.632 111.171 270.405 109.866L247.987 96.729C245.756 95.4219 243.736 98.8848 245.963 100.19Z" fill="#CCCCCC"/>
<path d="M241.953 107.538L264.372 120.675C266.602 121.982 268.622 118.519 266.395 117.214L243.977 104.077C241.746 102.77 239.726 106.233 241.953 107.538Z" fill="#CCCCCC"/>
<path d="M238.804 114.857L259.193 126.958C261.221 128.162 263.391 125.673 261.365 124.47L240.977 112.37C238.948 111.166 236.779 113.655 238.804 114.857Z" fill="#CCCCCC"/>
<path d="M232.6 122.234L255.018 135.371C257.249 136.678 259.269 133.215 257.042 131.91L234.623 118.773C232.393 117.466 230.373 120.929 232.6 122.234Z" fill="#CCCCCC"/>
<path d="M194.352 179.487L149.402 179.218L149.39 178.898C148.532 156.351 151.289 135.926 157.816 116.458C157.909 115.729 158.008 114.95 158.106 114.186C159.221 105.476 160.106 98.5601 168.391 95.9846C167.701 95.0671 167.294 93.9678 167.22 92.8221C167.168 92.0607 167.268 91.2964 167.514 90.574C167.76 89.8515 168.148 89.1852 168.654 88.6138C169.138 88.062 169.727 87.6121 170.387 87.2902C171.047 86.9683 171.764 86.781 172.497 86.739L188.497 86.1943C189.338 86.1886 190.156 86.4659 190.82 86.9817C192.038 87.8863 192.894 89.1949 193.235 90.6732C193.576 92.1515 193.379 93.7027 192.68 95.0492C192.491 95.4243 192.419 95.5952 192.392 95.6695C192.961 98.6488 194.648 102.188 196.434 105.933C198.991 111.295 201.89 117.372 202.635 123.874C203.037 127.385 202.87 130.937 202.139 134.394C201.806 136.257 201.729 138.157 201.911 140.041C202.057 142.834 202.195 145.472 200.616 148.022C200.213 148.714 199.753 149.451 199.212 150.268L196.991 155.577L194.352 179.487Z" fill="#6C63FF"/>
<path d="M126.896 211.04V119.217C126.9 116.224 128.09 113.356 130.207 111.24C132.323 109.124 135.192 107.934 138.185 107.931H141.307C144.3 107.934 147.17 109.124 149.286 111.24C151.402 113.356 152.593 116.224 152.596 119.217V211.04C152.593 214.033 151.402 216.901 149.286 219.017C147.17 221.133 144.3 222.323 141.307 222.326H138.185C135.192 222.323 132.323 221.133 130.207 219.017C128.09 216.901 126.9 214.033 126.896 211.04Z" fill="#3F3D56"/>
<path d="M247.437 128.381C247.114 128.785 246.824 129.214 246.569 129.663L200.359 133.036L194.022 123.737L178.733 131.465L188.353 149.018C189.13 150.436 190.346 151.563 191.819 152.232C193.292 152.9 194.941 153.072 196.521 152.723L247.989 141.348C249.37 142.783 251.155 143.764 253.106 144.16C255.058 144.556 257.084 144.349 258.915 143.566C260.746 142.783 262.295 141.461 263.356 139.776C264.417 138.092 264.94 136.124 264.856 134.135C264.771 132.146 264.082 130.229 262.882 128.641C261.681 127.052 260.025 125.867 258.134 125.243C256.243 124.618 254.207 124.584 252.296 125.144C250.385 125.705 248.69 126.834 247.437 128.381Z" fill="#FFB6B6"/>
<path d="M198.804 133.243L179.914 142.937C179.377 143.212 178.786 143.369 178.182 143.396C177.579 143.423 176.977 143.32 176.417 143.093C175.857 142.866 175.352 142.522 174.937 142.083C174.523 141.643 174.207 141.12 174.013 140.548L167.211 120.507C165.816 117.756 165.568 114.565 166.52 111.631C167.473 108.697 169.549 106.26 172.294 104.853C163.921 109.149 181.36 96.9438 188.016 109.908L200.303 127.058C200.654 127.549 200.896 128.11 201.011 128.703C201.126 129.296 201.112 129.906 200.97 130.493C200.828 131.08 200.561 131.63 200.187 132.104C199.813 132.579 199.341 132.967 198.804 133.243Z" fill="#6C63FF"/>
<path d="M170.994 79.7844C169.627 79.7844 168.118 79.1255 166.417 77.7908C161.413 73.862 157.835 68.4002 156.234 62.2433C154.633 56.0863 155.097 49.5743 157.554 43.7061C158.79 40.7529 161.103 36.7391 165.099 34.3867C167.971 32.6965 171.346 32.0859 174.283 31.6463C176.826 31.2653 179.4 30.962 181.935 30.746C184.965 30.487 188.463 30.3122 191.655 31.5243C193.993 32.4127 195.983 33.9816 197.908 35.499C198.578 36.0273 199.272 36.5747 199.967 37.0809C201.65 38.3938 203.592 39.3365 205.665 39.8475C206.102 39.9381 206.515 40.1216 206.875 40.3855C207.236 40.6494 207.535 40.9876 207.754 41.3772C207.977 41.7732 208.112 42.2124 208.15 42.6651C208.189 43.1179 208.13 43.5736 207.977 44.0015C207.677 44.8431 207.406 45.6017 207.954 46.4237C208.157 46.7132 208.428 46.9486 208.743 47.1092C209.058 47.2698 209.408 47.3507 209.762 47.3448C209.949 47.3417 210.133 47.3854 210.299 47.4717C210.464 47.5581 210.605 47.6844 210.71 47.8393C210.815 47.9927 210.882 48.1698 210.904 48.3549C210.925 48.54 210.901 48.7276 210.834 48.9013L210.746 49.1276C210.981 49.1496 211.207 49.2283 211.405 49.357C211.603 49.4858 211.767 49.6607 211.882 49.8667C212.054 50.1601 212.12 50.5032 212.07 50.8394C212.02 51.1755 211.857 51.4846 211.607 51.7155C209.581 53.6444 207.053 54.9667 204.313 55.5323C202.437 55.9001 200.508 55.8957 198.634 55.5193L198.332 55.4605L198.369 55.1265C190.79 52.4239 183.948 57.0105 180.047 62.254L179.484 61.8985C179.58 61.7031 179.637 61.4901 179.649 61.2724C179.661 61.0547 179.629 60.8367 179.555 60.6317C179.477 60.3856 179.35 60.1574 179.184 59.9601C179.017 59.7629 178.813 59.6005 178.583 59.4822C178.118 59.2906 177.607 59.2409 177.115 59.3392C176.622 59.4376 176.169 59.6796 175.814 60.0348C175.452 60.414 175.173 60.8644 174.995 61.3574C174.816 61.8503 174.743 62.3749 174.778 62.8979C174.881 64.0062 175.163 65.0905 175.615 66.1081C175.798 66.5947 175.988 67.0983 176.142 67.6058C177.005 70.489 176.775 73.5891 175.495 76.3133C174.905 77.556 173.837 79.1405 172.104 79.6317C171.743 79.7337 171.369 79.7851 170.994 79.7844Z" fill="#2F2E41"/>
<path d="M540.204 309H0.79523C0.584629 308.999 0.382867 308.915 0.234165 308.766C0.0854625 308.617 0.00195312 308.415 0.00195312 308.205C0.00195312 307.994 0.0854625 307.792 0.234165 307.643C0.382867 307.494 0.584629 307.41 0.79523 307.409H540.204C540.415 307.409 540.617 307.493 540.767 307.642C540.916 307.791 541 307.994 541 308.205C541 308.416 540.916 308.618 540.767 308.767C540.617 308.916 540.415 309 540.204 309Z" fill="#CACACA"/>
</g>
<defs>
<clipPath id="clip0_495_2">
<rect width="541" height="309" fill="white"/>
</clipPath>
</defs>
</svg>
