<svg width="18" height="18" viewBox="0 0 18 18" fill="none" xmlns="http://www.w3.org/2000/svg">
<path d="M15.75 1.125H10.5C10.5 0.926088 10.421 0.735322 10.2803 0.59467C10.1397 0.454018 9.94891 0.375 9.75 0.375H8.25C8.05109 0.375 7.86032 0.454018 7.71967 0.59467C7.57902 0.735322 7.5 0.926088 7.5 1.125H2.25C2.05109 1.125 1.86032 1.20402 1.71967 1.34467C1.57902 1.48532 1.5 1.67609 1.5 1.875C1.5 2.07391 1.57902 2.26468 1.71967 2.40533C1.86032 2.54598 2.05109 2.625 2.25 2.625H15.75C15.9489 2.625 16.1397 2.54598 16.2803 2.40533C16.421 2.26468 16.5 2.07391 16.5 1.875C16.5 1.67609 16.421 1.48532 16.2803 1.34467C16.1397 1.20402 15.9489 1.125 15.75 1.125ZM14.625 3.375C14.4261 3.375 14.2353 3.45402 14.0947 3.59467C13.954 3.73532 13.875 3.92609 13.875 4.125V16.125H4.125V4.125C4.125 3.92609 4.04598 3.73532 3.90533 3.59467C3.76468 3.45402 3.57391 3.375 3.375 3.375C3.17609 3.375 2.98532 3.45402 2.84467 3.59467C2.70402 3.73532 2.625 3.92609 2.625 4.125V16.875C2.625 17.0739 2.70402 17.2647 2.84467 17.4053C2.98532 17.546 3.17609 17.625 3.375 17.625H14.625C14.8239 17.625 15.0147 17.546 15.1553 17.4053C15.296 17.2647 15.375 17.0739 15.375 16.875V4.125C15.375 3.92609 15.296 3.73532 15.1553 3.59467C15.0147 3.45402 14.8239 3.375 14.625 3.375Z" fill="black"/>
<path d="M7.875 13.875V7.125C7.875 6.92609 7.79598 6.73532 7.65533 6.59467C7.51468 6.45402 7.32391 6.375 7.125 6.375C6.92609 6.375 6.73532 6.45402 6.59467 6.59467C6.45402 6.73532 6.375 6.92609 6.375 7.125V13.875C6.375 14.0739 6.45402 14.2647 6.59467 14.4053C6.73532 14.546 6.92609 14.625 7.125 14.625C7.32391 14.625 7.51468 14.546 7.65533 14.4053C7.79598 14.2647 7.875 14.0739 7.875 13.875ZM11.625 13.875V7.125C11.625 6.92609 11.546 6.73532 11.4053 6.59467C11.2647 6.45402 11.0739 6.375 10.875 6.375C10.6761 6.375 10.4853 6.45402 10.3447 6.59467C10.204 6.73532 10.125 6.92609 10.125 7.125V13.875C10.125 14.0739 10.204 14.2647 10.3447 14.4053C10.4853 14.546 10.6761 14.625 10.875 14.625C11.0739 14.625 11.2647 14.546 11.4053 14.4053C11.546 14.2647 11.625 14.0739 11.625 13.875Z" fill="black"/>
</svg>
