<svg width="233" height="155" viewBox="0 0 233 155" fill="none" xmlns="http://www.w3.org/2000/svg">
<g clip-path="url(#clip0_397_43)">
<path d="M223.893 103.729C222.211 105.576 220.124 106.95 217.86 108.017H217.857C217.644 108.119 217.431 108.218 217.215 108.311H217.213L217.21 108.314L217.207 108.311H217.205L217.204 108.312L217.204 108.313L217.203 108.313L217.202 108.314H217.199L217.196 108.311C217.194 108.314 217.194 108.314 217.191 108.311L217.188 108.314L217.185 108.311H217.183C217.18 108.314 217.18 108.314 217.177 108.311H217.175C215.659 108.969 214.103 109.528 212.515 109.984C203.18 112.645 193.368 113.159 183.808 111.49C183.625 111.457 183.445 111.425 183.262 111.392V89.1402C183.442 89.0634 183.625 88.9866 183.808 88.9125C185.001 88.416 186.21 87.9596 187.432 87.5436C189.191 86.94 190.974 86.4225 192.783 85.9908C198.681 84.5568 204.768 84.0624 210.819 84.5259C211.92 84.6082 213.018 84.7271 214.113 84.8825C216.404 85.2035 218.808 85.7631 220.922 86.7343H220.924C221.233 86.8797 221.536 87.0306 221.837 87.1924C223.716 88.2157 225.3 89.6231 226.267 91.5516C226.614 92.2443 226.864 92.9819 227.009 93.7436V93.7491C227.064 94.0124 227.102 94.2785 227.132 94.5419C227.476 97.79 226.135 101.266 223.893 103.729Z" fill="#F2F2F2"/>
<path d="M227.132 94.5418C227.106 94.5485 227.078 94.5521 227.05 94.5527C222.372 94.7585 217.7 95.0639 213.034 95.469H213.026C213.007 95.4718 212.99 95.4718 212.971 95.4745C208.181 95.8915 203.4 96.4136 198.63 97.041C198.428 97.0684 198.228 97.0958 198.029 97.1205C194.73 97.5622 191.437 98.0523 188.15 98.591C186.7 98.8296 185.253 99.0784 183.808 99.3371C183.625 99.3701 183.445 99.4003 183.262 99.4359V98.6047C183.445 98.569 183.628 98.5388 183.808 98.5059C188.62 97.65 193.449 96.9029 198.294 96.2646C199.512 96.1 200.732 95.9445 201.954 95.7982C205.482 95.3703 209.016 95.0008 212.556 94.6899C212.816 94.6679 213.072 94.646 213.332 94.624C217.863 94.2372 222.4 93.9437 226.944 93.7434C226.966 93.7424 226.988 93.7443 227.009 93.7489C227.446 93.7873 227.539 94.4457 227.132 94.5418Z" fill="white"/>
<path d="M217.416 107.502C211.587 107.545 205.845 105.063 201.723 100.954C200.56 99.7902 199.535 98.4949 198.668 97.0941C198.39 96.6465 197.74 97.1401 198.016 97.5839C201.218 102.742 206.551 106.416 212.43 107.767C214.1 108.147 215.808 108.33 217.52 108.314C218.043 108.31 217.935 107.498 217.416 107.502Z" fill="white"/>
<path d="M192.783 85.9907C192.758 86.0678 192.713 86.137 192.653 86.1914C192.593 86.2458 192.52 86.2835 192.441 86.3007C191.105 86.6523 189.815 87.1586 188.596 87.8096C186.815 88.7541 185.198 89.9816 183.808 91.4445C183.734 91.5186 183.663 91.5927 183.595 91.6695C183.48 91.7902 183.371 91.9136 183.262 92.0398V90.8437C183.437 90.6572 183.62 90.4734 183.808 90.2978C184.906 89.2419 186.122 88.3176 187.432 87.5435C189.191 86.9399 190.974 86.4223 192.783 85.9907Z" fill="white"/>
<path d="M221.404 86.518C217.696 88.1185 214.594 90.8658 212.549 94.36C212.508 94.46 212.507 94.5723 212.548 94.6727C212.588 94.773 212.666 94.8533 212.765 94.896C212.865 94.9356 212.976 94.9351 213.076 94.8946C213.175 94.8541 213.255 94.7768 213.299 94.6786C215.251 91.3784 218.197 88.7863 221.71 87.276C222.192 87.0691 221.887 86.3106 221.404 86.518Z" fill="white"/>
<path d="M232.581 63.2182C231.947 65.6378 230.732 67.8298 229.222 69.8297L229.219 69.8324C229.08 70.019 228.935 70.2082 228.785 70.3893V70.3921C227.736 71.6897 226.604 72.9167 225.395 74.0654C221.051 78.224 216.144 81.7455 210.819 84.5259C202.443 88.9207 193.08 91.5187 183.808 91.6668C183.737 91.6696 183.666 91.6696 183.595 91.6696C183.483 91.6723 183.371 91.6723 183.262 91.6723V79.2037C183.439 78.8636 183.622 78.5234 183.808 78.1859C186.218 73.8307 189.156 69.7927 192.556 66.1645C192.638 66.074 192.722 65.9835 192.807 65.8957C194.085 64.5405 195.425 63.2502 196.827 62.0248C202.221 57.2613 208.454 53.5534 215.205 51.0925C217.382 50.3079 219.769 49.6797 222.091 49.5562C222.432 49.537 222.771 49.5288 223.112 49.5315C225.251 49.5617 227.302 50.0692 229.052 51.3257C229.679 51.778 230.242 52.3142 230.724 52.9196C230.893 53.1308 231.049 53.3475 231.199 53.5698V53.5725C233.007 56.2884 233.428 59.9892 232.581 63.2182Z" fill="#F2F2F2"/>
<path d="M231.199 53.5696V53.5723C231.179 53.59 231.157 53.6057 231.134 53.619C227.091 55.981 223.1 58.429 219.16 60.9629C219.155 60.9657 219.152 60.9684 219.146 60.9712C219.131 60.9822 219.114 60.9923 219.097 61.0013C215.047 63.6075 211.054 66.3015 207.118 69.0833C206.955 69.1985 206.788 69.3165 206.621 69.4344C203.904 71.363 201.215 73.3328 198.554 75.3436C193.528 79.1459 188.613 83.0891 183.808 87.173C183.625 87.3267 183.445 87.483 183.262 87.6394V86.5722C183.442 86.4159 183.625 86.2595 183.808 86.1059C185.649 84.5449 187.506 83.0059 189.379 81.4888C189.939 81.0361 190.502 80.5835 191.065 80.1363C196.063 76.1392 201.173 72.2912 206.395 68.5922H206.397C207.424 67.8652 208.453 67.1446 209.484 66.4305C212.411 64.4058 215.372 62.4297 218.365 60.502C218.581 60.3621 218.8 60.2222 219.018 60.0823C222.85 57.6243 226.732 55.2467 230.664 52.9496C230.683 52.9379 230.703 52.9278 230.724 52.9194C231.134 52.7548 231.519 53.298 231.199 53.5696Z" fill="white"/>
<path d="M228.589 69.5809C223.448 72.3384 217.215 72.8193 211.664 71.1042C210.096 70.6163 208.589 69.9475 207.174 69.1113C206.721 68.8445 206.373 69.585 206.823 69.8494C212.043 72.923 218.465 73.6882 224.297 72.141C225.951 71.6984 227.549 71.064 229.057 70.2505C229.518 70.0033 229.047 69.3353 228.589 69.5809Z" fill="white"/>
<path d="M190.122 79.6184C189.867 78.1823 189.78 76.7213 189.862 75.2649C190.046 71.9434 191.058 68.7217 192.806 65.8962C194.086 64.5414 195.426 63.2509 196.827 62.0247C196.84 62.1049 196.833 62.1871 196.805 62.2634C196.776 62.3396 196.729 62.4072 196.667 62.4594C195.647 63.3941 194.739 64.4443 193.96 65.5889C191.177 69.6684 190.091 74.6783 190.933 79.5505C190.947 79.6058 190.946 79.6636 190.931 79.7185C190.916 79.7734 190.887 79.8235 190.848 79.8641C190.789 79.9152 190.719 79.95 190.643 79.9652C190.567 79.9803 190.488 79.9752 190.415 79.9504C190.341 79.9255 190.276 79.8818 190.224 79.8236C190.173 79.7653 190.137 79.6946 190.122 79.6184Z" fill="white"/>
<path d="M222.416 49.1369C219.873 52.2842 218.397 56.1646 218.201 60.2132C218.211 60.3211 218.262 60.4208 218.345 60.4907C218.427 60.5607 218.533 60.5952 218.641 60.5869C218.747 60.5754 218.846 60.5231 218.915 60.4409C218.984 60.3587 219.019 60.2528 219.013 60.1453C219.215 56.3119 220.625 52.6422 223.038 49.6654C223.369 49.2572 222.748 48.7279 222.416 49.1369Z" fill="white"/>
<path d="M194.134 58.151V58.1537C194.115 58.3897 194.094 58.6229 194.069 58.856V58.8615C193.879 60.5214 193.583 62.1672 193.181 63.7886C192.99 64.5842 192.782 65.3743 192.556 66.1644C192.529 66.2659 192.498 66.3674 192.468 66.4661V66.4689C191.801 68.7667 191.004 71.0245 190.081 73.2313C188.383 77.2941 186.281 81.1746 183.808 84.8137C183.63 85.0798 183.447 85.346 183.262 85.6093V42.6482C183.445 42.6373 183.625 42.6373 183.808 42.6428C183.895 42.6428 183.983 42.6455 184.07 42.651C184.841 42.6917 185.602 42.8403 186.332 43.0927C186.588 43.1777 186.837 43.2737 187.083 43.3807C190.062 44.6921 192.403 47.5836 193.419 50.7631C194.181 53.1444 194.334 55.649 194.134 58.151Z" fill="#F2F2F2"/>
<path d="M187.083 43.3808C187.076 43.4076 187.066 43.4335 187.053 43.4576C185.946 45.6166 184.865 47.7866 183.808 49.9676C183.625 50.3434 183.442 50.722 183.262 51.0978V49.2323C183.442 48.8592 183.624 48.4861 183.808 48.1131C184.625 46.4506 185.455 44.7954 186.299 43.1476C186.308 43.1283 186.319 43.11 186.332 43.0927C186.583 42.7306 187.205 42.9775 187.083 43.3808Z" fill="white"/>
<path d="M194.222 58.5927C194.173 58.6805 194.124 58.7683 194.069 58.8561C193.267 60.2599 192.312 61.5701 191.223 62.7626C189.131 65.0429 186.611 66.8859 183.808 68.1862C183.628 68.274 183.445 68.3563 183.262 68.4331V67.5415C183.445 67.4592 183.628 67.3742 183.808 67.2864C187.865 65.3426 191.235 62.2015 193.468 58.2827C193.5 58.2267 193.544 58.1784 193.597 58.1409C193.649 58.1035 193.709 58.0777 193.772 58.0655C193.835 58.0533 193.9 58.0548 193.963 58.0701C194.025 58.0853 194.084 58.1138 194.134 58.1538C194.169 58.1768 194.199 58.2064 194.222 58.241C194.245 58.2755 194.261 58.3143 194.269 58.355C194.277 58.3958 194.277 58.4378 194.269 58.4786C194.261 58.5193 194.245 58.5581 194.222 58.5927Z" fill="white"/>
<path d="M183.807 9.0531V29.9027H183.261V29.6804H0.546232V29.9027H0V9.0531C0.00234562 6.65279 0.952661 4.35147 2.64239 2.65419C4.33211 0.956917 6.6232 0.0023561 9.01283 0H174.794C177.184 0.0023561 179.475 0.956917 181.165 2.65419C182.854 4.35147 183.805 6.65279 183.807 9.0531Z" fill="#6C63FF"/>
<path d="M174.794 0H9.01283C6.6232 0.0023561 4.33211 0.956917 2.64239 2.65419C0.952661 4.35147 0.00234562 6.65279 0 9.0531V128.115C0.00234562 130.515 0.952661 132.817 2.64239 134.514C4.33211 136.211 6.6232 137.166 9.01283 137.168H174.794C177.184 137.166 179.475 136.211 181.165 134.514C182.854 132.817 183.805 130.515 183.807 128.115V9.0531C183.805 6.65279 182.854 4.35147 181.165 2.65419C179.475 0.956917 177.184 0.0023561 174.794 0ZM183.261 128.115C183.258 130.37 182.365 132.531 180.778 134.125C179.191 135.72 177.039 136.617 174.794 136.619H9.01283C6.76823 136.617 4.61637 135.72 3.0292 134.125C1.44203 132.531 0.549096 130.37 0.546232 128.115V9.0531C0.549096 6.79847 1.44203 4.63701 3.0292 3.04274C4.61637 1.44847 6.76823 0.551549 9.01283 0.548673H174.794C177.039 0.55155 179.191 1.44847 180.778 3.04274C182.365 4.63701 183.258 6.79847 183.261 9.0531V128.115Z" fill="#3F3D56"/>
<path d="M37.144 20.4381C40.1607 20.4381 42.6063 17.9816 42.6063 14.9513C42.6063 11.9211 40.1607 9.4646 37.144 9.4646C34.1272 9.4646 31.6816 11.9211 31.6816 14.9513C31.6816 17.9816 34.1272 20.4381 37.144 20.4381Z" fill="white"/>
<path d="M146.663 20.4381C149.68 20.4381 152.126 17.9816 152.126 14.9513C152.126 11.9211 149.68 9.4646 146.663 9.4646C143.647 9.4646 141.201 11.9211 141.201 14.9513C141.201 17.9816 143.647 20.4381 146.663 20.4381Z" fill="white"/>
<path d="M52.9249 76.129H20.4306C19.054 76.1274 17.7342 75.5774 16.7608 74.5996C15.7874 73.6219 15.2398 72.2962 15.2383 70.9134V55.4868C15.2398 54.104 15.7874 52.7783 16.7608 51.8006C17.7342 50.8228 19.054 50.2728 20.4306 50.2712H52.9249C54.3015 50.2728 55.6213 50.8228 56.5947 51.8006C57.5681 52.7783 58.1157 54.104 58.1173 55.4868V70.9134C58.1157 72.2962 57.5681 73.6219 56.5947 74.5996C55.6213 75.5774 54.3015 76.1274 52.9249 76.129Z" fill="#6C63FF"/>
<path d="M108.204 76.129H75.7099C74.3333 76.1274 73.0135 75.5774 72.0401 74.5996C71.0667 73.6219 70.5191 72.2962 70.5176 70.9134V55.4868C70.5191 54.104 71.0667 52.7783 72.0401 51.8006C73.0135 50.8228 74.3333 50.2728 75.7099 50.2712H108.204C109.581 50.2728 110.901 50.8228 111.874 51.8006C112.847 52.7783 113.395 54.104 113.397 55.4868V70.9134C113.395 72.2962 112.847 73.6219 111.874 74.5996C110.901 75.5774 109.581 76.1274 108.204 76.129Z" fill="#6C63FF"/>
<path d="M108.203 115.987H75.709C74.2907 115.986 72.9309 115.419 71.928 114.412C70.9251 113.404 70.361 112.039 70.3594 110.614V95.187C70.361 93.7624 70.9251 92.3965 71.928 91.3891C72.9309 90.3817 74.2907 89.8151 75.709 89.8135H108.203C109.622 89.8151 110.981 90.3817 111.984 91.3891C112.987 92.3965 113.551 93.7624 113.553 95.187V110.614C113.551 112.039 112.987 113.404 111.984 114.412C110.981 115.419 109.622 115.986 108.203 115.987Z" fill="#F2F2F2"/>
<path d="M52.8186 115.987H20.3243C18.9059 115.986 17.5462 115.419 16.5433 114.412C15.5403 113.404 14.9762 112.039 14.9746 110.614V95.187C14.9762 93.7624 15.5403 92.3965 16.5433 91.3891C17.5462 90.3817 18.9059 89.8151 20.3243 89.8135H52.8186C54.2369 89.8151 55.5967 90.3817 56.5996 91.3891C57.6025 92.3965 58.1667 93.7624 58.1683 95.187V110.614C58.1667 112.039 57.6025 113.404 56.5996 114.412C55.5967 115.419 54.2369 115.986 52.8186 115.987Z" fill="#F2F2F2"/>
<path d="M163.483 115.987H130.988C129.57 115.986 128.21 115.419 127.207 114.412C126.204 113.404 125.64 112.039 125.639 110.614V95.187C125.64 93.7624 126.204 92.3965 127.207 91.3891C128.21 90.3817 129.57 89.8151 130.988 89.8135H163.483C164.901 89.8151 166.261 90.3817 167.264 91.3891C168.267 92.3965 168.831 93.7624 168.832 95.187V110.614C168.831 112.039 168.267 113.404 167.264 114.412C166.261 115.419 164.901 115.986 163.483 115.987Z" fill="#F2F2F2"/>
<path d="M163.483 76.1598H130.988C129.57 76.1582 128.21 75.5915 127.207 74.5841C126.204 73.5767 125.64 72.2109 125.639 70.7862V55.3594C125.64 53.9347 126.204 52.5689 127.207 51.5615C128.21 50.5541 129.57 49.9874 130.988 49.9858H163.483C164.901 49.9874 166.261 50.5541 167.264 51.5615C168.267 52.5689 168.831 53.9347 168.832 55.3594V70.7862C168.831 72.2109 168.267 73.5767 167.264 74.5841C166.261 75.5915 164.901 76.1582 163.483 76.1598Z" fill="#F2F2F2"/>
<path d="M36.6784 72.0505C41.5447 72.0505 45.4896 68.088 45.4896 63.2C45.4896 58.3119 41.5447 54.3494 36.6784 54.3494C31.8121 54.3494 27.8672 58.3119 27.8672 63.2C27.8672 68.088 31.8121 72.0505 36.6784 72.0505Z" fill="white"/>
<path d="M35.806 66.5764C35.6077 66.5768 35.4148 66.5124 35.2561 66.3929L35.2463 66.3855L33.1756 64.793C33.0796 64.7193 32.999 64.6272 32.9384 64.5222C32.8778 64.4171 32.8384 64.3011 32.8225 64.1807C32.8065 64.0603 32.8144 63.938 32.8456 63.8207C32.8767 63.7033 32.9306 63.5933 33.0042 63.497C33.0777 63.4006 33.1694 63.3197 33.2741 63.2589C33.3787 63.1982 33.4943 63.1587 33.6141 63.1428C33.734 63.127 33.8558 63.135 33.9726 63.1664C34.0893 63.1978 34.1988 63.2521 34.2947 63.326L35.6359 64.3591L38.8055 60.207C38.879 60.1107 38.9707 60.0299 39.0753 59.9692C39.1799 59.9085 39.2953 59.869 39.4151 59.8532C39.5349 59.8373 39.6566 59.8453 39.7733 59.8766C39.89 59.908 39.9994 59.9621 40.0953 60.036L40.0756 60.0629L40.0958 60.0364C40.2892 60.1857 40.4157 60.4059 40.4476 60.6488C40.4796 60.8917 40.4143 61.1374 40.2661 61.332L36.5379 66.2158C36.4517 66.3283 36.3408 66.4194 36.2139 66.4819C36.0869 66.5445 35.9474 66.5768 35.806 66.5764Z" fill="#6C63FF"/>
<path d="M92.114 71.9236C96.9803 71.9236 100.925 67.961 100.925 63.073C100.925 58.185 96.9803 54.2224 92.114 54.2224C87.2477 54.2224 83.3027 58.185 83.3027 63.073C83.3027 67.961 87.2477 71.9236 92.114 71.9236Z" fill="white"/>
<path d="M91.2408 66.4492C91.0426 66.4496 90.8496 66.3852 90.691 66.2657L90.6811 66.2583L88.6104 64.6659C88.4168 64.5168 88.29 64.2966 88.258 64.0536C88.2259 63.8106 88.2913 63.5649 88.4397 63.3703C88.5881 63.1758 88.8074 63.0484 89.0492 63.0163C89.2911 62.9841 89.5358 63.0498 89.7295 63.1988L91.0707 64.2319L94.2403 60.0798C94.3138 59.9835 94.4055 59.9027 94.5101 59.842C94.6147 59.7813 94.7302 59.7418 94.8499 59.726C94.9697 59.7101 95.0914 59.7181 95.2081 59.7494C95.3249 59.7808 95.4343 59.8349 95.5301 59.9088L95.5104 59.9357L95.5306 59.9092C95.724 60.0585 95.8505 60.2787 95.8825 60.5216C95.9144 60.7645 95.8491 61.0102 95.7009 61.2048L91.9727 66.0886C91.8865 66.2011 91.7756 66.2922 91.6487 66.3547C91.5218 66.4173 91.3822 66.4496 91.2408 66.4492Z" fill="#6C63FF"/>
<path d="M151.664 104.837C151.953 104.52 152.17 104.142 152.298 103.731C152.427 103.319 152.464 102.885 152.407 102.458C152.35 102.031 152.201 101.622 151.969 101.259C151.738 100.896 151.43 100.589 151.068 100.358L146.148 73.9746L140.166 76.2029L146.883 101.437C146.538 102.074 146.437 102.816 146.601 103.523C146.764 104.229 147.18 104.851 147.769 105.27C148.359 105.689 149.081 105.877 149.798 105.797C150.516 105.717 151.18 105.376 151.664 104.837Z" fill="#A0616A"/>
<path d="M103.927 64.5788C103.942 64.7427 103.944 64.9074 103.933 65.0716L115.565 74.0642L118.864 72.7036L121.559 77.4357L115.952 80.4144C115.499 80.655 114.981 80.7416 114.475 80.6611C113.969 80.5805 113.502 80.3373 113.146 79.9679L101.519 67.9275C100.903 68.0669 100.26 68.0148 99.6751 67.7781C99.0898 67.5415 98.5901 67.1314 98.2425 66.6025C97.895 66.0737 97.7159 65.451 97.7292 64.8174C97.7425 64.1838 97.9475 63.5693 98.317 63.0556C98.6865 62.5419 99.2029 62.1534 99.7976 61.9417C100.392 61.73 101.037 61.7052 101.646 61.8706C102.255 62.0359 102.8 62.3836 103.207 62.8674C103.615 63.3512 103.866 63.9481 103.927 64.5788Z" fill="#A0616A"/>
<path d="M131.103 151.666H127.755L126.162 141.437L131.104 141.437L131.103 151.666Z" fill="#A0616A"/>
<path d="M131.957 154.927L121.16 154.927V154.789C121.16 154.235 121.269 153.686 121.48 153.174C121.691 152.662 122.001 152.197 122.391 151.805C122.781 151.413 123.244 151.102 123.754 150.89C124.264 150.678 124.811 150.568 125.362 150.568L131.957 150.569L131.957 154.927Z" fill="#2F2E41"/>
<path d="M143.666 151.666H140.318L138.725 141.437L143.667 141.437L143.666 151.666Z" fill="#A0616A"/>
<path d="M144.521 154.927L133.725 154.927V154.789C133.725 154.235 133.833 153.686 134.044 153.174C134.256 152.662 134.565 152.197 134.955 151.805C135.346 151.413 135.809 151.102 136.319 150.89C136.829 150.678 137.375 150.568 137.927 150.568L144.521 150.569L144.521 154.927Z" fill="#2F2E41"/>
<path d="M127.06 149.645C126.754 149.645 126.459 149.531 126.233 149.324C126.007 149.117 125.866 148.833 125.838 148.528L122.92 109.108L123.058 109.097L143.138 107.439L143.143 107.583L144.739 148.418C144.745 148.584 144.718 148.749 144.659 148.904C144.6 149.059 144.511 149.201 144.396 149.32C144.282 149.44 144.144 149.535 143.992 149.6C143.84 149.665 143.676 149.698 143.511 149.698H139.574C139.28 149.7 138.995 149.595 138.772 149.402C138.549 149.21 138.402 148.944 138.359 148.652L133.013 115.664C133.007 115.63 132.99 115.599 132.963 115.578C132.936 115.556 132.902 115.546 132.868 115.548C132.834 115.551 132.801 115.566 132.778 115.591C132.755 115.616 132.741 115.649 132.741 115.684L132.499 148.254C132.496 148.569 132.374 148.87 132.158 149.098C131.942 149.325 131.647 149.461 131.334 149.478L127.126 149.643C127.104 149.644 127.082 149.645 127.06 149.645Z" fill="#2F2E41"/>
<path d="M130.487 59.2911C134.192 59.2911 137.195 56.2745 137.195 52.5532C137.195 48.8319 134.192 45.8152 130.487 45.8152C126.783 45.8152 123.779 48.8319 123.779 52.5532C123.779 56.2745 126.783 59.2911 130.487 59.2911Z" fill="#A0616A"/>
<path d="M131.787 111.622C128.855 111.614 125.937 111.213 123.11 110.431C122.838 110.352 122.602 110.18 122.441 109.946C122.28 109.712 122.204 109.429 122.226 109.146C123.13 95.5129 123.342 84.9336 121.443 77.6137C120.634 74.4939 121.001 71.2082 122.451 68.599C124.633 64.6725 128.644 62.2826 132.922 62.3651C133.127 62.369 133.333 62.3763 133.542 62.3871C140.034 62.7229 145.094 68.6229 144.82 75.5393L143.514 108.506C143.509 108.746 143.434 108.98 143.297 109.178C143.16 109.375 142.968 109.527 142.745 109.615C139.242 110.939 135.53 111.619 131.787 111.622Z" fill="#3F3D56"/>
<path d="M122.545 80.1448L117.52 73.96C117.377 73.784 117.274 73.5792 117.217 73.3594C117.16 73.1396 117.151 72.91 117.19 72.6863C117.229 72.4627 117.316 72.2501 117.444 72.0631C117.573 71.8762 117.74 71.7192 117.934 71.6029L124.74 67.529C125.641 66.7992 126.793 66.4579 127.943 66.5799C129.094 66.702 130.15 67.2773 130.878 68.1799C131.607 69.0825 131.95 70.2386 131.832 71.3947C131.713 72.5508 131.143 73.6125 130.247 74.347L124.927 80.2104C124.775 80.3782 124.588 80.5111 124.38 80.6C124.172 80.6889 123.947 80.7316 123.721 80.7254C123.495 80.7192 123.273 80.6641 123.07 80.5639C122.867 80.4637 122.688 80.3207 122.545 80.1448Z" fill="#3F3D56"/>
<path d="M138.352 79.3688C138.145 79.276 137.961 79.1396 137.812 78.9689C137.663 78.7982 137.552 78.5971 137.487 78.3795L135.225 70.7789C134.734 69.7265 134.679 68.5213 135.071 67.4279C135.464 66.3344 136.272 65.4419 137.318 64.9461C138.365 64.4502 139.565 64.3916 140.654 64.783C141.744 65.1743 142.634 65.9838 143.13 67.0338L147.505 73.6696C147.63 73.859 147.712 74.0731 147.747 74.2975C147.782 74.5219 147.769 74.7513 147.707 74.9699C147.646 75.1886 147.539 75.3914 147.393 75.5646C147.246 75.7378 147.065 75.8773 146.86 75.9736L139.662 79.3578C139.457 79.4543 139.234 79.5051 139.008 79.507C138.782 79.5089 138.558 79.4618 138.352 79.3688Z" fill="#3F3D56"/>
<path d="M133.801 58.0817L128.829 56.9385C128.316 56.8206 127.7 56.5956 127.629 56.0719C127.533 55.3682 128.541 54.878 128.448 54.1739C128.358 53.492 127.44 53.4041 126.785 53.2028C126.175 52.9879 125.672 52.5431 125.383 51.9624C125.094 51.3818 125.041 50.7109 125.236 50.0918C124.527 51.0947 122.908 51.1807 121.989 50.3681C121.07 49.5555 120.894 48.0812 121.446 46.9834C121.744 46.4441 122.165 45.9832 122.674 45.6381C123.182 45.2929 123.765 45.0733 124.375 44.997C125.6 44.8575 126.839 45.0894 127.931 45.6631C128.004 44.8858 128.97 44.5707 129.748 44.5637C131.362 44.5826 132.931 45.1066 134.235 46.0628C135.539 47.019 136.514 48.3598 137.024 49.8986C137.978 52.9854 137.34 56.3691 134.672 58.1753L133.801 58.0817Z" fill="#2F2E41"/>
<path d="M183.885 155H79.8278C79.7554 155 79.6859 154.971 79.6347 154.92C79.5835 154.868 79.5547 154.799 79.5547 154.726C79.5547 154.653 79.5835 154.583 79.6347 154.532C79.6859 154.48 79.7554 154.451 79.8278 154.451H183.885C183.957 154.451 184.027 154.48 184.078 154.532C184.129 154.583 184.158 154.653 184.158 154.726C184.158 154.799 184.129 154.868 184.078 154.92C184.027 154.971 183.957 155 183.885 155Z" fill="#3F3D56"/>
</g>
<defs>
<clipPath id="clip0_397_43">
<rect width="233" height="155" fill="white"/>
</clipPath>
</defs>
</svg>
