<svg width="96" height="110" viewBox="0 0 96 110" fill="none" xmlns="http://www.w3.org/2000/svg">
<g clip-path="url(#clip0_90_6)">
<path d="M27.4286 52.4219V43.8281C27.4286 42.4044 28.5799 41.25 30 41.25H38.5714C39.9915 41.25 41.1429 42.4044 41.1429 43.8281V52.4219C41.1429 53.8456 39.9915 55 38.5714 55H30C28.5799 55 27.4286 53.8456 27.4286 52.4219ZM57.4286 55H66C67.4201 55 68.5714 53.8456 68.5714 52.4219V43.8281C68.5714 42.4044 67.4201 41.25 66 41.25H57.4286C56.0085 41.25 54.8571 42.4044 54.8571 43.8281V52.4219C54.8571 53.8456 56.0085 55 57.4286 55ZM41.1429 73.0469V64.4531C41.1429 63.0294 39.9915 61.875 38.5714 61.875H30C28.5799 61.875 27.4286 63.0294 27.4286 64.4531V73.0469C27.4286 74.4706 28.5799 75.625 30 75.625H38.5714C39.9915 75.625 41.1429 74.4706 41.1429 73.0469ZM57.4286 75.625H66C67.4201 75.625 68.5714 74.4706 68.5714 73.0469V64.4531C68.5714 63.0294 67.4201 61.875 66 61.875H57.4286C56.0085 61.875 54.8571 63.0294 54.8571 64.4531V73.0469C54.8571 74.4706 56.0085 75.625 57.4286 75.625ZM96 102.266V110H0V102.266C0 100.842 1.15136 99.6875 2.57143 99.6875H6.75V18.2692C6.75 15.7734 9.0525 13.75 11.8929 13.75H30.8571V5.15625C30.8571 2.3085 33.1596 0 36 0H60C62.8404 0 65.1429 2.3085 65.1429 5.15625V13.75H84.1071C86.9475 13.75 89.25 15.7734 89.25 18.2692V99.6875H93.4286C94.8486 99.6875 96 100.842 96 102.266ZM17.0357 99.4727H41.1429V85.0781C41.1429 83.6544 42.2942 82.5 43.7143 82.5H52.2857C53.7058 82.5 54.8571 83.6544 54.8571 85.0781V99.4727H78.9643V24.0625H65.1429V29.2188C65.1429 32.0665 62.8404 34.375 60 34.375H36C33.1596 34.375 30.8571 32.0665 30.8571 29.2188V24.0625H17.0357V99.4727ZM57 13.75H51.4286V8.16406C51.4286 7.82218 51.2931 7.4943 51.052 7.25256C50.8109 7.01081 50.4838 6.875 50.1429 6.875H45.8571C45.5162 6.875 45.1891 7.01081 44.948 7.25256C44.7069 7.4943 44.5714 7.82218 44.5714 8.16406V13.75H39C38.659 13.75 38.332 13.8858 38.0909 14.1276C37.8497 14.3693 37.7143 14.6972 37.7143 15.0391V19.3359C37.7143 19.6778 37.8497 20.0057 38.0909 20.2474C38.332 20.4892 38.659 20.625 39 20.625H44.5714V26.2109C44.5714 26.5528 44.7069 26.8807 44.948 27.1224C45.1891 27.3642 45.5162 27.5 45.8571 27.5H50.1429C50.4838 27.5 50.8109 27.3642 51.052 27.1224C51.2931 26.8807 51.4286 26.5528 51.4286 26.2109V20.625H57C57.341 20.625 57.668 20.4892 57.9091 20.2474C58.1503 20.0057 58.2857 19.6778 58.2857 19.3359V15.0391C58.2857 14.6972 58.1503 14.3693 57.9091 14.1276C57.668 13.8858 57.341 13.75 57 13.75Z" fill="#1F2E88"/>
</g>
<defs>
<clipPath id="clip0_90_6">
<rect width="96" height="110" fill="white"/>
</clipPath>
</defs>
</svg>
