<svg width="121" height="121" viewBox="0 0 121 121" fill="none" xmlns="http://www.w3.org/2000/svg">
<g clip-path="url(#clip0_90_31)">
<path d="M90.75 109.656H30.25C27.2415 109.656 24.3561 108.461 22.2288 106.334C20.1014 104.206 18.9062 101.321 18.9062 98.3125V60.5C18.9062 59.4972 19.3046 58.5354 20.0138 57.8263C20.7229 57.1171 21.6847 56.7188 22.6875 56.7188C23.6904 56.7188 24.6521 57.1171 25.3612 57.8263C26.0704 58.5354 26.4688 59.4972 26.4688 60.5V98.3125C26.4688 99.3153 26.8671 100.277 27.5763 100.986C28.2854 101.695 29.2472 102.094 30.25 102.094H90.75C91.7529 102.094 92.7146 101.695 93.4238 100.986C94.1329 100.277 94.5312 99.3153 94.5312 98.3125V60.5C94.5312 59.4972 94.9296 58.5354 95.6387 57.8263C96.3479 57.1171 97.3096 56.7188 98.3125 56.7188C99.3154 56.7188 100.277 57.1171 100.986 57.8263C101.695 58.5354 102.094 59.4972 102.094 60.5V98.3125C102.094 101.321 100.899 104.206 98.7712 106.334C96.6439 108.461 93.7586 109.656 90.75 109.656Z" fill="#1F2E88"/>
<path d="M56.7188 109.656H37.8125C36.8097 109.656 35.8479 109.258 35.1388 108.549C34.4296 107.84 34.0312 106.878 34.0312 105.875V83.1875C34.0312 80.179 35.2264 77.2936 37.3538 75.1663C39.4811 73.0389 42.3665 71.8438 45.375 71.8438H49.1562C52.1648 71.8438 55.0501 73.0389 57.1775 75.1663C59.3049 77.2936 60.5 80.179 60.5 83.1875V105.875C60.5 106.878 60.1016 107.84 59.3925 108.549C58.6834 109.258 57.7216 109.656 56.7188 109.656ZM41.5938 102.094H52.9375V83.1875C52.9375 82.1847 52.5391 81.2229 51.83 80.5137C51.1209 79.8046 50.1591 79.4062 49.1562 79.4062H45.375C44.3722 79.4062 43.4104 79.8046 42.7013 80.5137C41.9921 81.2229 41.5938 82.1847 41.5938 83.1875V102.094ZM94.5312 64.2812C90.5199 64.2812 86.6728 62.6877 83.8363 59.8512C80.9998 57.0148 79.4062 53.1676 79.4062 49.1562C79.4062 48.1534 79.8046 47.1916 80.5137 46.4825C81.2229 45.7734 82.1846 45.375 83.1875 45.375C84.1904 45.375 85.1521 45.7734 85.8613 46.4825C86.5704 47.1916 86.9688 48.1534 86.9688 49.1562C86.9688 51.1619 87.7655 53.0855 89.1838 54.5037C90.602 55.922 92.5256 56.7188 94.5312 56.7188C96.5369 56.7188 98.4605 55.922 99.8787 54.5037C101.297 53.0855 102.094 51.1619 102.094 49.1562V46.2825L92.1869 26.4688H28.8131L18.9062 46.2825V49.1562C18.9062 51.1619 19.703 53.0855 21.1213 54.5037C22.5395 55.922 24.463 56.7188 26.4688 56.7188C28.4744 56.7188 30.398 55.922 31.8162 54.5037C33.2345 53.0855 34.0312 51.1619 34.0312 49.1562C34.0312 48.1534 34.4296 47.1916 35.1388 46.4825C35.8479 45.7734 36.8097 45.375 37.8125 45.375C38.8153 45.375 39.7771 45.7734 40.4862 46.4825C41.1954 47.1916 41.5938 48.1534 41.5938 49.1562C41.5938 53.1676 40.0002 57.0148 37.1637 59.8512C34.3273 62.6877 30.4802 64.2812 26.4688 64.2812C22.4574 64.2812 18.6102 62.6877 15.7738 59.8512C12.9373 57.0148 11.3438 53.1676 11.3438 49.1562V45.375C11.3473 44.7831 11.4898 44.2003 11.7597 43.6734L23.1034 20.9859C23.4177 20.3624 23.8984 19.838 24.4924 19.4709C25.0864 19.1038 25.7705 18.9084 26.4688 18.9062H94.5312C95.2295 18.9084 95.9136 19.1038 96.5076 19.4709C97.1016 19.838 97.5823 20.3624 97.8966 20.9859L109.24 43.6734C109.51 44.2003 109.653 44.7831 109.656 45.375V49.1562C109.656 53.1676 108.063 57.0148 105.226 59.8512C102.39 62.6877 98.5426 64.2812 94.5312 64.2812Z" fill="#1F2E88"/>
<path d="M49.1562 64.2812C45.1449 64.2812 41.2977 62.6877 38.4613 59.8512C35.6248 57.0148 34.0313 53.1676 34.0312 49.1562C34.0312 48.1534 34.4296 47.1916 35.1388 46.4825C35.8479 45.7734 36.8097 45.375 37.8125 45.375C38.8154 45.375 39.7771 45.7734 40.4862 46.4825C41.1954 47.1916 41.5938 48.1534 41.5938 49.1562C41.5938 51.1619 42.3905 53.0855 43.8088 54.5037C45.227 55.922 47.1505 56.7188 49.1562 56.7188C51.1619 56.7188 53.0855 55.922 54.5037 54.5037C55.922 53.0855 56.7188 51.1619 56.7188 49.1562C56.7188 48.1534 57.1171 47.1916 57.8263 46.4825C58.5354 45.7734 59.4972 45.375 60.5 45.375C61.5028 45.375 62.4646 45.7734 63.1737 46.4825C63.8829 47.1916 64.2812 48.1534 64.2812 49.1562C64.2812 53.1676 62.6877 57.0148 59.8512 59.8512C57.0148 62.6877 53.1677 64.2812 49.1562 64.2812Z" fill="#1F2E88"/>
<path d="M71.8438 64.2812C67.8324 64.2812 63.9853 62.6877 61.1488 59.8512C58.3123 57.0148 56.7188 53.1676 56.7188 49.1562C56.7188 48.1534 57.1171 47.1916 57.8263 46.4825C58.5354 45.7734 59.4972 45.375 60.5 45.375C61.5029 45.375 62.4646 45.7734 63.1738 46.4825C63.8829 47.1916 64.2812 48.1534 64.2812 49.1562C64.2812 51.1619 65.078 53.0855 66.4963 54.5037C67.9145 55.922 69.838 56.7188 71.8438 56.7188C73.8494 56.7188 75.773 55.922 77.1912 54.5037C78.6095 53.0855 79.4062 51.1619 79.4062 49.1562C79.4062 48.1534 79.8046 47.1916 80.5138 46.4825C81.2229 45.7734 82.1847 45.375 83.1875 45.375C84.1903 45.375 85.1521 45.7734 85.8612 46.4825C86.5704 47.1916 86.9688 48.1534 86.9688 49.1562C86.9688 53.1676 85.3752 57.0148 82.5387 59.8512C79.7022 62.6877 75.8552 64.2812 71.8438 64.2812ZM83.1875 83.1875H71.8438C70.8409 83.1875 69.8791 82.7891 69.17 82.08C68.4609 81.3709 68.0625 80.4091 68.0625 79.4062C68.0625 78.4034 68.4609 77.4416 69.17 76.7325C69.8791 76.0234 70.8409 75.625 71.8438 75.625H83.1875C84.1903 75.625 85.1521 76.0234 85.8612 76.7325C86.5704 77.4416 86.9688 78.4034 86.9688 79.4062C86.9688 80.4091 86.5704 81.3709 85.8612 82.08C85.1521 82.7891 84.1903 83.1875 83.1875 83.1875Z" fill="#1F2E88"/>
</g>
<defs>
<clipPath id="clip0_90_31">
<rect width="121" height="121" fill="white"/>
</clipPath>
</defs>
</svg>
