<svg width="122" height="122" viewBox="0 0 122 122" fill="none" xmlns="http://www.w3.org/2000/svg">
<path d="M106.75 87.6875V114.375H15.25V87.6875C15.25 83.643 16.8567 79.7641 19.7166 76.9041C22.5766 74.0442 26.4554 72.4375 30.5 72.4375H42.0061C40.4591 74.8793 39.3604 77.5777 38.7617 80.4056C35.3487 81.1366 32.2891 83.0146 30.0922 85.7269C27.8953 88.4392 26.6937 91.8221 26.6875 95.3125V101.031C26.6875 101.537 26.8883 102.022 27.2458 102.379C27.6033 102.737 28.0882 102.938 28.5938 102.938H36.2188C36.7243 102.938 37.2092 102.737 37.5667 102.379C37.9242 102.022 38.125 101.537 38.125 101.031C38.125 100.526 37.9242 100.041 37.5667 99.6833C37.2092 99.3258 36.7243 99.125 36.2188 99.125H34.3125V95.3125C34.3134 94.2023 34.5565 93.1056 35.0248 92.099C35.4931 91.0924 36.1754 90.2 37.0241 89.4842C37.8727 88.7684 38.8673 88.2464 39.9385 87.9545C41.0097 87.6626 42.1316 87.6079 43.2261 87.7943C46.9738 88.4119 49.5625 91.9384 49.5625 95.7395V99.125H47.6562C47.1507 99.125 46.6658 99.3258 46.3083 99.6833C45.9508 100.041 45.75 100.526 45.75 101.031C45.75 101.537 45.9508 102.022 46.3083 102.379C46.6658 102.737 47.1507 102.938 47.6562 102.938H55.2812C55.7868 102.938 56.2717 102.737 56.6292 102.379C56.9867 102.022 57.1875 101.537 57.1875 101.031V95.3125C57.1875 88.5224 52.6926 82.8189 46.5468 80.8517C47.4971 77.5452 49.4369 74.6089 52.1054 72.4375H73.2648C78.4002 76.6541 78.9569 81.3778 79.5936 85.1903C78.5665 85.8867 77.7247 86.823 77.1411 87.9181C76.5575 89.0132 76.2497 90.234 76.2444 91.4749C76.239 92.7158 76.5363 93.9393 77.1105 95.0393C77.6846 96.1394 78.5183 97.0829 79.5394 97.7881C80.5604 98.4933 81.738 98.9389 82.9701 99.0863C84.2022 99.2337 85.4517 99.0785 86.6103 98.6341C87.7689 98.1898 88.8016 97.4696 89.6191 96.5361C90.4366 95.6025 91.0142 94.4837 91.3018 93.2766C91.6998 91.5976 91.5151 89.8331 90.7779 88.2729C90.0408 86.7128 88.7951 85.4496 87.2453 84.6909C86.6048 80.8517 86.2692 77.2641 83.2459 72.4375H91.5C95.5445 72.4375 99.4234 74.0442 102.283 76.9041C105.143 79.7641 106.75 83.643 106.75 87.6875ZM38.125 26.6875V19.0625C38.125 16.0291 39.33 13.1199 41.475 10.975C43.6199 8.83002 46.5291 7.625 49.5625 7.625H72.4375C75.4709 7.625 78.3801 8.83002 80.525 10.975C82.67 13.1199 83.875 16.0291 83.875 19.0625V26.6875H38.125ZM83.875 30.5V41.9375C83.875 48.0043 81.465 53.8227 77.1751 58.1126C72.8852 62.4025 67.0668 64.8125 61 64.8125C54.9332 64.8125 49.1148 62.4025 44.8249 58.1126C40.535 53.8227 38.125 48.0043 38.125 41.9375V30.5H45.75V41.9375C45.75 43.1156 45.9139 44.2517 46.1656 45.3497C49.6578 40.9806 54.9686 38.125 61 38.125C67.0314 38.125 72.3422 40.9806 75.8344 45.3497C76.0861 44.2517 76.25 43.1156 76.25 41.9375V30.5H83.875Z" fill="#1F2E88"/>
</svg>
